<?xml version="1.0" encoding="utf-8"?>
<!-- Generator: Adobe Illustrator 24.2.1, SVG Export Plug-In . SVG Version: 6.00 Build 0)  -->
<svg version="1.1"
	 id="Laag_1" xmlns:cc="http://creativecommons.org/ns#" xmlns:dc="http://purl.org/dc/elements/1.1/" xmlns:inkscape="http://www.inkscape.org/namespaces/inkscape" xmlns:rdf="http://www.w3.org/1999/02/22-rdf-syntax-ns#" xmlns:sodipodi="http://sodipodi.sourceforge.net/DTD/sodipodi-0.dtd" xmlns:svg="http://www.w3.org/2000/svg"
	 xmlns="http://www.w3.org/2000/svg" xmlns:xlink="http://www.w3.org/1999/xlink" x="0px" y="0px" viewBox="0 0 283 53.9"
	 style="enable-background:new 0 0 283 53.9;" xml:space="preserve">
<style type="text/css">
	.st0{fill:#060352;}
	.st1{fill:#FFFFFF;}
</style>
<sodipodi:namedview  bordercolor="#666666" borderopacity="1" gridtolerance="10" guidetolerance="10" id="namedview230" inkscape:current-layer="Laag_1" inkscape:cx="128.21422" inkscape:cy="47.072151" inkscape:pageopacity="0" inkscape:pageshadow="2" inkscape:window-height="933" inkscape:window-maximized="0" inkscape:window-width="1627" inkscape:window-x="221" inkscape:window-y="102" inkscape:zoom="3.8763251" objecttolerance="10" pagecolor="#ffffff" showgrid="false">
	</sodipodi:namedview>
<path id="path151" class="st0" d="M229.9,20.8c3.4-14.5,17.9-23.4,32.4-20s23.4,17.9,20,32.4s-17.9,23.4-32.4,20l0,0
	C235.5,49.7,226.5,35.3,229.9,20.8z"/>
<g id="g159">
	<path id="path153" class="st1" d="M252.9,16.5c0.1-0.1,0.2-0.1,0.3-0.1h4.5c0.2,0,0.4,0.2,0.4,0.4v19.1c0,0.2-0.1,0.4-0.3,0.4h-0.1
		h-4.3c-0.2,0-0.4-0.1-0.5-0.3l-5.8-9.7c0-0.1,0-0.1-0.1-0.1s-0.1,0-0.1,0.1l0.1,9.5c0,0.2-0.2,0.4-0.4,0.4h-4.5
		c-0.2,0-0.4-0.1-0.4-0.3v-0.1v-19c0-0.2,0.2-0.4,0.4-0.4h4.3c0.2,0,0.4,0.1,0.5,0.3l5.8,9.7l0.1,0.1c0.1,0,0.1,0,0.1-0.1l0,0v-9.5
		C252.8,16.7,252.9,16.6,252.9,16.5z"/>
	<path id="path155" class="st1" d="M264,35.7c-1.2-0.5-2.1-1.4-2.8-2.5c-0.7-1.1-1-2.5-1-3.8V16.8c0-0.2,0.2-0.4,0.4-0.4h4.5
		c0.2,0,0.4,0.2,0.4,0.4l0,0v12.6c0,0.7,0.2,1.4,0.7,1.9c1,0.9,2.6,0.9,3.6,0c0.5-0.5,0.7-1.2,0.7-1.9V16.8c0-0.2,0.2-0.4,0.4-0.4
		h4.5c0.2,0,0.4,0.2,0.4,0.4l0,0v12.6c0,1.3-0.3,2.6-0.9,3.8c-0.7,1.1-1.6,1.9-2.7,2.5C269.6,36.9,266.6,36.9,264,35.7z"/>
	<path id="path157" class="st1" d="M236.9,31.3c1.4,0,2.5,1.1,2.5,2.5s-1.1,2.5-2.5,2.5s-2.5-1.1-2.5-2.5l0,0l0,0
		C234.4,32.4,235.5,31.3,236.9,31.3z"/>
</g>
<g id="g223">
	<path id="path161" class="st0" d="M6.8,35.2c-2.1-1-3.8-2.7-5-4.7C0.6,28.4,0,26,0,23.5V13.2c0-2.4,0.6-4.8,1.8-6.9
		c1.2-2,2.9-3.6,5-4.6C9.1,0.5,11.6,0,14.2,0c2.5-0.1,5.1,0.4,7.4,1.5c2,0.9,3.8,2.4,5,4.3c1.2,2,1.8,4.2,1.8,6.5
		c0,0.3-0.2,0.5-0.8,0.6l-8.1,0.5h-0.1c-0.3,0-0.6-0.2-0.6-0.4c0-0.1,0-0.1,0-0.2c0.1-1.2-0.4-2.5-1.2-3.4c-0.9-0.9-2.1-1.3-3.3-1.2
		c-1.2-0.1-2.4,0.4-3.3,1.2c-0.9,0.9-1.3,2.1-1.2,3.4V24c0,1.2,0.4,2.4,1.2,3.3c0.9,0.9,2.1,1.3,3.3,1.2c1.2,0.1,2.4-0.4,3.3-1.2
		c0.8-0.9,1.3-2.1,1.2-3.3c0-0.2,0.1-0.4,0.2-0.5c0.2-0.1,0.4-0.1,0.6-0.1l8.1,0.4c0.5,0,0.8,0.2,0.8,0.5c0,2.3-0.6,4.5-1.8,6.5
		c-1.2,1.9-3,3.4-5,4.4c-2.3,1.1-4.8,1.6-7.4,1.6C11.7,36.9,9.1,36.3,6.8,35.2z"/>
	<path id="path163" class="st0" d="M40.2,9v6c0,0.1,0.1,0.2,0.2,0.2h4.9c1,0,1.9-0.3,2.7-0.9c0.7-0.6,1.1-1.5,1-2.4
		c0-0.9-0.3-1.8-1-2.4c-0.8-0.6-1.7-0.9-2.7-0.9h-4.9C40.3,8.7,40.2,8.8,40.2,9z M48.6,35.9l-5.7-13.1c0-0.1-0.2-0.2-0.3-0.2h-2.2
		c-0.1,0-0.2,0.1-0.3,0.2v12.9c0,0.4-0.2,0.7-0.6,0.8h-8.3c-0.4,0-0.7-0.3-0.8-0.6V1.2c0-0.2,0.1-0.4,0.2-0.6
		c0.2-0.1,0.4-0.2,0.6-0.2h15.6c2.1,0,4.2,0.5,6.1,1.4c1.7,0.9,3.2,2.3,4.1,4c1,1.8,1.5,3.9,1.5,6c0.1,2.1-0.5,4.2-1.6,6
		c-1.1,1.7-2.7,3-4.6,3.7c-0.1,0-0.2,0.2-0.2,0.3l0,0v0.1l6.5,13.6c0,0.1,0.1,0.2,0.1,0.4s-0.1,0.3-0.2,0.4
		c-0.1,0.1-0.3,0.2-0.5,0.2h-8.6C49,36.5,48.7,36.2,48.6,35.9L48.6,35.9z"/>
	<path id="path165" class="st0" d="M86.7,8.5c-0.2,0.1-0.4,0.2-0.6,0.2H70.8c-0.1,0-0.2,0.1-0.3,0.2v4.9c0,0.1,0.1,0.2,0.2,0.3h9.6
		c0.4,0,0.7,0.2,0.8,0.6l0,0v6.8c0,0.2,0,0.4-0.2,0.6c-0.2,0.1-0.4,0.2-0.6,0.2h-9.5c-0.1,0-0.2,0.1-0.3,0.2l0,0v5.4
		c0,0.1,0.1,0.2,0.2,0.3h15.4c0.2,0,0.4,0.1,0.6,0.2c0.1,0.2,0.2,0.4,0.2,0.6v6.7c0,0.4-0.3,0.7-0.7,0.8H61.6
		c-0.4,0-0.7-0.3-0.8-0.6V1.2c0-0.2,0.1-0.4,0.2-0.6c0.2-0.1,0.4-0.2,0.6-0.2h24.5c0.2,0,0.4,0.1,0.6,0.2C86.9,0.8,87,1,86.9,1.2V8
		C87,8.1,86.9,8.3,86.7,8.5z"/>
	<path id="path167" class="st0" d="M102,24.1h6.4c0.2,0,0.3-0.1,0.2-0.3l-3.3-11.5c0-0.1-0.1-0.1-0.2-0.1s-0.1,0-0.2,0.1l-3.2,11.5
		C101.8,24,101.8,24.1,102,24.1z M112.1,35.8l-1.1-4c-0.1-0.1-0.2-0.2-0.3-0.2H99.8c-0.1,0-0.2,0.1-0.3,0.2l-1.1,4
		c-0.1,0.4-0.5,0.7-0.9,0.7h-8.8c-0.6,0-0.8-0.3-0.7-0.9L98.9,1c0.1-0.4,0.5-0.6,0.9-0.6h10.9c0.4,0,0.8,0.2,0.9,0.6l10.9,34.5
		c0,0.1,0.1,0.2,0.1,0.3c0,0.4-0.2,0.6-0.7,0.6H113C112.6,36.5,112.2,36.2,112.1,35.8L112.1,35.8z"/>
	<path id="path169" class="st0" d="M146.7,0.6c0.1,0.2,0.2,0.4,0.2,0.6V8c0,0.4-0.3,0.7-0.6,0.8h-8.8c-0.1,0-0.2,0.1-0.2,0.2l0,0
		v26.7c0,0.2-0.1,0.4-0.2,0.6c-0.2,0.1-0.4,0.2-0.6,0.2h-8.1c-0.4,0-0.7-0.2-0.8-0.6V9c0-0.1-0.1-0.2-0.2-0.3H119
		c-0.4,0-0.7-0.3-0.8-0.6V1.2c0-0.2,0.1-0.4,0.2-0.6c0.2-0.1,0.4-0.2,0.6-0.2h27.2C146.4,0.4,146.5,0.5,146.7,0.6z"/>
	<path id="path171" class="st0" d="M148.7,36.2c-0.1-0.2-0.2-0.4-0.2-0.6V1.2c0-0.2,0.1-0.4,0.2-0.6c0.2-0.1,0.4-0.2,0.6-0.2h8.1
		c0.2,0,0.4,0.1,0.6,0.2c0.1,0.2,0.2,0.4,0.2,0.6v34.5c0,0.4-0.3,0.7-0.6,0.8h-8.3C149.1,36.4,148.9,36.4,148.7,36.2z"/>
	<path id="path173" class="st0" d="M170.6,36.2c-0.2-0.1-0.3-0.3-0.3-0.5L160.1,1.3c0-0.1-0.1-0.2-0.1-0.3c0-0.4,0.2-0.6,0.7-0.6
		h8.8c0.4,0,0.8,0.3,0.8,0.7l5.1,21.7c0,0.1,0.1,0.2,0.2,0.2c0.1,0,0.1-0.1,0.1-0.2l5-21.7c0.1-0.4,0.4-0.7,0.8-0.7h8.6
		c0.2,0,0.4,0.1,0.6,0.2c0.1,0.2,0.2,0.5,0.1,0.7l-10.3,34.5c0,0.2-0.1,0.4-0.3,0.5s-0.4,0.2-0.6,0.2h-8.7
		C170.9,36.4,170.7,36.4,170.6,36.2z"/>
	<path id="path175" class="st0" d="M218.7,8.5c-0.2,0.1-0.4,0.2-0.6,0.2h-15.4c-0.1,0-0.2,0.1-0.3,0.2v4.9c0,0.1,0.1,0.2,0.2,0.3
		h9.6c0.2,0,0.4,0.1,0.6,0.2c0.1,0.2,0.2,0.4,0.2,0.6v6.7c0,0.4-0.3,0.7-0.7,0.8h-9.6c-0.1,0-0.2,0.1-0.3,0.2l0,0V28
		c0,0.1,0.1,0.2,0.2,0.3H218c0.4,0,0.7,0.2,0.8,0.6l0,0v6.8c0,0.4-0.3,0.7-0.6,0.8h-24.7c-0.4,0-0.7-0.3-0.8-0.6V1.2
		c0-0.2,0.1-0.4,0.2-0.6c0.2-0.1,0.4-0.2,0.6-0.2H218c0.2,0,0.4,0.1,0.6,0.2c0.1,0.2,0.2,0.4,0.2,0.6V8
		C218.9,8.1,218.8,8.3,218.7,8.5z"/>
	<path id="path177" class="st0" d="M6.9,51.6c0-0.3-0.1-0.6-0.3-0.8c-0.2-0.2-0.5-0.4-0.8-0.6c-0.3-0.2-0.7-0.3-1-0.5
		c-0.4-0.1-0.7-0.3-1-0.5C3.5,49,3.2,48.7,3,48.4c-0.2-0.4-0.3-0.8-0.3-1.2c0-0.6,0.2-1.2,0.7-1.6C4,45.2,4.6,45,5.3,45
		c0.4,0,0.9,0,1.3,0.1c0.3,0,0.6,0.1,0.9,0.3l-0.3,0.9c-0.3-0.1-0.5-0.2-0.8-0.3c-0.4-0.1-0.8-0.1-1.2-0.1S4.3,46,4,46.3
		c-0.3,0.2-0.4,0.5-0.4,0.8s0.1,0.6,0.3,0.8s0.5,0.4,0.8,0.6c0.3,0.2,0.7,0.4,1,0.5c0.4,0.2,0.7,0.4,1,0.6c0.3,0.2,0.6,0.5,0.8,0.8
		c0.2,0.3,0.3,0.7,0.3,1.1c0,0.3-0.1,0.7-0.2,1C7.5,52.8,7.3,53,7,53.2s-0.6,0.4-0.9,0.5c-0.4,0.1-0.8,0.2-1.2,0.2
		c-0.5,0-1,0-1.5-0.1l-0.9-0.3l0.5-1c0.3,0.1,0.5,0.2,0.8,0.3C4.2,52.9,4.6,53,5,53c0.3,0,0.5,0,0.8-0.1c0.2,0,0.4-0.1,0.6-0.3
		C6.7,52.4,6.9,52,6.9,51.6L6.9,51.6z"/>
	<path id="path179" class="st0" d="M16.1,46.2h-2.6v7.5h-1v-7.5H9.9v-0.9h6.2L16.1,46.2z"/>
	<path id="path181" class="st0" d="M20.7,46.1h-1.1v3.1h0.9c0.5,0,1-0.1,1.4-0.4c0.4-0.3,0.6-0.8,0.5-1.3c0-0.4-0.1-0.7-0.4-1
		C21.6,46.2,21.2,46.1,20.7,46.1z M18.6,45.4c0.3,0,0.6-0.1,1-0.1h1.1c0.3,0,0.7,0,1,0.1s0.6,0.2,0.9,0.4s0.5,0.4,0.6,0.7
		c0.2,0.3,0.2,0.7,0.2,1.1c0,0.6-0.2,1.1-0.5,1.6c-0.4,0.4-0.9,0.7-1.4,0.8l0.6,0.4l2.1,3.3H23l-2.3-3.6l-1.2-0.2v3.8h-1L18.6,45.4z
		"/>
	<path id="path183" class="st0" d="M27.8,50.5h2.5L29.4,48l-0.3-1.3l0,0L28.8,48L27.8,50.5z M30.6,51.4h-3.1l-0.8,2.3h-1l3.2-8.5
		h0.5l3.2,8.5h-1L30.6,51.4z"/>
	<path id="path185" class="st0" d="M39.5,46.2h-2.6v7.5h-1v-7.5h-2.6v-0.9h6.2C39.5,45.3,39.5,46.2,39.5,46.2z"/>
	<path id="path187" class="st0" d="M41.9,45.3h4.6v0.9h-3.6V49h3.3v0.9h-3.3v3h3.6v0.9h-4.6V45.3z"/>
	<path id="path189" class="st0" d="M52.4,49.5h2.8v3.7c-0.2,0.1-0.3,0.2-0.5,0.3s-0.4,0.2-0.6,0.2c-0.2,0.1-0.4,0.1-0.6,0.1h-0.6
		c-0.5,0-1-0.1-1.5-0.3c-0.4-0.2-0.8-0.5-1.2-0.8c-0.4-0.4-0.6-0.8-0.8-1.3c-0.2-0.6-0.3-1.3-0.3-1.9c0-0.7,0.1-1.4,0.3-2
		c0.2-0.5,0.5-1,0.9-1.3s0.8-0.6,1.2-0.8c0.4-0.1,0.9-0.2,1.3-0.2c0.4,0,0.8,0,1.2,0.1c0.3,0,0.5,0.1,0.8,0.2l-0.2,0.9
		c-0.5-0.2-1.1-0.3-1.7-0.3c-0.3,0-0.7,0.1-1,0.2c-0.3,0.1-0.7,0.3-0.9,0.6c-0.3,0.3-0.5,0.7-0.7,1.1c-0.2,0.5-0.3,1.1-0.2,1.6
		c0,0.5,0.1,1,0.2,1.5c0.1,0.4,0.3,0.8,0.6,1.1c0.2,0.3,0.5,0.5,0.9,0.6s0.7,0.2,1.1,0.2c0.5,0,0.9-0.1,1.3-0.3v-2.3l-2-0.2
		L52.4,49.5z"/>
	<path id="path191" class="st0" d="M58.4,45.3h1v8.4h-1V45.3z"/>
	<path id="path193" class="st0" d="M62.9,45.3h4.6v0.9h-3.6V49h3.3v0.9h-3.3v3h3.6v0.9h-4.6C62.9,53.8,62.9,45.3,62.9,45.3z"/>
	<path id="path195" class="st0" d="M94.3,46.1h-1.2v6.8h1.1c0.5,0,1-0.1,1.4-0.3s0.7-0.4,0.9-0.8c0.2-0.3,0.4-0.7,0.4-1.1
		c0.1-0.4,0.2-0.9,0.2-1.3c0-0.4,0-0.8-0.1-1.2s-0.2-0.8-0.5-1.1c-0.2-0.3-0.5-0.6-0.9-0.8C95.2,46.2,94.7,46.1,94.3,46.1z
		 M92.1,45.3c0.2,0,0.3,0,0.5-0.1h1.7c0.6,0,1.2,0.1,1.8,0.3c0.5,0.2,0.9,0.5,1.2,0.9c0.3,0.4,0.6,0.8,0.7,1.3
		c0.2,0.6,0.2,1.1,0.2,1.7c0,0.5-0.1,1.1-0.2,1.6s-0.4,1-0.7,1.4c-0.3,0.4-0.7,0.8-1.2,1c-0.6,0.3-1.2,0.4-1.9,0.4h-2.1V45.3z"/>
	<path id="path197" class="st0" d="M101.2,45.3h4.6v0.9h-3.6V49h3.3v0.9h-3.3v3h3.6v0.9h-4.6V45.3z"/>
	<path id="path199" class="st0" d="M112.6,51.6c0-0.3-0.1-0.6-0.3-0.8c-0.2-0.2-0.5-0.4-0.8-0.6c-0.3-0.2-0.7-0.3-1-0.5
		c-0.4-0.1-0.7-0.3-1-0.5s-0.6-0.5-0.8-0.8c-0.2-0.4-0.3-0.8-0.3-1.2c0-0.6,0.2-1.2,0.7-1.6c0.6-0.4,1.2-0.6,1.9-0.6
		c0.4,0,0.9,0,1.3,0.1c0.3,0.1,0.6,0.2,0.9,0.3l-0.3,0.9c-0.3-0.1-0.5-0.2-0.8-0.3c-0.4-0.1-0.8-0.1-1.2-0.1c-0.4,0-0.9,0.1-1.2,0.4
		c-0.2,0.2-0.4,0.5-0.4,0.8s0.1,0.6,0.3,0.8c0.2,0.2,0.5,0.4,0.8,0.6c0.3,0.2,0.7,0.4,1,0.5c0.4,0.1,0.7,0.3,1,0.6
		c0.3,0.2,0.6,0.5,0.8,0.8c0.2,0.3,0.3,0.7,0.3,1.1c0,0.3-0.1,0.7-0.2,1s-0.3,0.5-0.6,0.7c-0.3,0.2-0.6,0.4-0.9,0.5
		c-0.4,0.1-0.8,0.2-1.2,0.2c-0.5,0-1,0-1.5-0.1l-0.9-0.3l0.3-0.9c0.3,0.1,0.5,0.2,0.8,0.3c0.4,0.1,0.8,0.1,1.2,0.1
		c0.3,0,0.5,0,0.8-0.1c0.2,0,0.4-0.1,0.6-0.3c0.2-0.1,0.3-0.3,0.4-0.4C112.5,52.1,112.6,51.8,112.6,51.6z"/>
	<path id="path201" class="st0" d="M116.6,45.3h1v8.4h-1V45.3z"/>
	<path id="path203" class="st0" d="M124,49.5h2.8v3.7c-0.2,0.1-0.3,0.2-0.5,0.3s-0.4,0.2-0.6,0.2c-0.2,0.1-0.4,0.1-0.6,0.1h-0.7
		c-0.5,0-1-0.1-1.5-0.3c-0.4-0.2-0.8-0.5-1.2-0.8c-0.3-0.4-0.6-0.8-0.8-1.3c-0.2-0.6-0.3-1.3-0.3-1.9c0-0.7,0.1-1.4,0.3-2
		c0.2-0.5,0.5-1,0.9-1.3s0.8-0.6,1.2-0.8c0.4-0.2,0.9-0.2,1.3-0.2s0.8,0,1.2,0.1c0.3,0,0.5,0.1,0.8,0.2l-0.2,0.9
		c-0.5-0.2-1.1-0.3-1.7-0.3c-0.3,0-0.7,0.1-1,0.2c-0.3,0.1-0.7,0.3-0.9,0.6c-0.3,0.3-0.5,0.7-0.7,1.1c-0.2,0.5-0.3,1.1-0.2,1.6
		c0,0.5,0.1,1,0.2,1.5c0.1,0.4,0.3,0.8,0.6,1.1c0.2,0.3,0.5,0.5,0.9,0.6s0.7,0.2,1.1,0.2c0.5,0,0.9-0.1,1.3-0.3v-2.3l-2-0.2
		L124,49.5z"/>
	<path id="path205" class="st0" d="M131.2,48.2l-0.6-1.2h-0.1l0.1,1.2v5.5h-0.9v-8.5h0.5l4,5.6l0.6,1.2h0.1l-0.1-1.2v-5.5h0.9v8.5
		h-0.5L131.2,48.2z"/>
	<path id="path207" class="st0" d="M163.5,46.2h-2.6v7.5h-1v-7.5h-2.6v-0.9h6.2L163.5,46.2L163.5,46.2z"/>
	<path id="path209" class="st0" d="M166,45.3h4.6v0.9H167V49h3.3v0.9H167v3h3.6v0.9H166V45.3z"/>
	<path id="path211" class="st0" d="M179,53.4c-0.3,0.2-0.6,0.3-0.9,0.4c-0.4,0.1-0.8,0.1-1.2,0.1c-0.5,0-1-0.1-1.4-0.3
		s-0.8-0.4-1.1-0.8c-0.4-0.4-0.6-0.8-0.8-1.3c-0.4-1.3-0.4-2.7,0-4c0.2-0.5,0.5-0.9,0.8-1.3c0.3-0.3,0.8-0.6,1.2-0.8
		s0.9-0.2,1.3-0.2c0.4,0,0.8,0,1.2,0.1c0.3,0,0.5,0.1,0.8,0.2l-0.2,0.9c-0.5-0.2-1.1-0.3-1.6-0.3c-0.3,0-0.7,0.1-1,0.2
		c-0.7,0.3-1.3,0.9-1.5,1.7c-0.2,0.5-0.2,1.1-0.2,1.6s0.1,1,0.2,1.5c0.1,0.4,0.3,0.8,0.6,1.1c0.2,0.3,0.5,0.6,0.9,0.7
		c0.4,0.1,0.7,0.2,1.1,0.2c0.3,0,0.7,0,1-0.1c0.2-0.1,0.5-0.2,0.7-0.3L179,53.4z"/>
	<path id="path213" class="st0" d="M186.7,49.9h-4v3.8h-1v-8.4h1V49h4v-3.7h1v8.4h-1V49.9z"/>
	<path id="path215" class="st0" d="M192.5,48.2l-0.6-1.2l0,0l0.1,1.2v5.5h-1v-8.5h0.5l4,5.6l0.6,1.2h0.1l-0.1-1.2v-5.5h0.9v8.5h-0.5
		L192.5,48.2z"/>
	<path id="path217" class="st0" d="M200.5,45.3h1v8.4h-1V45.3z"/>
	<path id="path219" class="st0" d="M205,45.3h4.6v0.9H206V49h3.3v0.9H206v3h3.6v0.9H205V45.3z"/>
	<path id="path221" class="st0" d="M214.2,49.8h-0.6v3.9h-1v-8.4h1v3.9l0.5-0.2l2.8-3.7h1.1l-2.8,3.6l-0.5,0.4l0.6,0.5l3.1,3.9h-1.3
		L214.2,49.8z"/>
</g>
<path id="path225" class="st1" d="M82.3,49c0,1.6-1.3,2.9-2.9,2.9c-1.6,0-2.9-1.3-2.9-2.9s1.3-2.9,2.9-2.9l0,0
	C81.1,46.3,82.2,47.5,82.3,49z"/>
<path id="path227" class="st1" d="M149,49c0,1.6-1.3,2.9-2.9,2.9s-2.9-1.3-2.9-2.9s1.3-2.9,2.9-2.9l0,0C147.7,46.2,149,47.4,149,49
	L149,49z"/>
</svg>
