<?xml version="1.0" encoding="UTF-8"?>
<svg width="80px" height="80px" viewBox="0 0 80 80" version="1.1" xmlns="http://www.w3.org/2000/svg" xmlns:xlink="http://www.w3.org/1999/xlink">
    <!-- Generator: Sketch 51.2 (57519) - http://www.bohemiancoding.com/sketch -->
    <title>Logo Placeholder</title>
    <desc>Created with Sketch.</desc>
    <defs></defs>
    <g id="Page-1" stroke="none" stroke-width="1" fill="none" fill-rule="evenodd">
        <g id="Apple-TV-Copy-4" transform="translate(-643.000000, -95.000000)">
            <g id="Logo-Placeholder" transform="translate(643.000000, 95.000000)">
                <rect id="Rectangle-Copy-12" fill="#E5E5E5" x="0" y="0" width="80" height="80" rx="2"></rect>
                <path d="M58.431604,17 C58.7646052,17 59.0342121,17.2697274 59.0342121,17.6026081 L59.0342121,46.3973919 C59.0342121,46.7302726 58.7646052,47 58.431604,47 L21.6026081,47 C21.2698479,47 21,46.7302726 21,46.3973919 L21,17.6026081 C21,17.2697274 21.2698479,17 21.6026081,17 L58.431604,17 Z M55.4185635,42.1956468 L55.4185635,20.6156485 L24.6156485,20.6156485 L24.6156485,41.2810082 L33.3061008,29.6199391 C33.3515375,29.5589552 33.4225247,29.5224371 33.4985738,29.5208703 C33.5775155,29.519183 33.6472975,29.5529291 33.6950241,29.6119847 L41.0422629,38.6584578 L46.7905415,33.5990808 C46.8893692,33.5120642 47.0391776,33.5182108 47.130774,33.6128203 L55.4185635,42.1956468 Z M46.3166505,29.3202018 C44.6838236,29.3202018 43.3604962,27.9965129 43.3604962,26.363686 C43.3604962,24.7312207 44.6837031,23.4069292 46.3166505,23.4069292 C47.9482721,23.4069292 49.2729252,24.7312207 49.2729252,26.363686 C49.2729252,27.9966334 47.9482721,29.3202018 46.3166505,29.3202018 Z" id="Combined-Shape" fill="#BBBBBB" fill-rule="nonzero"></path>
                <path d="M14.521,64.458 L10,64.458 L10,57.121 L11.287,57.121 L11.287,63.325 L14.521,63.325 L14.521,64.458 Z M19.086,64.59 C16.886,64.59 15.335,62.984 15.335,60.795 C15.335,58.606 16.886,57 19.086,57 C21.275,57 22.837,58.606 22.837,60.795 C22.837,62.984 21.275,64.59 19.086,64.59 Z M19.086,63.446 C20.56,63.446 21.517,62.302 21.517,60.795 C21.517,59.277 20.56,58.144 19.086,58.144 C17.601,58.144 16.655,59.277 16.655,60.795 C16.655,62.302 17.601,63.446 19.086,63.446 Z M27.6,64.601 C25.466,64.601 23.75,63.094 23.75,60.795 C23.75,58.485 25.466,57 27.6,57 C29.03,57 29.965,57.682 30.548,58.518 L29.503,59.123 C29.107,58.573 28.414,58.144 27.6,58.144 C26.148,58.144 25.07,59.244 25.07,60.795 C25.07,62.324 26.148,63.446 27.6,63.446 C28.348,63.446 29.008,63.105 29.338,62.786 L29.338,61.653 L27.138,61.653 L27.138,60.52 L30.614,60.52 L30.614,63.259 C29.899,64.062 28.865,64.601 27.6,64.601 Z M35.388,64.59 C33.188,64.59 31.637,62.984 31.637,60.795 C31.637,58.606 33.188,57 35.388,57 C37.577,57 39.139,58.606 39.139,60.795 C39.139,62.984 37.577,64.59 35.388,64.59 Z M35.388,63.446 C36.862,63.446 37.819,62.302 37.819,60.795 C37.819,59.277 36.862,58.144 35.388,58.144 C33.903,58.144 32.957,59.277 32.957,60.795 C32.957,62.302 33.903,63.446 35.388,63.446 Z M49.6,64.458 L48.313,64.458 L48.313,61.246 L44.496,61.246 L44.496,64.458 L43.209,64.458 L43.209,57.121 L44.496,57.121 L44.496,60.113 L48.313,60.113 L48.313,57.121 L49.6,57.121 L49.6,64.458 Z M56.189,64.458 L51.162,64.458 L51.162,57.121 L56.189,57.121 L56.189,58.254 L52.449,58.254 L52.449,60.146 L56.112,60.146 L56.112,61.279 L52.449,61.279 L52.449,63.325 L56.189,63.325 L56.189,64.458 Z M63.196,64.458 L61.7,64.458 L60.083,61.719 L58.796,61.719 L58.796,64.458 L57.509,64.458 L57.509,57.121 L60.732,57.121 C62.184,57.121 63.141,58.056 63.141,59.42 C63.141,60.718 62.283,61.433 61.392,61.576 L63.196,64.458 Z M60.567,60.586 L58.796,60.586 L58.796,58.254 L60.567,58.254 C61.293,58.254 61.821,58.705 61.821,59.409 C61.821,60.124 61.293,60.586 60.567,60.586 Z M69.455,64.458 L64.428,64.458 L64.428,57.121 L69.455,57.121 L69.455,58.254 L65.715,58.254 L65.715,60.146 L69.378,60.146 L69.378,61.279 L65.715,61.279 L65.715,63.325 L69.455,63.325 L69.455,64.458 Z" id="LOGO-HERE-Copy" fill="#BBBBBB"></path>
            </g>
        </g>
    </g>
</svg>