<svg xmlns="http://www.w3.org/2000/svg" viewBox="0 0 682.6 602.56"><defs><style>.cls-1{fill:#fcb;}.cls-2{fill:#d1846f;}.cls-3{fill:#a3523c;}.cls-4{fill:#41545b;}.cls-5{fill:#97cdf9;}.cls-6{fill:#f2f2f2;}.cls-10,.cls-12,.cls-14,.cls-16,.cls-21,.cls-26,.cls-27,.cls-28,.cls-29,.cls-30,.cls-31,.cls-34,.cls-35,.cls-39,.cls-45,.cls-47,.cls-50,.cls-51,.cls-54,.cls-56,.cls-59,.cls-60,.cls-7,.cls-9{fill:none;}.cls-7{stroke:#9e9e9e;}.cls-16,.cls-21,.cls-23,.cls-26,.cls-28,.cls-29,.cls-31,.cls-43,.cls-45,.cls-47,.cls-50,.cls-51,.cls-54,.cls-56,.cls-7{stroke-linecap:round;}.cls-16,.cls-26,.cls-56,.cls-7{stroke-linejoin:round;}.cls-16,.cls-21,.cls-26,.cls-29,.cls-30,.cls-31,.cls-34,.cls-35,.cls-39,.cls-54,.cls-56,.cls-7{stroke-width:2px;}.cls-8{fill:#e3e2e3;}.cls-28,.cls-31,.cls-9{stroke:#fff;}.cls-10,.cls-12,.cls-14,.cls-21,.cls-23,.cls-27,.cls-28,.cls-29,.cls-30,.cls-31,.cls-34,.cls-35,.cls-39,.cls-43,.cls-45,.cls-47,.cls-50,.cls-51,.cls-54,.cls-59,.cls-60,.cls-9{stroke-miterlimit:10;}.cls-10,.cls-12,.cls-14,.cls-59{stroke:#e3e2e3;}.cls-10{stroke-width:4px;}.cls-11{fill:#535353;}.cls-12{stroke-width:3px;}.cls-13{fill:#c0bfc0;}.cls-14{stroke-width:13px;}.cls-15{fill:#ab7e76;}.cls-16,.cls-21,.cls-23{stroke:#4d3129;}.cls-17{fill:#022a61;}.cls-18{fill:#2e2a33;}.cls-19{fill:#02204a;}.cls-20{fill:#2e363a;}.cls-22{fill:#804f3f;}.cls-23{fill:#ab6557;}.cls-24{fill:#0c0000;}.cls-25{fill:#31454c;}.cls-26{stroke:#000;}.cls-27,.cls-34{stroke:#1c2385;}.cls-29,.cls-30{stroke:#1a1d1e;}.cls-32{fill:#1c2385;}.cls-33{fill:#4856b8;}.cls-35{stroke:#4856b8;}.cls-36{fill:#9b6a64;}.cls-37{fill:#bdbdbd;}.cls-38{fill:#9e9e9e;}.cls-39{stroke:#c9c3bc;}.cls-40{fill:#c9c3bc;}.cls-41{fill:#ffb5b4;}.cls-42{fill:#434647;}.cls-43,.cls-46{fill:#f28b8b;}.cls-43,.cls-51{stroke:#db7272;}.cls-44{fill:#54585a;}.cls-45{stroke:#434647;}.cls-47{stroke:#cc5a5a;stroke-width:1.5px;}.cls-48{fill:#35012f;}.cls-49{fill:#5e3a43;}.cls-50{stroke:#f28b8b;}.cls-52{fill:#859ea8;}.cls-53{fill:#218243;}.cls-54{stroke:#36a853;}.cls-55{fill:#36a853;}.cls-56{stroke:#218243;}.cls-57{fill:#e0e0e0;}.cls-58{fill:#bababa;}.cls-60{stroke:#c0bfc0;}.cls-61{fill:#f5f5f5;}.cls-62{fill:#e8e8e8;}.cls-63{fill:#a3a7a9;}.cls-64{fill:#a5a9ab;}.cls-65{fill:#a4a8aa;}.cls-66{fill:#fdfdfd;}.cls-67{fill:#f1f1f1;}.cls-68{fill:#f7f7f7;}.cls-69{fill:#f9f9f9;}.cls-70{fill:#158be3;}.cls-71{fill:#f8f8f8;}.cls-72{fill:#d3d3d3;}.cls-73{fill:#533ef1;}.cls-74{fill:#2b307b;}.cls-75{fill:#292f7a;}.cls-76{fill:#2a307b;}.cls-77{fill:#2c317c;}.cls-78{fill:#2f357e;}.cls-79{fill:#2d337d;}.cls-80{fill:#2b317b;}.cls-81{fill:#383d83;}.cls-82{fill:#2995e5;}.cls-83{fill:#31367f;}.cls-84{fill:#333981;}.cls-85{fill:#dcdcdc;}.cls-86{fill:#f3f3f3;}.cls-87{fill:#fff;}.cls-88{fill:#f8fbfd;}.cls-89{fill:#fbfdfe;}.cls-90{fill:#fcfcfd;}.cls-91{fill:#edf6fc;}.cls-92{fill:#ebf5fc;}.cls-93{fill:#fbfbfc;}.cls-94{fill:#8b8b8b;}.cls-95{fill:#fdfdfe;}.cls-96{fill:#fdfefe;}.cls-97{fill:#fcfdfe;}.cls-98{fill:#f9fbfd;}.cls-99{fill:#8c8c8c;}.cls-100{fill:#2c327c;}.cls-101{fill:#2a2f7b;}.cls-102{fill:#2e347d;}.cls-103{fill:#2b317c;}.cls-104{fill:#282e7a;}.cls-105{fill:#414689;}.cls-106{fill:#454a8b;}.cls-107{fill:#f4f4f6;}.cls-108{fill:#f2f2f5;}.cls-109{fill:#f6f6f7;}.cls-110{fill:#e94335;}.cls-111{fill:#34a853;}.cls-112{fill:#4486f3;}.cls-113{fill:#fabc07;}.cls-114{fill:#767676;}.cls-115{fill:#757575;}.cls-116{fill:#797979;}.cls-117{fill:#7b7b7b;}.cls-118{fill:gray;}.cls-119{fill:#818181;}.cls-120{fill:#fbfbfb;}.cls-121{fill:#fcfcfc;}</style></defs><g id="Laag_2" data-name="Laag 2"><g id="Laag_1-2" data-name="Laag 1"><g id="laptop_1" data-name="laptop 1"><path class="cls-1" d="M237.91,307.71h-60a3.2,3.2,0,0,0-3,2.09l-16.88,45.58a2.42,2.42,0,0,0,2.27,3.26H220a3.19,3.19,0,0,0,3-2.09l17-45.83A2.23,2.23,0,0,0,237.91,307.71Z"/><rect class="cls-2" x="113.26" y="359.03" width="71.7" height="2.97" rx="1.49"/><rect class="cls-3" x="174.54" y="359.03" width="46.56" height="2.97" rx="1.49"/><path class="cls-4" d="M236.94,307.71H177a3.2,3.2,0,0,0-3,2.09l-16.88,45.58a2.42,2.42,0,0,0,2.27,3.26h59.7a3.2,3.2,0,0,0,3-2.09l17-45.83A2.23,2.23,0,0,0,236.94,307.71Z"/><polygon class="cls-5" points="160.66 355.31 177.06 311.04 235.37 311.04 218.97 355.31 160.66 355.31"/></g><rect class="cls-6" x="193.49" width="245.03" height="248.61" rx="30"/><path class="cls-7" d="M208.4,64.26V40.35a12.26,12.26,0,0,1,12.26-12.26h23.91"/><path class="cls-7" d="M427.4,64.26V40.35a12.25,12.25,0,0,0-12.26-12.26h-23.9"/><path class="cls-7" d="M208.4,187.18v23.91a12.26,12.26,0,0,0,12.26,12.26h23.91"/><path class="cls-7" d="M427.4,187.18v23.91a12.25,12.25,0,0,1-12.26,12.26h-23.9"/><g id="chair_front" data-name="chair front"><rect class="cls-8" x="576.99" y="468.58" width="8.8" height="96.77" transform="translate(1162.77 1033.92) rotate(-180)"/><line class="cls-9" x1="583.91" y1="479.82" x2="583.91" y2="564.36"/><path class="cls-10" d="M624.62,584.59v-5.05a14.6,14.6,0,0,0-14.6-14.6H552.75a14.6,14.6,0,0,0-14.6,14.6v4.6"/><circle class="cls-11" cx="624.62" cy="595.38" r="7.17"/><path class="cls-10" d="M635.36,595.38a10.74,10.74,0,0,0-21.47,0"/><circle class="cls-11" cx="581.19" cy="595.38" r="7.17"/><path class="cls-10" d="M591.93,595.38a10.74,10.74,0,0,0-21.47,0"/><circle class="cls-11" cx="538.15" cy="595.38" r="7.17"/><path class="cls-10" d="M548.88,595.38a10.74,10.74,0,0,0-21.47,0"/><rect class="cls-8" x="627.21" y="472.97" width="17.58" height="5.69" rx="2.84" transform="translate(1272 951.63) rotate(180)"/><line class="cls-12" x1="629.54" y1="475.82" x2="590.76" y2="475.82"/><rect class="cls-8" x="567.23" y="455" width="28.31" height="31.8"/><polygon class="cls-13" points="567.23 455 567.23 467.57 595.54 463.51 595.54 455 567.23 455"/><line class="cls-10" x1="581.39" y1="564.36" x2="581.39" y2="584.52"/><path class="cls-14" d="M615.92,448.41h0a25.34,25.34,0,0,0,25.34-25.33V372.92"/><rect class="cls-8" x="593.71" y="294.27" width="88.89" height="84.34" rx="8.75" transform="translate(1276.31 672.88) rotate(180)"/><rect class="cls-13" x="672.37" y="294.27" width="10.22" height="84.34" rx="5.11" transform="translate(1354.97 672.88) rotate(180)"/><rect class="cls-8" x="508.15" y="436.2" width="142.54" height="25.01" rx="12.51" transform="translate(1158.84 897.41) rotate(-180)"/><rect class="cls-13" x="508.15" y="436.2" width="48.5" height="25.01" rx="12.51" transform="translate(1064.8 897.41) rotate(-180)"/></g><g id="men"><path class="cls-15" d="M481.66,248.38l-4.28-12.72-2.11-16-12.88-28.56a2.32,2.32,0,0,0-2.84-1.31h0a2.32,2.32,0,0,0-1.49,3l2.6,9.39-11.37,8.2a3.83,3.83,0,0,0-1.35,4.4l6.77,18.68,7.57,5.43L468.09,254Z"/><path class="cls-16" d="M475.27,219.69l-5.37-11.83-10.78,3a2.18,2.18,0,0,0-1.58,2.62h0a2.18,2.18,0,0,0,2.12,1.66h6.56l.77,3.36a14.51,14.51,0,0,0-5.81,15.39"/><path class="cls-16" d="M449.24,217.36s1.13,2.67,3.05,3c3.44.61,11.15-5,11.15-5"/><circle class="cls-17" cx="546.54" cy="252.15" r="16.36" transform="translate(-32.67 415.86) rotate(-40.55)"/><polygon class="cls-17" points="559.62 261.89 511.14 323.02 488.43 305.76 533.54 242.31 559.62 261.89"/><circle class="cls-17" cx="499.76" cy="314.37" r="14.38" transform="translate(-84.35 400.4) rotate(-40.55)"/><polygon class="cls-18" points="497.59 566.55 495.07 585.88 477.29 596.74 476.71 602.56 511.9 602.27 516.26 568.39 497.59 566.55"/><polygon class="cls-18" points="443.48 561.16 428.29 602.22 387.94 602.22 388.13 598.55 412.51 582.69 424.39 551.02 443.48 561.16"/><polygon class="cls-17" points="541.79 236.51 543.27 367.49 632.03 367.49 632.91 351.4 634.92 314.89 639.25 236.09 588.86 224.37 541.79 236.51"/><path class="cls-19" d="M618.46,269.79l-6.29,45.88-62.61,17.21a8.54,8.54,0,0,0-6.08,10l3,13.85a8.54,8.54,0,0,0,9.33,6.68l77-9,2.63-47.71Z"/><polygon class="cls-19" points="543.7 341.23 542.97 341.35 543.18 359.55 547.92 358.58 543.7 341.23"/><path class="cls-20" d="M602.13,189.48s5.69-13.24,5-26.3-11.76-11.37-11.76-11.37l-34.12,11.12-2.52.77a39,39,0,0,0,4,25.6Z"/><circle class="cls-15" cx="561.24" cy="182.67" r="6.82"/><rect class="cls-15" x="561.24" y="175.85" width="6.82" height="13.63"/><path class="cls-21" d="M559,178.88a8.6,8.6,0,0,1,6.21,3.17"/><path class="cls-15" d="M560.84,171v18.47c.58,11.76,6.52,20.69,18,22.24h2.73c11,0,20.49-9.73,20.49-20.69V171a20.58,20.58,0,0,0-8.53-16.71,18.18,18.18,0,0,0-2-1.28,20.63,20.63,0,0,0-24.68,3.4,20.9,20.9,0,0,0-3.68,5,20.45,20.45,0,0,0-2.33,8.42C560.85,170.17,560.84,170.56,560.84,171Z"/><circle class="cls-15" cx="605.35" cy="182.67" r="6.82"/><rect class="cls-15" x="598.54" y="175.85" width="6.82" height="13.63" transform="translate(1203.89 365.33) rotate(-180)"/><path class="cls-21" d="M607.63,178.88a8.6,8.6,0,0,0-6.21,3.17"/><path class="cls-22" d="M560.87,169.79c7.53-.07,12.87-7.65,13.44-7.83s3.59,1.32,8.34,1c6.94-.51,11.6-7.1,11.6-7.1l-.7-1.58-.72-1.66-1.27.38-28.36,8.41A20.45,20.45,0,0,0,560.87,169.79Z"/><path class="cls-15" d="M588.19,237.11h0a12.06,12.06,0,0,0,12-11.81l.41-23.13H577l-.4,23.13A11.56,11.56,0,0,0,588.19,237.11Z"/><path class="cls-23" d="M574.56,175.47l-3.77,13.71a1.47,1.47,0,0,0,1.42,1.82h2.35"/><rect class="cls-24" x="583.57" y="177.87" width="1.81" height="4.8" rx="0.9" transform="translate(1168.95 360.54) rotate(180)"/><rect class="cls-24" x="564.15" y="177.87" width="1.81" height="4.8" rx="0.9" transform="translate(1130.1 360.54) rotate(-180)"/><path class="cls-25" d="M563.42,171.32c0,.27.19.54.27.52a13.34,13.34,0,0,1,3.73-.54,12.91,12.91,0,0,1,3.74.55c.06,0,.25-.25.26-.53,0-.89-1.89-1.91-3.88-1.94C565.38,169.34,563.4,170.41,563.42,171.32Z"/><path class="cls-25" d="M583.72,171.32c0,.27.18.54.26.52a13.38,13.38,0,0,1,3.73-.54,12.8,12.8,0,0,1,3.74.55c.06,0,.26-.25.26-.53,0-.89-1.89-1.91-3.88-1.94C585.67,169.34,583.7,170.41,583.72,171.32Z"/><path class="cls-22" d="M600.52,211.16a23.28,23.28,0,0,1-13,10,17.65,17.65,0,0,1-10.87-.39l.37-18.63h23.64Z"/><path class="cls-20" d="M600.81,175.47v10.82a4.27,4.27,0,0,1-3.69,4.16L585,192.34a39,39,0,0,1-15.44-.67L564,190.3a4.25,4.25,0,0,1-3.31-4.08V175.47h-1.07l-.17,22.59c0,11.22,9.5,20.32,21.22,20.32h0c11.72,0,21.22-9.1,21.22-20.32l.17-22.59Z"/><path class="cls-26" d="M584.66,196.35a8.58,8.58,0,0,1-7.76,3.49"/><path class="cls-20" d="M594.89,156.2a15.81,15.81,0,0,1-10.53,4.4c-6.85.32-9.13-1.16-10.61-1s-6.52,8-14.34,6.85-7.69-15.29,6.59-19.84c19.6-6.25,29.41,5.17,29.41,5.17Z"/><path class="cls-20" d="M594.89,156.2h0a34.89,34.89,0,0,0,5.84,19.51l.07.14H604V162.67l-8.62-10.86Z"/><rect class="cls-27" x="579.53" y="367.49" width="6.98" height="22.17" transform="translate(1166.05 757.14) rotate(-180)"/><path class="cls-28" d="M574.23,228.92a14.72,14.72,0,0,0,14.37,11.54h0a14.72,14.72,0,0,0,14.48-12.1"/><circle class="cls-17" cx="499.77" cy="314.37" r="14.38" transform="translate(-37.89 70.4) rotate(-7.76)"/><path class="cls-17" d="M513.19,309.21l-26.84,10.31L461.85,249a7.72,7.72,0,0,1,4.54-9.81l8.09-3.07a7.74,7.74,0,0,1,9.88,4.26Z"/><circle class="cls-17" cx="635.03" cy="251.92" r="16.36" transform="translate(-40.04 356.86) rotate(-30.47)"/><polygon class="cls-17" points="618.74 251.18 617.56 329.19 646.07 330.21 651.32 252.53 618.74 251.18"/><circle class="cls-17" cx="631.83" cy="329.7" r="14.38" transform="translate(-79.92 365.99) rotate(-30.47)"/><path class="cls-29" d="M577.76,178.7a5.9,5.9,0,0,0-7,0"/><path class="cls-30" d="M584.12,174.34h0a7.11,7.11,0,0,1,7.11,7.11v2.25a2.2,2.2,0,0,1-2.2,2.2h-9.82a2.2,2.2,0,0,1-2.2-2.2v-2.25A7.11,7.11,0,0,1,584.12,174.34Z" transform="translate(1168.24 360.24) rotate(180)"/><path class="cls-30" d="M564.15,174.34h0a7.11,7.11,0,0,1,7.11,7.11v2.25a2.2,2.2,0,0,1-2.2,2.2h-9.82a2.2,2.2,0,0,1-2.2-2.2v-2.25a7.11,7.11,0,0,1,7.11-7.11Z" transform="translate(1128.29 360.24) rotate(-180)"/><line class="cls-31" x1="542.09" y1="263.46" x2="542.32" y2="283.7"/><path class="cls-32" d="M543.29,381.83,484.64,395a29.09,29.09,0,0,0-22.48,17.58L417.73,559.2l24.85,13.34,56.65-137.66H591.3l-12.7-67.39H543.27Z"/><path class="cls-33" d="M632,367.49l-.15,34.63a37.9,37.9,0,0,1-6.58,21.17h0A37.9,37.9,0,0,1,594,439.85H543.76l-24.1,135.21-28.25-2.6,11.88-148.75a27.72,27.72,0,0,1,19.21-24.19l56.1-17.86V367.49Z"/><line class="cls-34" x1="632.03" y1="375.16" x2="578.6" y2="375.44"/><line class="cls-35" x1="578.6" y1="375.44" x2="544.08" y2="375.44"/><path class="cls-34" d="M620.16,374.79v27.08a28.7,28.7,0,0,1-5.51,16.91h0a28.73,28.73,0,0,1-22.47,11.82l-54.63,1.46L512.88,566.55"/><line class="cls-34" x1="521.02" y1="567.4" x2="492.06" y2="564.36"/><line class="cls-35" x1="445.94" y1="564.36" x2="420.21" y2="551.02"/><path class="cls-36" d="M538.35,358.2l-21.62,3.06a2.12,2.12,0,0,1-2.38-1.69h0a2.13,2.13,0,0,1,1.57-2.48l17.64-4.38Z"/><path class="cls-15" d="M559.36,354.66l-15,2.41-.47.23a21.59,21.59,0,0,1-17.36.57l-11.4-3.74-8.44,8a1.5,1.5,0,0,1-1.65.28h0a1.5,1.5,0,0,1-.76-1.92l.57-1.41-1-2.16a5.4,5.4,0,0,1,.39-5.25l4-6.08a6.76,6.76,0,0,1,6.11-3L539,344.23l17.68-2.79Z"/><ellipse class="cls-17" cx="631.86" cy="329.69" rx="14.37" ry="14.38" transform="translate(-80.31 357.29) rotate(-29.77)"/><path class="cls-17" d="M635,343.71l-6.36-28-78.07,19.56a7.73,7.73,0,0,0-5.63,9.23l1.95,8.43a7.73,7.73,0,0,0,9,5.84Z"/></g><g id="desk"><path class="cls-37" d="M524.82,369.31l1.39,10L556.76,598a5.3,5.3,0,0,0,5.23,4.56,5.29,5.29,0,0,0,5.26-5.84L544.13,375.43l-.7-6.7Z"/><polygon class="cls-38" points="524.82 369.31 526.21 379.28 544.13 375.43 543.43 368.73 524.82 369.31"/><path class="cls-37" d="M190,369.31l-1.39,10L158,598a5.28,5.28,0,0,1-10.49-1.28l23.12-221.29.7-6.7Z"/><polygon class="cls-38" points="189.97 369.31 188.58 379.28 170.66 375.43 171.36 368.73 189.97 369.31"/><rect class="cls-8" x="120.31" y="361.93" width="474.16" height="10.01" rx="5" transform="translate(714.79 733.88) rotate(-180)"/></g><g id="women"><ellipse class="cls-39" cx="88.94" cy="196.66" rx="6.48" ry="6.5"/><ellipse class="cls-39" cx="108.27" cy="196.66" rx="6.48" ry="6.5"/><path class="cls-39" d="M95.08,195.05a5.87,5.87,0,0,1,7,0"/><circle class="cls-40" cx="36.14" cy="267.83" r="15.09" transform="translate(-229.27 216.88) rotate(-71.45)"/><circle class="cls-40" cx="33.32" cy="330.69" r="12.92" transform="translate(-290.78 257.07) rotate(-71.45)"/><polygon class="cls-40" points="51.24 268.01 46.31 331.06 20.32 330.47 21.01 267.6 51.24 268.01"/><path class="cls-41" d="M88.31,553.09l-10,32,46.34,17.42.48-1.49a5.5,5.5,0,0,0-1.76-5.95L99.24,575.43,104,558.37Z"/><path class="cls-18" d="M124.67,602.56,78.33,585.13l4-13c.8,1.15,4.38,6.09,7.34,7.47l11.82,5.5a4.14,4.14,0,0,1,5.33-2.42l2.46.93,14.07,11.46a5.53,5.53,0,0,1,1.76,6Z"/><path class="cls-42" d="M82.32,358.6l1.59,20.77L151,396.74a18,18,0,0,1,12.41,23.53L104.32,561.55l-19.38-6.48,32.77-126.44-67.38-7.69-.24-62.08Z"/><path class="cls-41" d="M168.69,568.38l1.94,33.5h49.51l-.08-1.57a5.51,5.51,0,0,0-3.75-4.95l-29.52-9.92-1.55-17.64Z"/><path class="cls-18" d="M220.14,601.88H170.63l-.79-13.56c1.16.79,6.24,4.16,9.51,4.41l13,1a4.14,4.14,0,0,1,4.13-4.14h2.63l17.2,5.79a5.51,5.51,0,0,1,3.75,4.95Z"/><path class="cls-43" d="M106.32,193.15l2.49,12.53a1.73,1.73,0,0,1-1.5,2.09L106,208"/><path class="cls-40" d="M123.72,269.57c1.66,9.58,2.48,24.8.77,34.38l-4.13,17.84,2.29,36.81-84.76.67,6.21-40.33L30.23,254l25.93-8.63,22.71-7.57,46.8,17.79Z"/><polyline class="cls-28" points="35.56 278.84 44.02 318.78 41.57 336.42"/><path class="cls-28" d="M52,246.78a94.59,94.59,0,0,0,50.93,0"/><path class="cls-41" d="M56.16,245.34a101.57,101.57,0,0,0,42.8,0l-20.09-7.57Z"/><path class="cls-44" d="M37.89,359.27l-4.25,32.41a37.86,37.86,0,0,0,3,20.36h0a37.78,37.78,0,0,0,34.49,22.35H153.7l13.86,136.18h19.58l1.28-150.72a20.22,20.22,0,0,0-15.33-19.79l-48.6-17.42-2-24Z"/><line class="cls-45" x1="37.08" y1="365.48" x2="122.81" y2="365.48"/><path class="cls-41" d="M106.57,189.2l-.66,24.86c-.13,4.72-5,11.62-6.32,12.25S89.3,227.5,89.3,227.5l-.36,14.13L62.7,243l1.18-25.09.89-33.14c.2-7.51,8.23-13.39,15.75-13.19l9.55.25a16.91,16.91,0,0,1,12.34,5.82l.48.57a17,17,0,0,1,3.68,11Z"/><path class="cls-46" d="M106.23,185.34a10.93,10.93,0,0,1-10.56,6.18,13.38,13.38,0,0,1-7.44,6.92l14.18-20.82.48.57A17,17,0,0,1,106.23,185.34Z"/><rect class="cls-24" x="102.07" y="195.49" width="0.96" height="3.94" rx="0.48" transform="translate(5.83 -2.92) rotate(1.68)"/><path class="cls-47" d="M102.59,213.3a8,8,0,0,0,2.79,3.1"/><path class="cls-46" d="M89.06,237.06,88,223.4a22.87,22.87,0,0,0,3.49,1.83,23.39,23.39,0,0,0,5.65,1.57l-7.85.7Z"/><path class="cls-48" d="M73.56,154.75c-12.72.15-31.8,8.4-37,42.07-.88,5.62-1.75,20.1-1.75,20.1-11.44,8.6-14.93,25.14-8.53,39.3,6.51,11.95,18.87,15.38,22.75,16,10.14,1.69,22.61-.4,30-9,5.69-6.59,7.18-14.14,6.68-25.91-.42-10.12-3.81-33.55-3.81-33.55v-3.29s9.95-.26,12.28-10.6c0,0,9.69,1.66,12.28-9.57C108.79,170.26,95.15,154.49,73.56,154.75Z"/><circle class="cls-41" cx="81.04" cy="198.92" r="7.26"/><circle class="cls-18" cx="81.32" cy="204.33" r="1.11"/><path class="cls-49" d="M100.05,189.56c-.16.19,0,.5.24.4a7.32,7.32,0,0,1,1.58-.55,7.78,7.78,0,0,1,4.57.4c.21.09.37-.23.21-.41a4.45,4.45,0,0,0-3.2-1.55A4.52,4.52,0,0,0,100.05,189.56Z"/><path class="cls-50" d="M79.44,194.69a6.23,6.23,0,0,1,4,1.16,6.36,6.36,0,0,1,2.45,4.2"/><path class="cls-41" d="M161.06,251.79l4.65-16.45a12.54,12.54,0,0,1,4.65-6.7l11.88-8.16,1.22-3.1a3.53,3.53,0,0,1,2.21-2.06l6.07-1.91a2.33,2.33,0,0,1,3,2.05l.3,3.82,1.76-5.87a1.23,1.23,0,0,1,1.22-.87h.37a1.24,1.24,0,0,1,1.18,1.53L197.31,224,183,240.1a10.73,10.73,0,0,1-4.4,3l-2.47.88-3.28,10.45Z"/><path class="cls-51" d="M176.19,231.17a23,23,0,0,1,7.24-4.65,22.4,22.4,0,0,1,6.46-1.53l2.46-5.21a1.54,1.54,0,0,1,2.91.93L194,227.55l-6.68,7.35"/><path class="cls-44" d="M163.9,241.19l12.17,3.66a.46.46,0,0,1,.29.59L175.29,249a.46.46,0,0,1-.57.33l-12.17-3.66a.48.48,0,0,1-.3-.6l1.07-3.53A.47.47,0,0,1,163.9,241.19Z"/><circle class="cls-40" cx="141.75" cy="328.37" r="12.92" transform="translate(-156.36 130.76) rotate(-33.11)"/><path class="cls-40" d="M154,332.58l21.53-74.74a4.24,4.24,0,0,0-2.63-5.17l-11.59-4.17a4.25,4.25,0,0,0-5.42,2.55L129.5,324Z"/><rect class="cls-40" x="159.86" y="244.95" width="15.72" height="8.21" transform="translate(94.14 -42.05) rotate(19.77)"/><circle class="cls-40" cx="119.75" cy="269.43" r="15.09" transform="translate(-150.84 386.54) rotate(-89.44)"/><circle class="cls-40" cx="141.76" cy="328.38" r="12.92" transform="translate(-187.99 466.92) rotate(-89.44)"/><polygon class="cls-40" points="105.43 274.24 129.51 332.72 154.06 324.17 134.07 264.56 105.43 274.24"/><line class="cls-28" x1="114.28" y1="295.64" x2="122.94" y2="316.58"/><line class="cls-28" x1="142.2" y1="289.05" x2="145.57" y2="299"/></g><g id="laptop_2" data-name="laptop 2"><rect class="cls-52" x="470.09" y="359.03" width="71.7" height="2.97" rx="1.49" transform="translate(1011.87 721.04) rotate(180)"/><rect class="cls-4" x="433.95" y="359.03" width="65.93" height="2.97" rx="1.49" transform="translate(933.83 721.04) rotate(-180)"/><path class="cls-4" d="M418.1,307.71h60a3.2,3.2,0,0,1,3,2.09L498,355.38a2.42,2.42,0,0,1-2.27,3.26H436a3.19,3.19,0,0,1-3-2.09l-17-45.83A2.23,2.23,0,0,1,418.1,307.71Z"/></g><g id="cactus"><path class="cls-53" d="M306.43,292.82h0a6.85,6.85,0,0,1,6.85,6.85v37.91a0,0,0,0,1,0,0H299.58a0,0,0,0,1,0,0V299.67a6.85,6.85,0,0,1,6.85-6.85Z" transform="translate(-81.6 108.59) rotate(-17.78)"/><line class="cls-54" x1="300.22" y1="295.84" x2="313.27" y2="336.52"/><path class="cls-55" d="M313.62,287.31h0a7.22,7.22,0,0,1,7.22,7.22V336.4a0,0,0,0,1,0,0H306.4a0,0,0,0,1,0,0V294.53A7.22,7.22,0,0,1,313.62,287.31Z"/><line class="cls-56" x1="313.62" y1="289.56" x2="313.62" y2="336.4"/><rect class="cls-57" x="300.04" y="321.61" width="27.14" height="40.39"/><rect class="cls-58" x="300.04" y="355.35" width="27.14" height="6.66"/></g><g id="chair_back" data-name="chair back"><rect class="cls-8" x="81.7" y="465.02" width="8.8" height="96.77"/><line class="cls-9" x1="83.58" y1="476.27" x2="83.58" y2="560.81"/><path class="cls-10" d="M42.86,581v-5a14.61,14.61,0,0,1,14.61-14.6h57.27a14.6,14.6,0,0,1,14.6,14.6v4.59"/><circle class="cls-11" cx="42.86" cy="591.83" r="7.17"/><path class="cls-10" d="M32.13,591.83a10.74,10.74,0,1,1,21.47,0"/><circle class="cls-11" cx="86.3" cy="591.83" r="7.17"/><path class="cls-10" d="M75.56,591.83a10.74,10.74,0,1,1,21.47,0"/><circle class="cls-11" cx="129.34" cy="591.83" r="7.17"/><path class="cls-10" d="M118.61,591.83a10.73,10.73,0,1,1,21.46,0"/><rect class="cls-8" x="22.7" y="469.42" width="17.58" height="5.69" rx="2.84"/><line class="cls-59" x1="37.95" y1="472.26" x2="76.73" y2="472.26"/><rect class="cls-8" x="71.95" y="451.45" width="28.31" height="31.8"/><polygon class="cls-13" points="100.26 451.45 100.26 464.02 71.95 459.95 71.95 451.45 100.26 451.45"/><line class="cls-10" x1="86.1" y1="560.81" x2="86.1" y2="580.97"/><path class="cls-14" d="M63.64,444.86h0A25.34,25.34,0,0,1,38.3,419.52V369.37"/><rect class="cls-8" x="16.8" y="432.64" width="132.63" height="25.01" rx="12.51"/><rect class="cls-13" x="100.93" y="432.64" width="48.5" height="25.01" rx="12.51"/><rect class="cls-8" y="290.71" width="88.89" height="84.34" rx="8.75" transform="translate(88.89 665.77) rotate(180)"/><rect class="cls-13" x="78.66" y="290.71" width="10.22" height="84.34" rx="5.11" transform="translate(167.55 665.77) rotate(180)"/><circle class="cls-60" cx="39.45" cy="331.14" r="14.25"/></g><path class="cls-61" d="M231.18,64.21l.44.87A.76.76,0,0,1,231.18,64.21Z"/><path class="cls-62" d="M317.05,90.26h82.08c1.82,0,2.62.79,2.62,2.59V200.91c0,1.77-.8,2.58-2.55,2.58H234.89c-1.72,0-2.55-.81-2.55-2.51V92.77c0-1.7.83-2.51,2.55-2.51Z"/><path class="cls-61" d="M401.16,66h.59c-.49.56-1.19.42-1.81.57a2.08,2.08,0,0,1-.5,0H234.18a5,5,0,0,1-1.22-.13,2.36,2.36,0,0,1-2.07-2.64l.29.15a.56.56,0,0,1,.17.3c0,.43.31.69.55,1,.67.75,1.61.55,2.45.67a5.9,5.9,0,0,0,.94,0h163.3c.71,0,1.4-.13,2.1-.08A.64.64,0,0,1,401.16,66Z"/><ellipse class="cls-63" cx="362.16" cy="77.63" rx="55.88" ry="0.1"/><ellipse class="cls-63" cx="271.93" cy="77.58" rx="55.88" ry="0.1"/><path class="cls-64" d="M320.67,79.69c-.42.19-.67.09-.85-.28s-.41-.72-.61-1.08a.44.44,0,0,0-.48-.25c-.27,0-.24.26-.25.45v.87c0,.22-.06.38-.32.38s-.36-.1-.36-.34V76c0-.15.07-.3.25-.3a4.85,4.85,0,0,1,1.86.12,1.14,1.14,0,0,1,.22,2c-.32.24-.34.38-.13.69S320.45,79.28,320.67,79.69Z"/><path class="cls-65" d="M313.55,77.72a1.91,1.91,0,0,1,.88-1.87,1.6,1.6,0,0,1,1.78,0A2.42,2.42,0,0,1,317,78.5,1.64,1.64,0,0,1,315,79.82C314.06,79.65,313.55,78.93,313.55,77.72Z"/><path class="cls-66" d="M317,202.91H235c-1.63,0-2.11-.49-2.11-2.13V92.94c0-1.59.49-2.09,2.07-2.09H399.09c1.58,0,2.07.5,2.07,2.09V200.78c0,1.65-.48,2.13-2.11,2.13Z"/><path class="cls-67" d="M232.34,46.89v.29a5.53,5.53,0,0,0-.66,2.86c0,4.27,0,8.53,0,12.8a4.45,4.45,0,0,0,0,.73,2.16,2.16,0,0,0,2.25,2c.32,0,.63,0,.95,0h164c.24,0,.49,0,.73,0a2.27,2.27,0,0,0,2.51-2.54c0-2.28,0-4.56,0-6.83,0-2.07,0-4.13,0-6.19a5.47,5.47,0,0,0-.67-2.86v-.29c.37-.25.46.11.58.3a3.89,3.89,0,0,1,.59,2.13q0,6.88,0,13.79A3,3,0,0,1,401.16,66c-.73.05-1.47.14-2.21.14H234.82a11.77,11.77,0,0,1-2.06-.16c-.48-.09-1-.24-1.14-.86a1.8,1.8,0,0,1-.44-.87v-.29c.23-.3,0-.6,0-.89,0-4.54,0-9.07,0-13.6a3.19,3.19,0,0,1,.61-2.31C231.94,47,232,46.62,232.34,46.89Z"/><path class="cls-68" d="M318.48,76.8c0-.26-.11-.71.45-.62s1,0,1,.67-.43.71-.93.75S318.48,77.23,318.48,76.8Z"/><path class="cls-69" d="M314.14,77.73a2.36,2.36,0,0,1,.36-1.13.92.92,0,0,1,.95-.38,1.06,1.06,0,0,1,.86.86,2.27,2.27,0,0,1-.05,1.48,1,1,0,0,1-1.94,0C314.24,78.26,314.19,78,314.14,77.73Z"/><path class="cls-62" d="M317.15,145.28q-34.27,0-68.54,0a2.45,2.45,0,0,1-2.61-2.59c.07-3.88,0-7.76,0-11.64a2.2,2.2,0,0,1,2.4-2.38H386a2.21,2.21,0,0,1,2.41,2.38v11.79a2.21,2.21,0,0,1-2.44,2.42Z"/><path class="cls-70" d="M317.2,121H248.74c-2.19,0-3.15-1-3.15-3.14V106.41a2.63,2.63,0,0,1,2.87-2.9H385.89a2.63,2.63,0,0,1,2.9,2.88v11.42c0,2.2-1,3.16-3.13,3.16Z"/><path class="cls-71" d="M354.89,191.27H324.41a3.83,3.83,0,0,1-3.9-2.53,5.23,5.23,0,0,1-.27-1.57c0-3.2,0-6.4,0-9.6a3.84,3.84,0,0,1,1.89-3.53,4.65,4.65,0,0,1,2.38-.53h59.42a19.17,19.17,0,0,1,2.39.09,3.79,3.79,0,0,1,3.19,4v9.6a3.85,3.85,0,0,1-4.08,4.1H354.89Z"/><path class="cls-62" d="M317.16,161.58q-35.07,0-70.13,0c-.32,0-.95.29-.94-.28s.63-.27,1-.27H387.31c.34,0,1-.26,1,.25s-.65.3-1,.3Q352.23,161.59,317.16,161.58Z"/><path class="cls-72" d="M245.15,171.33a.92.92,0,0,1,1-.72c1.64,0,3.29,0,4.93,0a.92.92,0,0,1,1,.72,18.29,18.29,0,0,1,.14,3.55c0,.62,0,1.26,0,1.89,0,.88-.44,1.3-1.31,1.32q-2.33,0-4.65,0c-.79,0-1.28-.37-1.28-1.11A34.4,34.4,0,0,1,245.15,171.33Z"/><path class="cls-73" d="M248.28,185.55c-.25,1-.46,1.81-.65,2.64-.06.29-.15.48-.5.47s-.35-.25-.4-.49c-.21-1-.44-2-.65-3,0-.18-.23-.44.12-.54s.42.2.48.46a15,15,0,0,0,.6,2.4c.21-.79.42-1.59.62-2.38.06-.24.06-.49.41-.49s.32.3.38.51a18.57,18.57,0,0,0,.74,2.38c.17-.81.34-1.61.49-2.42.05-.23,0-.53.4-.46s.19.37.15.57c-.21,1-.43,2-.64,3.06-.05.26-.08.45-.42.45s-.41-.17-.47-.43C248.74,187.38,248.52,186.54,248.28,185.55Z"/><path class="cls-61" d="M245.15,171.33c0,1.72,0,3.44,0,5.16,0,1.09.31,1.39,1.38,1.39h4.3c1,0,1.3-.32,1.31-1.31,0-1.75,0-3.49,0-5.24a1.63,1.63,0,0,1,.29,1.09v4.22c0,1.19-.49,1.67-1.68,1.67h-4.21c-1.19,0-1.67-.48-1.68-1.67v-4.22A1.63,1.63,0,0,1,245.15,171.33Z"/><path class="cls-74" d="M281.53,174.84V174c0-.52,0-.52.53-.36.24.06.33-.16.51-.22.51-.18.89.25,1.29.28s.76-.45,1.26-.29a.76.76,0,0,1,.51.64,13.41,13.41,0,0,1,.08,2.1c0,.22-.1.3-.31.3s-.25-.16-.26-.34c0-.53,0-1.06,0-1.59,0-.32-.09-.69-.52-.64a.71.71,0,0,0-.71.69c0,.5,0,1,0,1.52,0,.16,0,.35-.22.36s-.34-.1-.34-.34c0-.54,0-1.07,0-1.6,0-.31-.09-.64-.45-.63a.67.67,0,0,0-.74.64c0,.5,0,1,0,1.52,0,.24,0,.43-.34.41s-.23-.25-.24-.42C281.52,175.62,281.53,175.23,281.53,174.84Z"/><path class="cls-73" d="M289.52,185.59H290c.13,0,.31,0,.35.15s0,.29-.19.3-.2.2-.19.37c0,.91-.3,1.25-1.15,1.28-.18,0-.42-.15-.46.16s.21.34.43.35a6.28,6.28,0,0,1,.87,0c.3.05.64.1.72.49a.91.91,0,0,1-.35,1,2.24,2.24,0,0,1-2,.13.64.64,0,0,1-.31-.91,2.44,2.44,0,0,0,.14-.79,5.62,5.62,0,0,0-.09-1.48C287.73,185.85,288.26,185.54,289.52,185.59Z"/><path class="cls-73" d="M264,186.41l-.48,1.82c-.06.25-.12.44-.46.43s-.37-.17-.43-.38c-.2-.75-.42-1.49-.61-2.24,0-.15-.18-.4.16-.44a.33.33,0,0,1,.41.3c.14.63.32,1.26.51,2,.2-.71.35-1.32.52-1.91.06-.2.09-.42.4-.42s.34.23.4.42c.15.53.29,1.06.46,1.73a7.15,7.15,0,0,0,.55-1.73c.08-.24.12-.5.46-.4s.11.35.07.54c-.17.65-.33,1.31-.51,2-.07.25-.07.58-.52.55s-.39-.28-.46-.52C264.37,187.63,264.23,187.12,264,186.41Z"/><path class="cls-75" d="M260.78,174.27c0,1.45-.7,2.26-1.87,2.2a1.47,1.47,0,0,1-1.25-.74,2.7,2.7,0,0,1-.23-2.23,1.57,1.57,0,0,1,1.75-1.21,1.67,1.67,0,0,1,1.55,1.47C260.76,173.94,260.76,174.14,260.78,174.27Z"/><path class="cls-73" d="M277.2,185.67v-1c0-.2,0-.4.29-.41s.3.17.3.38v3.64c0,.16,0,.46-.21.35-.42-.23-.73.06-1.1.08-.81,0-1.32-.5-1.35-1.45s.5-1.68,1.3-1.69A5.07,5.07,0,0,1,277.2,185.67Z"/><path class="cls-76" d="M278.78,173.48c0-.38,0-.74,0-1.1s.07-.36.33-.36.25.17.25.34v3.76c0,.15-.05.39-.2.28-.43-.3-.78.06-1.17.07-.82,0-1.29-.56-1.28-1.57s.58-1.62,1.41-1.56A5.26,5.26,0,0,1,278.78,173.48Z"/><path class="cls-73" d="M257.52,185.82c1.38-.57,1.87-.24,1.88,1.23,0,.42,0,.83,0,1.24,0,.23-.06.37-.32.36s-.26-.17-.26-.35c0-.48,0-1,0-1.45s-.05-.81-.55-.77a.73.73,0,0,0-.75.81c0,.46,0,.92,0,1.38,0,.21,0,.38-.3.38s-.28-.2-.28-.39v-3.64c0-.22,0-.39.31-.38s.26.22.27.42Z"/><path class="cls-77" d="M267.52,173.62c1.31-.6,1.83-.28,1.86,1.09,0,.41,0,.82,0,1.23,0,.19.1.47-.26.48s-.27-.26-.28-.46c0-.48,0-1,0-1.45s-.1-.74-.57-.66-.74.24-.73.75,0,.92,0,1.38c0,.21,0,.45-.31.44s-.25-.23-.25-.41c0-1.19,0-2.37,0-3.56,0-.17-.07-.41.23-.43s.33.21.33.44S267.52,173.18,267.52,173.62Z"/><path class="cls-73" d="M253.28,187.55v.58c0,.39-.05.75-.54.38-.23-.17-.3.05-.43.09-.68.24-1.22.07-1.41-.46s.1-1,.78-1.25l.49-.13c.19,0,.5.05.43-.32a.46.46,0,0,0-.53-.39,1.5,1.5,0,0,0-.55.15c-.2.1-.36.18-.47-.09s.16-.31.3-.38c1.06-.54,1.84-.09,1.92,1.09,0,.24,0,.48,0,.73Z"/><path class="cls-73" d="M271.14,188.7a1.47,1.47,0,0,1-1.37-1.64,1.42,1.42,0,0,1,1.5-1.5,1.45,1.45,0,0,1,1.33,1.6A1.42,1.42,0,0,1,271.14,188.7Z"/><path class="cls-73" d="M267.88,188.7a1.58,1.58,0,1,1,1.41-1.6A1.45,1.45,0,0,1,267.88,188.7Z"/><path class="cls-73" d="M284.09,188.7a1.32,1.32,0,0,1-1.43-1.08,1.64,1.64,0,0,1,.67-1.91,1.26,1.26,0,0,1,1.31,0,1.39,1.39,0,0,1,.53,1.21c0,.31-.15.37-.4.36a8.68,8.68,0,0,0-1,0c-.17,0-.44-.13-.5.13s.11.41.28.56a.93.93,0,0,0,.89.17c.23-.06.51-.26.57.12s-.27.28-.47.34A3.18,3.18,0,0,1,284.09,188.7Z"/><path class="cls-73" d="M297.23,188.69a1.33,1.33,0,0,1-1.42-.73,1.79,1.79,0,0,1,.12-1.86,1.24,1.24,0,0,1,1.33-.52,1.31,1.31,0,0,1,.92,1.51c-.06.21-.22.22-.39.22h-1c-.17,0-.43-.11-.5.14s.12.41.28.55a.91.91,0,0,0,.95.16c.17,0,.38-.23.48.06s-.18.34-.37.41A2,2,0,0,1,297.23,188.69Z"/><path class="cls-73" d="M290.68,187.12a1.38,1.38,0,0,1,1.63-1.54,1.32,1.32,0,0,1,.93,1.51c-.08.21-.23.22-.41.22-.34,0-.68,0-1,0-.17,0-.43-.12-.5.14s.12.4.28.55a.93.93,0,0,0,1,.12c.17-.06.34-.14.42.09s-.15.33-.31.39A1.46,1.46,0,0,1,290.68,187.12Z"/><path class="cls-76" d="M271.42,176.47a1.41,1.41,0,0,1-1.38-1.55,1.41,1.41,0,1,1,2.79,0A1.39,1.39,0,0,1,271.42,176.47Z"/><path class="cls-73" d="M298.86,187.09c0-.27,0-.54,0-.8s-.18-1,.61-.47c.14.1.28-.14.43-.19a1,1,0,0,1,1.41.9c0,.58,0,1.16,0,1.74,0,.21,0,.38-.3.38s-.28-.19-.28-.39c0-.5,0-1,0-1.52,0-.34-.11-.68-.49-.66a.73.73,0,0,0-.8.68c0,.45,0,.92,0,1.37,0,.21.12.53-.3.51s-.26-.33-.27-.54S298.86,187.42,298.86,187.09Z"/><path class="cls-78" d="M261.51,174.89V174c0-.4,0-.89.56-.34.15.14.24-.08.35-.13.85-.4,1.47-.07,1.51.85,0,.57,0,1.16,0,1.74,0,.16,0,.35-.23.35s-.34-.1-.34-.34c0-.51,0-1,0-1.52s-.06-.75-.52-.71-.79.23-.78.77,0,.92,0,1.38c0,.18.07.41-.24.42s-.31-.23-.32-.44Z"/><path class="cls-79" d="M276,175v.73c0,.57,0,.56-.59.46-.09,0-.2.1-.3.16-.87.43-1.49.08-1.54-.89,0-.56,0-1.12,0-1.67,0-.2,0-.39.29-.38s.29.19.29.39c0,.51,0,1,0,1.53,0,.34.08.67.49.67a.71.71,0,0,0,.78-.69c.05-.5,0-1,0-1.52,0-.16,0-.36.22-.38s.34.13.34.36V175Z"/><path class="cls-73" d="M280.93,188c.26-.77.47-1.38.67-2,.08-.22.14-.51.47-.41s.12.39.06.57c-.23.69-.49,1.36-.71,2-.09.25-.17.42-.48.43s-.41-.18-.49-.42c-.26-.73-.54-1.45-.78-2.18,0-.13-.28-.36.06-.45a.37.37,0,0,1,.5.27C280.43,186.54,280.66,187.18,280.93,188Z"/><path class="cls-73" d="M255.46,185.56a2.1,2.1,0,0,1,.43.08c.16.08.4.14.3.41s-.26.21-.46.1a.69.69,0,0,0-1,.28,1.19,1.19,0,0,0,0,1.43.72.72,0,0,0,1,.24c.17-.1.33-.24.46,0s-.16.38-.31.44a1.44,1.44,0,0,1-1.56-.24,1.87,1.87,0,0,1-.31-2A1.42,1.42,0,0,1,255.46,185.56Z"/><path class="cls-73" d="M261.29,188.69a.8.8,0,0,1-1-.72,3.76,3.76,0,0,1,0-.58c0-.29.12-.68,0-.85-.47-.58,0-1,.12-1.48.05-.14.05-.3.25-.3s.25.14.24.29c0,.39.08.61.51.55.15,0,.3,0,.32.21s-.1.25-.27.26c-1,.05-.44.82-.53,1.26s-.12.89.53.87c.23,0,.34.09.29.3S261.42,188.65,261.29,188.69Z"/><path class="cls-73" d="M294.93,188.69a.81.81,0,0,1-1-.72,3.76,3.76,0,0,1,0-.58c0-.29.11-.69,0-.86-.48-.57,0-1,.12-1.47.05-.14.05-.3.25-.3s.25.14.24.3c0,.39.08.6.51.54.15,0,.3,0,.32.21s-.11.26-.27.26c-1,.05-.44.83-.53,1.26s-.12.89.53.88c.23,0,.34.09.29.29S295,188.64,294.93,188.69Z"/><path class="cls-80" d="M265.89,176.46c-.6,0-.88-.26-.92-.77s0-.77,0-1.16c0-.12.05-.31,0-.35-.64-.48.05-.86.08-1.28,0-.17.05-.34.28-.35s.25.2.23.35c0,.4.12.52.49.48.16,0,.29,0,.3.22s-.13.26-.29.24c-.54-.08-.51.27-.49.63s0,.67,0,1,.09.49.4.51.5-.06.45.28S266,176.37,265.89,176.46Z"/><path class="cls-76" d="M288.64,175.28c0,.56,0,1.12,0,1.67a.78.78,0,0,1-.93.79c-.14,0-.31,0-.33-.19a.23.23,0,0,1,.25-.28c.46,0,.46-.35.46-.67,0-.92,0-1.84,0-2.76,0-.19-.11-.47.27-.47s.3.24.3.46v1.45Z"/><path class="cls-73" d="M303,184.42a1,1,0,0,1,1,1.4c-.2.53-.75.88-.81,1.51,0,.13-.18.14-.3.12s-.23-.16-.21-.32a1.9,1.9,0,0,1,.46-1c.22-.3.57-.61.25-1s-.64-.21-1,0-.32,0-.41-.12.08-.24.18-.33A1.1,1.1,0,0,1,303,184.42Z"/><path class="cls-73" d="M285.79,187.1v-.73c0-.65,0-.64.59-.47.19.06.23-.2.38-.25s.58-.23.71,0-.18.32-.41.39a.94.94,0,0,0-.67,1c0,.41,0,.82,0,1.23,0,.19-.06.32-.29.32s-.29-.13-.29-.32V187.1Z"/><path class="cls-73" d="M273.28,187.09c0-.31,0-.63,0-.94,0-.63,0-.65.54-.29.19.12.21,0,.26-.08a.75.75,0,0,1,.66-.22c.12,0,.24,0,.24.21s0,.26-.16.28c-1,.1-1,.84-.95,1.56v.72c0,.2-.07.32-.3.32s-.29-.14-.29-.33v-1.23Z"/><path class="cls-81" d="M287.17,174.88v1.23c0,.2-.08.31-.3.32s-.27-.14-.27-.32v-2.46c0-.16,0-.28.24-.28s.33.07.33.28Z"/><path class="cls-82" d="M303.35,188.31a.41.41,0,0,1-.45.38.35.35,0,0,1-.35-.38c0-.22.11-.41.39-.4S303.31,188.09,303.35,188.31Z"/><path class="cls-83" d="M286.87,172.15c.21,0,.37.1.36.34a.29.29,0,0,1-.31.31c-.22,0-.38-.07-.41-.29S286.67,172.19,286.87,172.15Z"/><path class="cls-84" d="M288.37,172.8a.3.3,0,0,1-.35-.33c0-.24.17-.31.38-.31a.29.29,0,0,1,.32.3C288.73,172.69,288.61,172.81,288.37,172.8Z"/><path class="cls-62" d="M401.46,47.48a3,3,0,0,1,.7,2.47q.07,6.25,0,12.51c0,.62.13,1.35-.4,1.9.32-4.94.06-9.87.14-14.81a2.47,2.47,0,0,0-.43-1.64Z"/><path class="cls-85" d="M401.46,48.79c.21.19.14.45.14.68V62.94c0,.23.07.49-.14.68Z"/><path class="cls-69" d="M317.18,144.7H248.72c-1.54,0-2.11-.57-2.11-2.09V131.18a1.68,1.68,0,0,1,1.91-1.91H385.88a1.69,1.69,0,0,1,1.89,1.94v11.5c0,1.38-.6,2-2,2Z"/><path class="cls-62" d="M317.18,103.94q34.17,0,68.32,0c1.86,0,2.93.89,2.88,2.91-.09,3.73,0,7.47,0,11.21a2.23,2.23,0,0,1-2.52,2.49q-68.64,0-137.29,0A2.24,2.24,0,0,1,246,118v-11.5a2.24,2.24,0,0,1,2.55-2.54Z"/><path class="cls-73" d="M387.05,174.82a3.13,3.13,0,0,1,1.17,1.17,1.81,1.81,0,0,1,.34,1.23c0,2.87,0,5.74,0,8.61a16.79,16.79,0,0,0,0,1.74,1.56,1.56,0,0,1-.33,1.22,3.13,3.13,0,0,1-1.17,1.17,1.86,1.86,0,0,1-1.24.35q-30,0-60,0a16.79,16.79,0,0,0-1.88,0,1.6,1.6,0,0,1-1.23-.34,3.22,3.22,0,0,1-1.1-1,1.66,1.66,0,0,1-.41-1.34c0-2.92,0-5.85,0-8.77a14.06,14.06,0,0,0,0-1.59,1.63,1.63,0,0,1,.34-1.23,3.13,3.13,0,0,1,1.17-1.17,1.83,1.83,0,0,1,1.23-.35q30.14,0,60.27,0c.53,0,1.06.07,1.59,0A1.66,1.66,0,0,1,387.05,174.82Z"/><path class="cls-86" d="M387.05,174.82a4.88,4.88,0,0,0-1.37-.15q-30.8,0-61.59,0a4.84,4.84,0,0,0-1.37.15,1.23,1.23,0,0,1,1.26-.56q21.54,0,43.08,0c5.7,0,11.39,0,17.09,0a9.21,9.21,0,0,1,2.28.11A.9.9,0,0,1,387.05,174.82Z"/><path class="cls-86" d="M322.72,190a4.84,4.84,0,0,0,1.37.15q30.8,0,61.59,0a4.88,4.88,0,0,0,1.37-.15,1.24,1.24,0,0,1-1.26.56q-22.79,0-45.56,0c-4.78,0-9.55,0-14.33,0a12.22,12.22,0,0,1-2.56-.1A.88.88,0,0,1,322.72,190Z"/><path class="cls-86" d="M388.22,188.79a5.15,5.15,0,0,0,.14-1.36q0-5,0-10.08a5.15,5.15,0,0,0-.14-1.36,1.23,1.23,0,0,1,.55,1.25c0,2.84.06,5.68,0,8.52a11.55,11.55,0,0,1-.11,2.42A.83.83,0,0,1,388.22,188.79Z"/><path class="cls-86" d="M321.55,176a5.15,5.15,0,0,0-.14,1.36V187.5a3.8,3.8,0,0,0,.21,1.42c-.63-.25-.6-.88-.62-1.36-.06-2.09-.05-4.19,0-6.28a28.49,28.49,0,0,1,.09-3.33,6.76,6.76,0,0,1,.09-1.55A.69.69,0,0,1,321.55,176Z"/><path class="cls-66" d="M248.65,177c-.75,0-1.5,0-2.25,0-.45,0-.68-.14-.67-.62,0-1.53,0-3,0-4.58,0-.48.2-.64.66-.63,1.5,0,3,0,4.5,0,.52,0,.68.21.67.69q0,2.22,0,4.44c0,.54-.21.72-.73.7C250.1,177,249.37,177,248.65,177Z"/><path class="cls-87" d="M289.06,188.69c.24.06.76-.14.76.38s-.46.48-.82.48-.75,0-.76-.44S288.64,188.67,289.06,188.69Z"/><path class="cls-88" d="M289.53,186.57c0,.38-.19.67-.56.69s-.6-.24-.6-.64a.54.54,0,0,1,.56-.6C289.33,186,289.44,186.29,289.53,186.57Z"/><path class="cls-66" d="M260.17,174.36a4.38,4.38,0,0,1,0,.51c-.14.58-.43,1.08-1.09,1.08s-1-.49-1.08-1.08a2.51,2.51,0,0,1,0-1.09,1.11,1.11,0,0,1,1-1c.63,0,.94.42,1.1,1A3.68,3.68,0,0,1,260.17,174.36Z"/><path class="cls-89" d="M277.19,187.14c.08.56,0,1.07-.72,1.05s-.73-.56-.74-1.07.41-1.11.86-1.07C277.29,186.11,277.22,186.64,277.19,187.14Z"/><path class="cls-90" d="M278.77,174.89c.08.54,0,1.06-.68,1.08s-.77-.49-.78-1,.35-1.17.84-1.14C278.85,173.86,278.81,174.38,278.77,174.89Z"/><path class="cls-87" d="M252.13,187.22c.45-.1.57,0,.56.3,0,.47-.32.61-.69.68s-.58,0-.55-.39S251.94,187.3,252.13,187.22Z"/><path class="cls-89" d="M272,187.23c0,.46-.16.92-.78,1-.45,0-.85-.52-.8-1.11s.19-1,.81-1C271.63,186,272,186.53,272,187.23Z"/><path class="cls-87" d="M267.09,187.1c0-.53.17-1,.78-1,.44-.05.86.52.81,1.11s-.17,1-.8,1C267.42,188.24,267.08,187.74,267.09,187.1Z"/><path class="cls-91" d="M283.92,186.92c-.25-.15-.66.14-.66-.28a.64.64,0,0,1,.68-.61.55.55,0,0,1,.64.53C284.6,187.15,284.08,186.69,283.92,186.92Z"/><path class="cls-92" d="M297,186.92c-.26-.14-.68.14-.68-.25A.66.66,0,0,1,297,186a.57.57,0,0,1,.63.57C297.63,187.15,297.12,186.68,297,186.92Z"/><path class="cls-92" d="M291.31,186.59c.16-.32.37-.6.8-.56s.66.35.56.61c-.18.51-.69.13-1.05.23C291.45,186.91,291.27,186.86,291.31,186.59Z"/><path class="cls-93" d="M272.24,174.89c0,.64-.33,1.12-.81,1.09s-.78-.51-.79-1,.13-1,.77-1.13C271.87,173.75,272.23,174.25,272.24,174.89Z"/><path class="cls-94" d="M255.46,141.32c-.85,0-1.69,0-2.54,0-.43,0-.61-.12-.61-.57,0-1.11,0-2.23,0-3.34,0-.39.12-.57.54-.56,1.74,0,3.48,0,5.23,0,.47,0,.57.2.56.62,0,1.08,0,2.17,0,3.26,0,.51-.21.62-.66.6C257.16,141.3,256.31,141.32,255.46,141.32Z"/><path class="cls-94" d="M257.82,135.27c0,.2,0,.39,0,.58,0,.41-.24.4-.52.4s-.53,0-.52-.4a4.08,4.08,0,0,0-.09-1.3,1.25,1.25,0,0,0-2.41,0,3,3,0,0,0-.09,1.15c0,.41-.12.54-.53.55s-.53-.17-.52-.56a3.37,3.37,0,0,1,.45-2.15,2.36,2.36,0,0,1,2.58-.88A2.44,2.44,0,0,1,257.82,135.27Z"/><path class="cls-80" d="M293.28,137.59c-.08.5-.28.85-.82.85s-.81-.38-.8-.9a.76.76,0,0,1,.8-.84C293,136.71,293.23,137.1,293.28,137.59Z"/><path class="cls-80" d="M282.65,137.58c-.06.48-.24.84-.79.86s-.83-.35-.83-.87a.76.76,0,0,1,.77-.86C282.37,136.69,282.6,137.07,282.65,137.58Z"/><path class="cls-80" d="M270.4,137.59c0-.52.26-.89.83-.88a.87.87,0,0,1,0,1.73C270.64,138.43,270.45,138.07,270.4,137.59Z"/><path class="cls-80" d="M303.06,138.44a.78.78,0,0,1-.78-.92.75.75,0,0,1,.82-.81.78.78,0,0,1,.79.92A.77.77,0,0,1,303.06,138.44Z"/><path class="cls-76" d="M280.53,137.55c0,.52-.24.88-.81.88a.74.74,0,0,1-.8-.82.77.77,0,0,1,.8-.9C280.23,136.7,280.5,137,280.53,137.55Z"/><path class="cls-76" d="M306,137.61c0,.51-.29.85-.85.82a.76.76,0,0,1-.77-.86.76.76,0,0,1,.78-.86C305.71,136.69,306,137,306,137.61Z"/><path class="cls-76" d="M295.38,137.61c0,.51-.29.85-.86.82a.75.75,0,0,1-.76-.86.76.76,0,0,1,.78-.86C295.09,136.69,295.36,137,295.38,137.61Z"/><path class="cls-76" d="M284,138.45a.78.78,0,0,1-.82-.83.76.76,0,0,1,.79-.91.75.75,0,0,1,.81.82A.8.8,0,0,1,284,138.45Z"/><path class="cls-76" d="M274.13,137.55c0,.54-.26.89-.83.88a.74.74,0,0,1-.79-.83.77.77,0,0,1,.82-.89C273.84,136.71,274.1,137,274.13,137.55Z"/><path class="cls-76" d="M269.91,137.58c0,.51-.26.86-.83.85a.74.74,0,0,1-.79-.83.77.77,0,0,1,.82-.89C269.62,136.71,269.88,137,269.91,137.58Z"/><path class="cls-80" d="M301.76,137.57c-.05.49-.25.87-.83.87a.75.75,0,0,1-.79-.84.76.76,0,0,1,.81-.89C301.46,136.7,301.7,137.06,301.76,137.57Z"/><path class="cls-80" d="M296.7,138.45a.77.77,0,0,1-.78-.84c0-.54.24-.9.79-.9a.78.78,0,0,1,.82.9A.79.79,0,0,1,296.7,138.45Z"/><path class="cls-80" d="M290.3,138.45a.77.77,0,0,1-.79-.84c0-.54.25-.9.8-.9a.77.77,0,0,1,.81.9A.79.79,0,0,1,290.3,138.45Z"/><path class="cls-80" d="M286.92,137.61c-.07.47-.28.83-.82.83s-.81-.36-.81-.89a.75.75,0,0,1,.79-.84C286.64,136.7,286.88,137.08,286.92,137.61Z"/><path class="cls-80" d="M276.3,137.57c-.07.5-.28.86-.82.87s-.81-.34-.81-.88a.75.75,0,0,1,.78-.85C276,136.69,276.24,137.08,276.3,137.57Z"/><path class="cls-80" d="M264.89,138.45a.77.77,0,0,1-.84-.81c0-.54.21-.9.76-.93a.76.76,0,0,1,.84.8A.8.8,0,0,1,264.89,138.45Z"/><path class="cls-74" d="M267,138.45a.8.8,0,0,1-.84-.86.77.77,0,0,1,.82-.88c.56,0,.8.38.79.92A.77.77,0,0,1,267,138.45Z"/><path class="cls-74" d="M298.89,138.44a.79.79,0,0,1-.88-.8.78.78,0,0,1,.78-.93.75.75,0,0,1,.83.8A.78.78,0,0,1,298.89,138.44Z"/><path class="cls-74" d="M289,137.58c0,.51-.25.84-.78.86s-.83-.36-.83-.88a.77.77,0,0,1,.78-.86A.79.79,0,0,1,289,137.58Z"/><path class="cls-74" d="M278.37,137.58c0,.5-.23.84-.76.86s-.84-.35-.85-.87a.77.77,0,0,1,.78-.86C278.09,136.69,278.36,137,278.37,137.58Z"/><path class="cls-69" d="M317.14,120H248.76c-1.59,0-2.15-.55-2.15-2.12V106.48a1.7,1.7,0,0,1,1.95-2H385.84c1.32,0,1.93.63,1.93,2v11.42c0,1.44-.59,2-2,2Z"/><path class="cls-95" d="M361,181.82c.42,1.5-.32,2.43-1.78,2.26-.28,0-.42,0-.48.26s.12.34.32.4a6,6,0,0,0,1.52.11,1.08,1.08,0,0,1,1.14.72,1.17,1.17,0,0,1-.54,1.39,2.81,2.81,0,0,1-2.83.19,1,1,0,0,1-.37-1.57c.21-.27.27-.45.07-.73a.41.41,0,0,1-.05-.35c.53-.65,0-1.22-.11-1.83a1.6,1.6,0,0,1,1.9-1.66c.41.06.82,0,1.23.08.25,0,.63-.18.68.29S361.29,181.76,361,181.82Z"/><path class="cls-96" d="M356.56,181.84c.37,1.59-.24,2.32-1.86,2.22-.21,0-.33,0-.38.21s0,.4.3.48a5.79,5.79,0,0,0,1.44.09c.62,0,1.11.2,1.23.88a1.23,1.23,0,0,1-.74,1.36,2.93,2.93,0,0,1-2.58.11,1,1,0,0,1-.45-1.6c.19-.25.34-.44.08-.71a.26.26,0,0,1,0-.21,3.74,3.74,0,0,0-.11-2.07,1.55,1.55,0,0,1,1.87-1.59c.41.07.82,0,1.22.09.24,0,.62-.22.68.28S356.85,181.74,356.56,181.84Z"/><path class="cls-95" d="M348.58,183.19a2.07,2.07,0,0,1,2.09-2.21,2.12,2.12,0,0,1,1.93,2.44,2,2,0,0,1-2.05,2.16A2.09,2.09,0,0,1,348.58,183.19Z"/><path class="cls-97" d="M364.24,183.54a4.68,4.68,0,0,0-.65,0c-.23,0-.55-.14-.66.11s.12.57.31.77a1.28,1.28,0,0,0,1.6.27c.29-.14.5-.18.62.17s-.19.39-.38.48a2.07,2.07,0,0,1-2.26-.2,2.31,2.31,0,0,1-.76-2.49,1.88,1.88,0,0,1,1.48-1.61,1.8,1.8,0,0,1,2.15,2.22c-.07.26-.23.27-.43.27Z"/><path class="cls-89" d="M341.83,183.21v-1.67c0-.17,0-.38.18-.43s.45-.11.53.09c.17.43.33.22.56.08a1.35,1.35,0,0,1,2.23,1,20.54,20.54,0,0,1,.07,2.83c0,.37-.25.32-.49.34s-.37-.13-.36-.39c0-.73,0-1.46,0-2.18,0-.53,0-1.13-.83-1.09a1.08,1.08,0,0,0-1,1.15c0,.68,0,1.35,0,2,0,.31,0,.49-.42.49s-.43-.21-.43-.51C341.84,184.37,341.83,183.79,341.83,183.21Z"/><path class="cls-97" d="M366.65,183.24c0-.58,0-1.16,0-1.74,0-.16-.06-.38.18-.4s.48-.13.53.2.21.21.37.08a1.5,1.5,0,0,1,1.75-.21c.6.3.66.91.67,1.51s0,1.45,0,2.18c0,.31.06.61-.45.6s-.41-.29-.41-.58c0-.72,0-1.45,0-2.18,0-.49-.12-.92-.76-.91a1,1,0,0,0-1,1c0,.63,0,1.26,0,1.89,0,.3.24.77-.4.8s-.41-.46-.43-.76C366.63,184.21,366.65,183.72,366.65,183.24Z"/><path class="cls-98" d="M346.63,182.1c0-.77,0-1.55,0-2.32,0-.29-.1-.64.41-.66s.43.33.43.63c0,1.4,0,2.8,0,4.2,0,.34-.12.71.32,1,.16.09.23.51,0,.62a.72.72,0,0,1-1-.34,2.74,2.74,0,0,1-.16-1C346.62,183.5,346.63,182.8,346.63,182.1Z"/><path class="cls-97" d="M340.48,182.51c0,.82,0,1.64,0,2.47,0,.31,0,.48-.42.48s-.45-.14-.45-.48q0-2.46,0-4.92c0-.37.15-.44.47-.44s.41.13.4.43C340.47,180.87,340.48,181.69,340.48,182.51Z"/><path class="cls-86" d="M254.9,138.77c.07-.4.27-.64.64-.6a.52.52,0,0,1,.49.66,5,5,0,0,0-.31.95c0,.24-.35.29-.42.09A7.14,7.14,0,0,0,254.9,138.77Z"/><path class="cls-94" d="M255.49,116.16h-3.63c-.17,0-.38.06-.47-.12s.13-.33.25-.46c.68-.68,1.38-1.35,2.07-2a.71.71,0,0,1,1.09-.08.92.92,0,0,0,1.36,0,.68.68,0,0,1,1,0c.75.72,1.49,1.45,2.23,2.18.1.09.25.19.16.36s-.25.12-.39.12Z"/><path class="cls-94" d="M251.47,109.81h8c.05.29-.17.36-.31.47-1,.77-2.06,1.52-3.09,2.3a.84.84,0,0,1-1.12.09l-3.43-2.56A.23.23,0,0,1,251.47,109.81Z"/><path class="cls-75" d="M278,115.78a2.35,2.35,0,0,1-2.44-1.49,3.25,3.25,0,0,1,.92-3.5,3,3,0,0,1,3.07-.39,2.26,2.26,0,0,1,1.1,2.35,1.69,1.69,0,0,1-1.11,1.56.75.75,0,0,1-.76-.07.54.54,0,0,0-.73,0c-.63.34-1.21-.06-1.28-.78-.1-1.1.67-1.65,1.76-1.71s.62.39.54.81c0,.19-.09.38-.12.57s-.17.63.21.75.59-.13.77-.41a2,2,0,0,0-.12-2.13,2,2,0,0,0-2.11-.61,2.63,2.63,0,0,0-1.57,3.58,2,2,0,0,0,2.48.94c.18-.06.41-.32.55,0s-.22.37-.41.43A4.86,4.86,0,0,1,278,115.78Z"/><path class="cls-99" d="M251,112.82c0-.48,0-1,0-1.45s.2-.58.59-.3,1,.77,1.51,1.13c.36.26.39.52.07.83l-1.66,1.62c-.1.1-.22.24-.37.15s-.14-.24-.14-.39Z"/><path class="cls-99" d="M260,112.9v1.53c0,.14,0,.31-.15.38s-.27-.06-.37-.16l-1.7-1.68c-.23-.23-.26-.47,0-.68.56-.43,1.12-.85,1.69-1.26.32-.23.5-.08.51.28,0,.53,0,1.06,0,1.59Z"/><path class="cls-74" d="M293,113.43v.73c0,.47-.05.83-.6.35-.19-.16-.31.06-.44.12-.72.29-1.42.12-1.63-.43s.1-1.26.93-1.51c.18-.06.38-.08.56-.14s.51.1.48-.27a.58.58,0,0,0-.59-.54,1.38,1.38,0,0,0-.76.2c-.18.12-.33.14-.46-.1s.1-.33.25-.42a1.37,1.37,0,0,1,2.25,1.14c0,.29,0,.58,0,.87Z"/><path class="cls-79" d="M266,112.91V111.6c0-.27.26-.51.36-.35.37.58.62.07.91,0a1,1,0,0,1,1.48.89,18.79,18.79,0,0,1,.06,2.25c0,.24-.08.35-.33.35s-.35-.1-.35-.34c0-.63,0-1.26,0-1.89,0-.41-.14-.75-.61-.72s-.82.23-.84.74,0,1.11,0,1.67c0,.23.12.56-.34.54s-.31-.34-.32-.58C266,113.73,266,113.32,266,112.91Z"/><path class="cls-75" d="M273.2,114.76a1.6,1.6,0,0,1-1.64-1.72,1.67,1.67,0,0,1,1.58-1.87,1.65,1.65,0,0,1,1.63,1.81A1.61,1.61,0,0,1,273.2,114.76Z"/><path class="cls-100" d="M312.94,113c0,.46,0,.92,0,1.38s-.36.48-.44.32c-.24-.51-.42-.18-.66-.05a1,1,0,0,1-1.65-.9c-.05-.7,0-1.4,0-2.1,0-.26.06-.42.36-.4s.27.21.27.4c0,.58,0,1.16,0,1.74,0,.41.1.84.61.82a.81.81,0,0,0,.85-.88c0-.46,0-.92,0-1.38,0-.27-.19-.7.35-.69s.29.41.31.65S312.94,112.62,312.94,113Z"/><path class="cls-101" d="M302.66,114.76a1.68,1.68,0,0,1-1.75-1.88,1.63,1.63,0,0,1,1.76-1.69c.87.07,1.23.87,1.18,1.71,0,.29-.25.23-.43.24-.46,0-.92,0-1.38,0s-.5.18-.31.52a1,1,0,0,0,1.29.53c.21-.06.52-.4.63.07s-.29.37-.52.44A1.92,1.92,0,0,1,302.66,114.76Z"/><path class="cls-101" d="M288.52,114.76a1.69,1.69,0,0,1-1.72-2,1.59,1.59,0,0,1,1.85-1.58,1.48,1.48,0,0,1,1.09,1.71c-.06.23-.22.22-.38.22-.46,0-.93,0-1.38,0s-.56.24-.32.6a1,1,0,0,0,1.26.45c.21-.06.53-.38.62.09s-.31.37-.55.44A2.41,2.41,0,0,1,288.52,114.76Z"/><path class="cls-80" d="M306.39,113v-1.38c0-.43.3-.48.49-.22s.28.15.48,0c.95-.54,1.7-.16,1.79.92.06.67,0,1.36,0,2,0,.22,0,.38-.3.38s-.37-.13-.37-.39c0-.61,0-1.22,0-1.82,0-.39-.1-.77-.6-.74a.81.81,0,0,0-.87.78c0,.51,0,1,0,1.53,0,.23.21.65-.32.63s-.26-.43-.29-.67A9.86,9.86,0,0,1,306.39,113Z"/><path class="cls-102" d="M269.93,113.28v-1c0-.21.05-.44-.28-.49s-.23-.36-.14-.39c.58-.19.38-.69.49-1.07a1,1,0,0,1,1.31-.69c.18,0,.24.14.21.31s-.08.29-.28.25c-.39-.07-.57.08-.63.49s.09.61.53.58c.15,0,.18.13.18.26s-.07.3-.24.28c-.57-.08-.47.31-.48.64,0,.63,0,1.26,0,1.89,0,.25,0,.41-.35.4s-.34-.19-.33-.43Z"/><path class="cls-76" d="M299,114c.3-.89.57-1.64.8-2.4.09-.31.24-.49.55-.4s.1.4,0,.56c-.26.82-.56,1.64-.85,2.45-.09.25-.14.49-.52.48a.52.52,0,0,1-.55-.43c-.28-.85-.6-1.68-.9-2.52-.06-.17-.26-.42.07-.54s.48.08.57.38C298.49,112.37,298.74,113.12,299,114Z"/><path class="cls-100" d="M295,114.77c-.62,0-1-.25-1-.84s0-1-.06-1.51c0-.25.16-.6-.34-.65-.22,0-.12-.4-.11-.4.79.06.34-1.28.88-1,.36.2.53.9,1.13,1.08.09,0,0,.37-.29.32-.57-.1-.63.22-.59.67s0,.67,0,1,.06.86.68.73c.27,0,.31.17.29.3C295.54,114.89,295.18,114.68,295,114.77Z"/><path class="cls-103" d="M282.92,114.77a1.48,1.48,0,0,1-1.49-.94,2.07,2.07,0,0,1,.33-2.18,1.61,1.61,0,0,1,1.68-.4c.19,0,.53.12.46.42s-.34.28-.62.15a.81.81,0,0,0-1.07.34,1.41,1.41,0,0,0,0,1.64.86.86,0,0,0,1.08.35c.21-.08.49-.41.65,0s-.3.4-.52.52A1.37,1.37,0,0,1,282.92,114.77Z"/><path class="cls-76" d="M284.73,113c0-.46,0-.92,0-1.38,0-.3.28-.48.37-.32.35.56.56,0,.83,0s.58-.19.69.14-.16.39-.47.43a.93.93,0,0,0-.78,1c0,.48,0,1,0,1.45,0,.23.06.49-.34.48s-.28-.25-.29-.46C284.72,113.83,284.73,113.39,284.73,113Z"/><path d="M313.8,107.74v9h-.15v-9Z"/><path class="cls-104" d="M296.86,113q0,.69,0,1.38c0,.25-.11.33-.35.33s-.28-.12-.28-.32v-2.83c0-.24.1-.34.34-.34s.28.2.29.4Z"/><path class="cls-104" d="M264.33,113v-1.31c0-.23,0-.43.33-.42s.29.18.29.38c0,.92,0,1.84,0,2.76,0,.24-.07.35-.33.35s-.3-.18-.3-.38Z"/><path class="cls-102" d="M304.94,113.84a.44.44,0,0,1,.47.47.45.45,0,1,1-.89,0A.43.43,0,0,1,304.94,113.84Z"/><path class="cls-105" d="M296.54,110.62c-.25,0-.42-.18-.41-.43a.38.38,0,0,1,.44-.38.37.37,0,0,1,.4.42C297,110.5,296.77,110.58,296.54,110.62Z"/><path class="cls-106" d="M265.09,110.22a.42.42,0,0,1-.43.39.4.4,0,0,1-.44-.37.39.39,0,0,1,.45-.43A.43.43,0,0,1,265.09,110.22Z"/><path class="cls-73" d="M359.6,185.57h.58c.26,0,.57,0,.66.32s-.15.55-.42.69a1.77,1.77,0,0,1-1.41.11.58.58,0,0,1-.49-.75c.1-.39.36-.46.72-.39a1.45,1.45,0,0,0,.36,0Z"/><path class="cls-73" d="M360.3,182.53c0,.55-.23.93-.78.94a.9.9,0,0,1,0-1.8C360,181.68,360.27,182,360.3,182.53Z"/><path class="cls-73" d="M355.21,185.57h.5c.29,0,.66,0,.73.32s-.23.6-.55.75a1.82,1.82,0,0,1-1.28.05c-.31-.09-.58-.28-.51-.67a.53.53,0,0,1,.74-.47,1.53,1.53,0,0,0,.37,0Z"/><path class="cls-73" d="M355.91,182.42c0,.7-.3,1.06-.81,1.06a.91.91,0,0,1,0-1.81A.76.76,0,0,1,355.91,182.42Z"/><path class="cls-73" d="M351.71,183.32c0,.08,0,.2,0,.32a1.1,1.1,0,1,1-2.19,0,2.3,2.3,0,0,1,0-.37c0-.92.48-1.58,1.14-1.56S351.7,182.39,351.71,183.32Z"/><path class="cls-73" d="M363.91,182.89c-.32-.19-.81.24-1-.27-.11-.33.63-1,1.05-.92s.94.37.9.85S364.22,182.68,363.91,182.89Z"/><path class="cls-107" d="M278.49,112.62c-.07.5-.06,1.08-.72,1.19-.37,0-.47-.28-.45-.6a1,1,0,0,1,.79-1.07C278.42,112.09,278.52,112.33,278.49,112.62Z"/><path class="cls-108" d="M292.3,113.34c.07.67-.39.8-.84.89s-.62-.14-.57-.48c.09-.6.65-.63,1.1-.76S292.31,113.16,292.3,113.34Z"/><path class="cls-109" d="M274.1,113c0,.71-.41,1.25-.94,1.25s-.91-.53-.93-1.2.39-1.27.91-1.28S274.1,112.26,274.1,113Z"/><path class="cls-108" d="M302.42,112.76c-.26-.25-.77.21-.76-.33a.79.79,0,0,1,.86-.72.65.65,0,0,1,.7.67C303.18,113,302.61,112.42,302.42,112.76Z"/><path class="cls-108" d="M288.35,112.72c-.26-.2-.78.21-.8-.29a.77.77,0,0,1,.84-.72.65.65,0,0,1,.71.66C289.09,113,288.58,112.51,288.35,112.72Z"/><path class="cls-110" d="M303.83,20.07C307.37,11.91,318.6,9,325.7,14.33c1.36,1,1.25,1.6.14,2.73-1.67,1.71-2.83,2.88-5.67,1.32-4.15-2.28-8.26-.12-11.61,5.17C306.17,23.5,304.73,22.15,303.83,20.07Z"/><path class="cls-111" d="M308.48,29.61c3.49,6.22,7.29,7.55,13.91,4.87A6.83,6.83,0,0,1,327,38c-7.13,6.76-19.78,4.18-23.23-4.74A6.55,6.55,0,0,1,308.48,29.61Z"/><path class="cls-112" d="M327,38l-4.65-3.53c.95-1.22,2.94-2.38,2.33-3.81s-2.81-.54-4.29-.61c-3-.14-4.51-2.53-3.26-5.23.31-.66.83-.66,1.37-.66,3.81,0,7.62,0,11.43,0a1.4,1.4,0,0,1,1.57,1.54C331.66,30.39,330.88,34.76,327,38Z"/><path class="cls-113" d="M308.48,29.61l-4.67,3.66c-2.58-4.4-2.41-8.8,0-13.2,1.56,1.18,2.9,2.66,4.73,3.48A14.4,14.4,0,0,0,308.48,29.61Z"/><path class="cls-114" d="M369.93,64.9c-1.55.41-3.11.65-4.22-.78a5.64,5.64,0,0,1-.62-5.29,3,3,0,0,1,2.69-2.22c1.21-.12,2.39.58,3.66.09.6-.22.78.4.78.95,0,2.41.11,4.82-.05,7.22a3.92,3.92,0,0,1-6.2,2.82c-.46-.31-1-.59-.47-1.3s.74-.56,1.37-.24C368.72,67.09,369.5,66.74,369.93,64.9Z"/><path class="cls-114" d="M344.88,61.89c.46,1.65-.45,2.74-2.3,3.18-2.79.68-5.24-.24-6.13-2.44a8.33,8.33,0,0,1,.06-6.48,3.93,3.93,0,0,1,4-2.44c1.65,0,3.21.49,3.95,2.19.18.43.78,1.1,0,1.42-.53.21-1.42.43-1.79-.37A2.08,2.08,0,0,0,340,55.6a2.71,2.71,0,0,0-1.85,2.88,13.87,13.87,0,0,0,.06,2.58,2.68,2.68,0,0,0,3.32,2.37,1.34,1.34,0,0,0,1.23-1.52c0-.91-.55-1-1.22-.94s-1.07-.17-1.08-.92.53-.85,1.13-.84h.92C345.22,59.25,344.83,58.9,344.88,61.89Z"/><path class="cls-114" d="M267.29,65c-4.14.58-5.91-1.33-5.11-5.51a3.23,3.23,0,0,1,4.37-2.69c.23.07.52.35.65.28,2.83-1.4,2.26.77,2.26,2.18a42.61,42.61,0,0,1-.16,6.29,3,3,0,0,1-2.12,2.54,4.41,4.41,0,0,1-4.22-.57.72.72,0,0,1-.21-1.11c.38-.58.73-.58,1.37-.26C266,67.06,266.65,66.78,267.29,65Z"/><path class="cls-115" d="M304.3,61.27c.39-1.23.8-2.45,1.15-3.69a1.05,1.05,0,0,1,1.16-.93c.67,0,.79.47.94.94A18.13,18.13,0,0,0,309,61.25c.29-1.16.67-2.31.86-3.48.16-1,.66-1.25,1.52-1.1,1.11.2.5,1,.39,1.45-.51,2-1.12,4-1.65,6.06-.16.6-.35,1-1.08,1a1.08,1.08,0,0,1-1.19-.89c-.41-1.35-.85-2.69-1.37-4.35-.5,1.59-.92,2.86-1.29,4.15-.18.65-.41,1.08-1.22,1.09s-1-.49-1.14-1.13c-.53-2-1.14-4-1.67-6.05-.12-.48-.44-1.17.48-1.28.63-.07,1.22-.1,1.4.78.26,1.25.62,2.48.94,3.72Z"/><path class="cls-115" d="M252.43,65.22c-1.61,0-3.08-.42-3.91-2-.26-.48-.83-1.2,0-1.57.59-.26,1.44-.47,1.86.54A2.2,2.2,0,0,0,253,63.51c.67-.1,1.33-.4,1.42-1.23a1.33,1.33,0,0,0-1-1.4c-.79-.34-1.61-.6-2.4-.93-1.52-.64-2.74-1.55-2.48-3.44s1.65-2.49,3.27-2.73a4,4,0,0,1,4.33,1.78c.28.45.85,1.24.16,1.6s-1.54.64-2-.53a1.86,1.86,0,0,0-2.12-1.13,1.44,1.44,0,0,0-1.48,1.15c-.15.75.36,1.14.94,1.4s1.39.52,2.07.79q3.3,1.29,2.81,3.77Q256,65.25,252.43,65.22Z"/><path class="cls-114" d="M325,57.14c3.65-1.24,5-.25,5,3.46,0,.92,0,1.85,0,2.77,0,.76.43,1.82-1.09,1.77s-1-1.14-1-1.86c-.07-1.11,0-2.23,0-3.34,0-.79-.15-1.51-1.17-1.54A1.43,1.43,0,0,0,325,59.92c-.05,1.3,0,2.59,0,3.89,0,.71,0,1.32-1,1.34s-1-.62-1-1.32c0-3.09,0-6.17,0-9.26,0-.69-.1-1.35,1-1.33s1,.6,1,1.32S325,56.16,325,57.14Z"/><path class="cls-114" d="M381.84,65.2a3.6,3.6,0,0,1-3.66-2.78c-.56-2.33.13-4.51,1.77-5.38a3.7,3.7,0,0,1,3.87.12c1.41.86,1.45,2.33,1.58,3.74.06.68-.48.75-1,.75-1,0-2,0-3,0-.39,0-1-.24-1.11.33s.29.91.7,1.2a2,2,0,0,0,2.54-.22c.6-.46,1-.25,1.39.25.57.7-.11,1-.49,1.3A3.64,3.64,0,0,1,381.84,65.2Z"/><path class="cls-114" d="M363.41,61c0,2.66-1.43,4.21-3.82,4.2s-4-1.75-4-4.5a3.88,3.88,0,0,1,4-4.13C362,56.64,363.43,58.28,363.41,61Z"/><path class="cls-114" d="M288.54,60.77c0-.68,0-1.36,0-2-.06-1.56,0-2.94,2.15-1.65.21.12.65-.17,1-.28,2.32-.71,3.78.28,3.87,2.67.05,1.54,0,3.08,0,4.61,0,.63-.08,1.06-.88,1.06s-1.14-.2-1.12-1c0-1.41,0-2.83,0-4.24,0-.86-.35-1.58-1.46-1.46A1.38,1.38,0,0,0,290.68,60c0,1.36,0,2.71,0,4.06,0,.79-.26,1.09-1.06,1.09s-1.13-.23-1.1-1C288.57,63,288.54,61.87,288.54,60.77Z"/><path class="cls-115" d="M350.54,56.59c2.38.11,3.83,1.87,3.72,4.55s-1.63,4.2-4.16,4.06c-2.31-.13-3.82-2-3.67-4.6S348.19,56.49,350.54,56.59Z"/><path class="cls-114" d="M271.4,60.76c0-.68,0-1.36,0-2,0-1.42-.19-3.07,2.07-1.58.17.12.63-.24,1-.35,2.16-.69,3.55.08,3.82,2.31.2,1.64.09,3.32.16,5,0,.81-.34,1-1.11,1s-1.06-.33-1-1.1c0-1.35,0-2.7,0-4.06,0-.91-.24-1.62-1.32-1.58a1.48,1.48,0,0,0-1.6,1.63c0,1.29,0,2.58,0,3.87,0,.63.08,1.22-.89,1.24s-1.11-.45-1.08-1.24C271.42,62.85,271.4,61.81,271.4,60.76Z"/><path class="cls-114" d="M320.4,65.21c-1.38,0-2.2-.53-2.25-1.93,0-1,0-2.09,0-3.14,0-.82.27-1.79-1-1.94a.52.52,0,0,1-.35-.74,7.94,7.94,0,0,0,1.84-2.66c.06-.15,1.49-.2,1.37.26-.39,1.56,1.78,1.36,1.59,2.64-.07.46-.42.48-.75.66-1.11.62-1,4.33.18,5.12a1,1,0,0,1,.58,1.17C321.4,65.35,320.77,65.1,320.4,65.21Z"/><path class="cls-116" d="M376.32,59.22c0,1.59,0,3.19,0,4.79,0,.72-.13,1.13-1,1.14s-1.17-.32-1.16-1.19c0-3.19,0-6.39,0-9.58,0-.92.38-1.14,1.22-1.14s.95.51.95,1.18C376.31,56,376.32,57.62,376.32,59.22Z"/><path class="cls-117" d="M284.5,60.89c0-1,0-2.09,0-3.13,0-.76.28-1.11,1.08-1.12s1.09.29,1.08,1.08c0,2.15,0,4.29,0,6.44,0,.7-.23,1-.95,1s-1.24,0-1.21-.94C284.53,63.1,284.5,62,284.5,60.89Z"/><path class="cls-117" d="M260.34,61c0,1,0,2,0,2.95,0,.81-.17,1.22-1.11,1.21s-1.07-.52-1.06-1.28c0-2,0-3.93,0-5.89,0-.73.05-1.31,1-1.35s1.13.62,1.11,1.42C260.32,59,260.34,60,260.34,61Z"/><path class="cls-115" d="M315.58,61c0,1,0,2.09,0,3.14,0,.71-.25,1-1,1s-1-.21-1-.94c0-2.16,0-4.31,0-6.47,0-.77.28-1.1,1.08-1.08s.91.42.9,1.06C315.57,58.81,315.58,59.92,315.58,61Z"/><path class="cls-118" d="M286.67,54.43c0,1-.5,1.27-1.07,1.28a1,1,0,0,1-1.11-1c0-.75.44-1.11,1.17-1.08S286.65,54.05,286.67,54.43Z"/><path class="cls-118" d="M260.37,54.68c0,.72-.48,1-1.06,1a1,1,0,0,1-1.13-1,1,1,0,0,1,1.15-1.1A1,1,0,0,1,260.37,54.68Z"/><path class="cls-119" d="M314.58,55.74c-.6-.08-1.09-.37-1.09-1a1,1,0,0,1,1.16-1.1,1,1,0,0,1,1,1.08C315.65,55.41,315.16,55.63,314.58,55.74Z"/><path class="cls-120" d="M370.07,61c.1,1.25.06,2.57-1.58,2.49s-1.74-1.42-1.7-2.61.26-2.47,1.85-2.45C370.5,58.44,370,59.92,370.07,61Z"/><path class="cls-121" d="M267.37,61c.1,1.16.15,2.52-1.5,2.52-1.49,0-1.83-1.25-1.8-2.5s.15-2.49,1.74-2.55C267.59,58.35,267.41,59.72,267.37,61Z"/><path class="cls-120" d="M381.7,60c-.46-.21-1.31.36-1.34-.47s.68-1.21,1.52-1.19,1.4.51,1.32,1.2C383.09,60.42,382.19,59.81,381.7,60Z"/><path class="cls-120" d="M357.77,60.51c0-.8.15-2.09,1.74-2.12s1.81,1.3,1.9,2.48c.11,1.47-.89,2.85-1.92,2.69C358,63.33,357.72,62.21,357.77,60.51Z"/><path class="cls-121" d="M348.52,60.92c.11-1.17.2-2.47,1.76-2.52s1.93,1.25,1.94,2.54-.31,2.52-1.75,2.58C348.88,63.58,348.59,62.25,348.52,60.92Z"/></g></g></svg>