<svg xmlns="http://www.w3.org/2000/svg" viewBox="0 0 159.75 165.5"><defs><style>.cls-1{fill:#fff;}.cls-2{fill:none;stroke:#ca151d;stroke-miterlimit:10;}.cls-3{fill:#ca151d;}</style></defs><g id="Laag_2" data-name="Laag 2"><g id="Laag_1-2" data-name="Laag 1"><rect class="cls-1" width="159.75" height="165.5"/><rect class="cls-2" x="44.56" y="47.44" width="70.62" height="70.62"/><polygon class="cls-3" points="61.54 63.34 61.54 77.87 57 77.87 57 63.34 51.7 63.34 51.7 59.56 66.84 59.56 66.84 63.34 61.54 63.34"/><path class="cls-3" d="M84.13,74a6.59,6.59,0,0,1-1.63,2.34,7.29,7.29,0,0,1-2.56,1.51,10.46,10.46,0,0,1-6.68,0,7.08,7.08,0,0,1-2.51-1.51A7,7,0,0,1,69.15,74a7.64,7.64,0,0,1-.56-3V59.52H73.1v11a4.88,4.88,0,0,0,.2,1.37,3.63,3.63,0,0,0,.61,1.19,2.52,2.52,0,0,0,1.08.83,4.19,4.19,0,0,0,1.64.31,4.1,4.1,0,0,0,1.62-.31,2.82,2.82,0,0,0,1.1-.83A3.16,3.16,0,0,0,80,71.89a5.31,5.31,0,0,0,.18-1.37v-11h4.53V71a7.64,7.64,0,0,1-.56,3"/><polygon class="cls-3" points="87.5 80.69 96.71 58.15 93.41 58.15 84.23 80.69 87.5 80.69"/><path class="cls-3" d="M101.18,64.66a6.88,6.88,0,1,0,0,13.75,7.68,7.68,0,0,0,6.25-3l-3.11-1.26a4.13,4.13,0,0,1-3.14,1.29,3.87,3.87,0,0,1-3.71-2.75h10.45a6.55,6.55,0,0,0,.13-1.17,6.88,6.88,0,0,0-6.87-6.87m0,2.94a3.91,3.91,0,0,1,3.6,2.41h-7.2a3.89,3.89,0,0,1,3.6-2.39"/><polygon class="cls-3" points="53.81 91.08 53.81 86.25 57.06 86.25 57.06 87.22 54.93 87.22 54.93 88.14 56.95 88.14 56.95 89.06 54.93 89.06 54.93 90.07 57.18 90.07 57.18 91.08 53.81 91.08"/><rect class="cls-3" x="58.13" y="86.25" width="1.18" height="4.84"/><polygon class="cls-3" points="63.5 91.08 61.54 87.9 61.53 87.9 61.58 91.08 60.43 91.08 60.43 86.25 61.75 86.25 63.7 89.4 63.72 89.4 63.69 86.25 64.82 86.25 64.82 91.08 63.5 91.08"/><path class="cls-3" d="M70.46,88.66a2.68,2.68,0,0,1-.22,1.08,2.48,2.48,0,0,1-.63.77,2.07,2.07,0,0,1-.87.45,4.54,4.54,0,0,1-1,.14H66V86.26H67.7a4.47,4.47,0,0,1,1,.13,2.48,2.48,0,0,1,.88.39,1.87,1.87,0,0,1,.63.76,2.52,2.52,0,0,1,.22,1.12m-1.2,0a1.84,1.84,0,0,0-.12-.7,1,1,0,0,0-.35-.42,1.54,1.54,0,0,0-.5-.24,2.91,2.91,0,0,0-.59,0h-.58v2.76h.57a2,2,0,0,0,.6,0,1.59,1.59,0,0,0,.51-.24.91.91,0,0,0,.35-.49,2.4,2.4,0,0,0,.11-.66"/><polygon class="cls-3" points="74.4 91.08 74.4 89.05 72.52 89.05 72.52 91.08 71.34 91.08 71.34 86.25 72.52 86.25 72.52 88.07 74.4 88.07 74.4 86.25 75.56 86.25 75.56 91.08 74.4 91.08"/><path class="cls-3" d="M81.72,88.62a2.71,2.71,0,0,1-.21,1.06,2.18,2.18,0,0,1-.56.82,2.72,2.72,0,0,1-.82.52,3.26,3.26,0,0,1-1.07.19A3.2,3.2,0,0,1,78,91a2.43,2.43,0,0,1-1.38-1.34,2.75,2.75,0,0,1-.21-1.06,2.38,2.38,0,0,1,.21-1.05,1.85,1.85,0,0,1,.56-.79,2.14,2.14,0,0,1,.82-.49,2.91,2.91,0,0,1,1.06-.11,3.26,3.26,0,0,1,1.07.19,2.63,2.63,0,0,1,.82.49,2.47,2.47,0,0,1,.56.79,2.7,2.7,0,0,1,.21,1m-1.25,0a1.39,1.39,0,0,0,0-.64,1.33,1.33,0,0,0-.28-.49,2,2,0,0,0-.44-.32,1.3,1.3,0,0,0-.55-.09,2.71,2.71,0,0,0-.57.09,1.67,1.67,0,0,0-.42.32,1.54,1.54,0,0,0-.4,1.05,1.87,1.87,0,0,0,.1.62,1.12,1.12,0,0,0,.3.47,1.67,1.67,0,0,0,.42.32,1.37,1.37,0,0,0,.57.09,2,2,0,0,0,.55-.09,2,2,0,0,0,.44-.32,1.25,1.25,0,0,0,.28-.47,1.62,1.62,0,0,0,0-.62"/><polygon class="cls-3" points="84.82 91.08 83.67 91.08 81.84 86.25 83.15 86.25 84.27 89.66 84.29 89.66 85.4 86.25 86.7 86.25 84.82 91.08"/><polygon class="cls-3" points="87.25 91.08 87.25 86.25 90.51 86.25 90.51 87.22 88.4 87.22 88.4 88.14 90.38 88.14 90.38 89.06 88.4 89.06 88.4 90.07 90.63 90.07 90.63 91.08 87.25 91.08"/><polygon class="cls-3" points="94.65 91.08 92.71 87.9 92.68 87.9 92.71 91.08 91.56 91.08 91.56 86.25 92.92 86.25 94.84 89.4 94.85 89.4 94.84 86.25 95.97 86.25 95.97 91.08 94.65 91.08"/><polygon class="cls-3" points="56.35 103.37 56.35 107.21 55.17 107.21 55.17 103.37 53.81 103.37 53.81 102.37 57.72 102.37 57.72 103.37 56.35 103.37"/><polygon class="cls-3" points="58.33 107.21 58.33 102.37 61.59 102.37 61.59 103.37 59.45 103.37 59.45 104.28 61.47 104.28 61.47 105.21 59.45 105.21 59.45 106.2 61.72 106.2 61.72 107.21 58.33 107.21"/><path class="cls-3" d="M66,107.11a2.25,2.25,0,0,1-1.08.22,2.61,2.61,0,0,1-1.83-.67,2.37,2.37,0,0,1-.55-.82,3,3,0,0,1-.21-1,2.38,2.38,0,0,1,.21-1,2.75,2.75,0,0,1,.57-.82,2.48,2.48,0,0,1,.83-.52,2.73,2.73,0,0,1,1-.17,2.79,2.79,0,0,1,1,.17,1.86,1.86,0,0,1,.8.55l-.79.79a.7.7,0,0,0-.42-.33,1.15,1.15,0,0,0-.55-.11,1.46,1.46,0,0,0-.55.11,1.37,1.37,0,0,0-.45.3,1.26,1.26,0,0,0-.28.49,1.55,1.55,0,0,0-.11.56,1.88,1.88,0,0,0,.11.62,1.5,1.5,0,0,0,.28.47,1.72,1.72,0,0,0,.45.31,1.15,1.15,0,0,0,.55.1,1.3,1.3,0,0,0,.61-.14,1.25,1.25,0,0,0,.41-.35l.8.76a2.71,2.71,0,0,1-.82.6"/><polygon class="cls-3" points="70.49 107.21 70.49 105.19 68.6 105.19 68.6 107.21 67.44 107.21 67.44 102.37 68.6 102.37 68.6 104.2 70.49 104.2 70.49 102.37 71.67 102.37 71.67 107.21 70.49 107.21"/><polygon class="cls-3" points="75.84 107.21 73.91 104.06 73.92 107.21 72.79 107.21 72.79 102.37 74.11 102.37 76.06 105.52 76.08 105.52 76.06 102.37 77.18 102.37 77.18 107.21 75.84 107.21"/><path class="cls-3" d="M83.34,104.78a2.4,2.4,0,0,1-.22,1.06,1.86,1.86,0,0,1-.55.8,2.28,2.28,0,0,1-.84.52,3.06,3.06,0,0,1-2.11,0,2.52,2.52,0,0,1-.75-.5,2.64,2.64,0,0,1-.55-.81,2.7,2.7,0,0,1-.21-1,2.78,2.78,0,0,1,.21-1.06,2,2,0,0,1,.55-.78,2.1,2.1,0,0,1,.83-.51,3,3,0,0,1,1.06-.19,2.87,2.87,0,0,1,1,.19,2.34,2.34,0,0,1,.84.51,2.51,2.51,0,0,1,.55.78,2.27,2.27,0,0,1,.22,1.06m-1.24,0a1.86,1.86,0,0,0-.11-.58,1.32,1.32,0,0,0-.29-.48,1.52,1.52,0,0,0-.44-.31,1.24,1.24,0,0,0-.57-.11,1.34,1.34,0,0,0-1,.42,1.29,1.29,0,0,0-.28.48,1.6,1.6,0,0,0,0,1.18,1.14,1.14,0,0,0,.28.47,1.47,1.47,0,0,0,.44.31,1.19,1.19,0,0,0,.55.1,1.56,1.56,0,0,0,.57-.1,1.35,1.35,0,0,0,.44-.31,1.28,1.28,0,0,0,.29-.47,2.53,2.53,0,0,0,.11-.6"/><polygon class="cls-3" points="84.22 107.21 84.22 102.37 85.39 102.37 85.39 106.19 87.28 106.19 87.28 107.21 84.22 107.21"/><path class="cls-3" d="M92.89,104.78a2.39,2.39,0,0,1-.21,1.06,2,2,0,0,1-.55.8,2.28,2.28,0,0,1-.84.52,3.06,3.06,0,0,1-2.11,0,2.26,2.26,0,0,1-.86-.5,2.64,2.64,0,0,1-.55-.81,2.68,2.68,0,0,1-.19-1,2.76,2.76,0,0,1,.19-1.06,1.6,1.6,0,0,1,.55-.78,2.1,2.1,0,0,1,.83-.51,3,3,0,0,1,1.06-.19,2.87,2.87,0,0,1,1.05.19,2.34,2.34,0,0,1,.84.51,2.51,2.51,0,0,1,.55.78,2.6,2.6,0,0,1,.2,1.06m-1.26,0a1.28,1.28,0,0,0-.11-.58,1.11,1.11,0,0,0-.28-.48,1.69,1.69,0,0,0-.43-.31,1.2,1.2,0,0,0-.56-.11,1.24,1.24,0,0,0-1,.42,1.06,1.06,0,0,0-.3.48,1.61,1.61,0,0,0-.1.58,1.8,1.8,0,0,0,.1.6,1.12,1.12,0,0,0,.3.47,1.43,1.43,0,0,0,.42.31,1.23,1.23,0,0,0,.57.1,1.17,1.17,0,0,0,1-.41,1,1,0,0,0,.28-.47,1.26,1.26,0,0,0,.11-.6"/><path class="cls-3" d="M97.2,107.22a4.06,4.06,0,0,1-1,.13,3,3,0,0,1-1.07-.19,2.32,2.32,0,0,1-.85-.52,2.41,2.41,0,0,1-.54-.8,2.83,2.83,0,0,1-.2-1,2.6,2.6,0,0,1,.2-1.06,2.66,2.66,0,0,1,.56-.82,2.43,2.43,0,0,1,.83-.5,2.82,2.82,0,0,1,1-.19,3.71,3.71,0,0,1,1.05.16,2,2,0,0,1,.81.49l-.74.82a1.35,1.35,0,0,0-.46-.33,1.56,1.56,0,0,0-1.2,0,1.39,1.39,0,0,0-.45.31,1.34,1.34,0,0,0-.3.48,1.72,1.72,0,0,0-.1.6,1.86,1.86,0,0,0,.1.61,1.25,1.25,0,0,0,.3.49,1,1,0,0,0,.45.3,1.38,1.38,0,0,0,.63.11,1.34,1.34,0,0,0,.4,0l.36-.1v-.8h-.91v-.94h2V107a4.33,4.33,0,0,1-.85.31"/><polygon class="cls-3" points="101.39 105.18 101.39 107.21 100.22 107.21 100.22 105.18 98.41 102.37 99.81 102.37 100.85 104.15 101.89 102.37 103.25 102.37 101.39 105.18"/><path class="cls-3" d="M57.81,98.11a1.47,1.47,0,0,1-.41.61,1.53,1.53,0,0,1-.66.39,2.07,2.07,0,0,1-.85.16,2.17,2.17,0,0,1-.87-.16,1.63,1.63,0,0,1-.64-.33,1.35,1.35,0,0,1-.41-.61,2,2,0,0,1-.16-.79V94.31H55v2.9a1.21,1.21,0,0,0,0,.38.75.75,0,0,0,.15.31,1,1,0,0,0,1.12.22.93.93,0,0,0,.3-.22.77.77,0,0,0,.16-.31,1,1,0,0,0,.11-.38v-2.9H58v3a2.37,2.37,0,0,1-.16.79"/><polygon class="cls-3" points="62.11 99.14 60.16 96 60.14 96 60.17 99.14 59.04 99.14 59.04 94.31 60.36 94.31 62.32 97.46 62.33 97.46 62.32 94.31 63.43 94.31 63.43 99.14 62.11 99.14"/><rect class="cls-3" x="64.55" y="94.31" width="1.18" height="4.84"/><polygon class="cls-3" points="69.29 99.14 68.11 99.14 66.3 94.31 67.61 94.31 68.73 97.73 68.76 97.73 69.86 94.31 71.17 94.31 69.29 99.14"/><polygon class="cls-3" points="71.73 99.14 71.73 94.31 74.96 94.31 74.96 95.29 72.85 95.29 72.85 96.2 74.85 96.2 74.85 97.14 72.85 97.14 72.85 98.15 75.09 98.15 75.09 99.14 71.73 99.14"/><path class="cls-3" d="M78.63,99.14l-1-1.93h-.4v1.93H76V94.31h1.85a4,4,0,0,1,.69,0,1.67,1.67,0,0,1,.6.25,1.38,1.38,0,0,1,.58,1.15,1.23,1.23,0,0,1-.27.84,1.42,1.42,0,0,1-.75.47L80,99.1H78.63Zm0-3.37a.35.35,0,0,0-.08-.26.38.38,0,0,0-.19-.16.73.73,0,0,0-.25-.08h-.9v1.12h.86a1.13,1.13,0,0,0,.26,0,.59.59,0,0,0,.22-.19.41.41,0,0,0,.08-.3"/><path class="cls-3" d="M83.25,95.63a1.11,1.11,0,0,0-.4-.31,1,1,0,0,0-.47-.1h-.44a1.21,1.21,0,0,0-.16.16.41.41,0,0,0,0,.22.74.74,0,0,0,0,.21.5.5,0,0,0,.14.15,1.07,1.07,0,0,0,.22.1l.32.11.52.19a1.42,1.42,0,0,1,1,1.27,1.83,1.83,0,0,1-.15.73,1.36,1.36,0,0,1-.42.5,1.5,1.5,0,0,1-.6.28,2.62,2.62,0,0,1-.68.12,3,3,0,0,1-1-.19,2.13,2.13,0,0,1-.8-.52l.77-.79a2,2,0,0,0,.48.38,1.3,1.3,0,0,0,.58.14h.25a1,1,0,0,0,.21-.1l.14-.15a.57.57,0,0,0,0-.26.41.41,0,0,0,0-.22.61.61,0,0,0-.19-.17.76.76,0,0,0-.32-.17l-.44-.14a3,3,0,0,1-.45-.19,2.33,2.33,0,0,1-.4-.27,1.85,1.85,0,0,1-.3-.39,2,2,0,0,1-.09-.59A1.44,1.44,0,0,1,80.7,95a1.22,1.22,0,0,1,.44-.49,2.11,2.11,0,0,1,.59-.27,2.73,2.73,0,0,1,.7,0,2.57,2.57,0,0,1,.82.14,2.35,2.35,0,0,1,.75.44Z"/><rect class="cls-3" x="84.85" y="94.31" width="1.18" height="4.84"/><polygon class="cls-3" points="89.18 95.3 89.18 99.14 88.02 99.14 88.02 95.3 86.65 95.3 86.65 94.31 90.55 94.31 90.55 95.3 89.18 95.3"/><polygon class="cls-3" points="93.86 97.08 93.86 99.14 92.68 99.14 92.68 97.08 90.89 94.31 92.29 94.31 93.33 96.09 94.37 94.31 95.7 94.31 93.86 97.08"/><path class="cls-3" d="M103.11,96.72a2.7,2.7,0,0,1-.21,1,2.24,2.24,0,0,1-.55.81,2.48,2.48,0,0,1-.83.52,3.2,3.2,0,0,1-1.06.19,3.07,3.07,0,0,1-1.12-.19,2.25,2.25,0,0,1-.83-.52,3.29,3.29,0,0,1-.57-.81,2.86,2.86,0,0,1-.17-1A3.17,3.17,0,0,1,98,95.63a1.93,1.93,0,0,1,.57-.78,2,2,0,0,1,.77-.48,3,3,0,0,1,1.06-.19,3.1,3.1,0,0,1,1,.19,2.37,2.37,0,0,1,1.39,1.29,2.6,2.6,0,0,1,.2,1.06m-1.26,0a1.62,1.62,0,0,0-.11-.58,1.29,1.29,0,0,0-.28-.48,1.67,1.67,0,0,0-.44-.31,1.15,1.15,0,0,0-.55-.11,1.56,1.56,0,0,0-.57.11,1.43,1.43,0,0,0-.42.31,1.06,1.06,0,0,0-.3.48,1.61,1.61,0,0,0-.1.58,1.76,1.76,0,0,0,.1.6,1.12,1.12,0,0,0,.3.47,1.46,1.46,0,0,0,.42.32,1.37,1.37,0,0,0,.57.09,1.25,1.25,0,0,0,1-.41,1.08,1.08,0,0,0,.28-.47,1.26,1.26,0,0,0,.11-.6"/><polygon class="cls-3" points="105.14 95.3 105.14 96.29 107.01 96.29 107.01 97.25 105.14 97.25 105.14 99.14 103.97 99.14 103.97 94.31 107.17 94.31 107.17 95.3 105.14 95.3"/></g></g></svg>