<?xml version="1.0" encoding="utf-8"?>
<svg xmlns="http://www.w3.org/2000/svg" xmlns:xlink="http://www.w3.org/1999/xlink" style="margin: auto; background: rgb(6, 3, 82); display: block; z-index: 1; position: relative; shape-rendering: auto;" width="1897" height="1107" preserveAspectRatio="xMidYMid" viewBox="0 0 1897 1107">
<g transform=""><defs>
  <path id="path-emtnwn3c4s6-1" d="M-35 -35L35 -35L35 35L-35 35Z" fill="none" stroke="inherit" stroke-width="4.333333333333334" transform="scale(0.3)"></path>
  <path id="path-emtnwn3c4s6-2" d="M0 -37A37 37 0 0 1 0 37A37 37 0 0 1 0 -37" fill="none" stroke="inherit" stroke-width="4.333333333333334" transform="scale(0.3)"></path>
  <path id="path-emtnwn3c4s6-3" d="M0 -34.641L40 34.641L-40 34.641Z" fill="none" stroke="inherit" stroke-width="4.333333333333334" transform="scale(0.3)"></path>
</defs><path id="path0" d="M 106.23624971028221 1061.5230973396942
c 0 34.156166010041176 -8.357359768414328 9.81081364118204 -18.16817340959637 9.81081364118204
S 69.89990289108948 1095.6792633497355 69.89990289108948 1061.5230973396942
s 8.357359768414328 -9.81081364118204 18.16817340959637 -9.81081364118204
S 106.23624971028221 1027.366931329653 106.23624971028221 1061.5230973396942
z" fill="none" stroke="none"></path>
<use xlink:href="#path-emtnwn3c4s6-1" x="0" y="0" stroke="#ffb111">
  <animateMotion begin="-0.23747442105490624s" dur="16.695472507426597s" keyPoints="0;1" keyTimes="0;1" repeatCount="indefinite" calcMode="linear">
    <mpath xlink:href="#path0"></mpath>
  </animateMotion>
</use><path id="path1" d="M 221.08971048807862 905.7474540200418
c 0 37.4944956454885 -9.174185104747185 10.769695557746696 -19.943880662493882 10.769695557746696
S 181.20194916309086 943.2419496655303 181.20194916309086 905.7474540200418
s 9.174185104747185 -10.769695557746696 19.943880662493882 -10.769695557746696
S 221.08971048807862 868.2529583745533 221.08971048807862 905.7474540200418
z" fill="none" stroke="none"></path>
<use xlink:href="#path-emtnwn3c4s6-3" x="0" y="0" stroke="#fe2904">
  <animateMotion begin="-0.849938653977732s" dur="13.711492683524003s" keyPoints="0;1" keyTimes="0;1" repeatCount="indefinite" calcMode="linear">
    <mpath xlink:href="#path1"></mpath>
  </animateMotion>
</use><path id="path2" d="M 282.4992257638697 670.8427249860378
c 0 60.9669171200312 -14.917437167667206 17.51177406639194 -32.429211234059146 17.51177406639194
S 217.6408032957514 731.809642106069 217.6408032957514 670.8427249860378
s 14.917437167667206 -17.51177406639194 32.429211234059146 -17.51177406639194
S 282.4992257638697 609.8758078660065 282.4992257638697 670.8427249860378
z" fill="none" stroke="none"></path>
<use xlink:href="#path-emtnwn3c4s6-2" x="0" y="0" stroke="#ffb111">
  <animateMotion begin="-4.699613280774917s" dur="18.313292851256342s" keyPoints="1;0" keyTimes="0;1" repeatCount="indefinite" calcMode="linear">
    <mpath xlink:href="#path2"></mpath>
  </animateMotion>
</use><path id="path3" d="M 448.4620616977005 681.5354633027462
c 0 40.622665354256604 -9.939588331360657 11.668212388988598 -21.607800720349253 11.668212388988598
S 405.246460257002 722.1581286570027 405.246460257002 681.5354633027462
s 9.939588331360657 -11.668212388988598 21.607800720349253 -11.668212388988598
S 448.4620616977005 640.9127979484896 448.4620616977005 681.5354633027462
z" fill="none" stroke="none"></path>
<use xlink:href="#path-emtnwn3c4s6-2" x="0" y="0" stroke="#ffb111">
  <animateMotion begin="-2.863971049714926s" dur="12.045336702749712s" keyPoints="0;1" keyTimes="0;1" repeatCount="indefinite" calcMode="linear">
    <mpath xlink:href="#path3"></mpath>
  </animateMotion>
</use><path id="path4" d="M 466.48347223132595 301.45699961622495
c 0 33.608439811989285 -8.223341656125037 9.653488031103306 -17.87682968722834 9.653488031103306
S 430.7298128568693 335.06543942821423 430.7298128568693 301.45699961622495
s 8.223341656125037 -9.653488031103306 17.87682968722834 -9.653488031103306
S 466.48347223132595 267.84855980423566 466.48347223132595 301.45699961622495
z" fill="none" stroke="none"></path>
<use xlink:href="#path-emtnwn3c4s6-3" x="0" y="0" stroke="#fe2904">
  <animateMotion begin="-2.703216700080404s" dur="14.6710175787403s" keyPoints="0;1" keyTimes="0;1" repeatCount="indefinite" calcMode="linear">
    <mpath xlink:href="#path4"></mpath>
  </animateMotion>
</use><path id="path5" d="M 566.4702983348651 881.2594096441251
c 0 44.47736970435358 -10.882760672341831 12.775414702314327 -23.65817537465616 12.775414702314327
S 519.1539475855528 925.7367793484786 519.1539475855528 881.2594096441251
s 10.882760672341831 -12.775414702314327 23.65817537465616 -12.775414702314327
S 566.4702983348651 836.7820399397715 566.4702983348651 881.2594096441251
z" fill="none" stroke="none"></path>
<use xlink:href="#path-emtnwn3c4s6-3" x="0" y="0" stroke="#ffb111">
  <animateMotion begin="-0.7712684136742731s" dur="18.419411372567595s" keyPoints="0;1" keyTimes="0;1" repeatCount="indefinite" calcMode="linear">
    <mpath xlink:href="#path5"></mpath>
  </animateMotion>
</use><path id="path6" d="M 677.2428226973436 608.0243581460734
c 0 21.49203728118109 -5.258689973054947 6.173244750977548 -11.431934724032494 6.173244750977548
S 654.3789532492785 629.5163954272545 654.3789532492785 608.0243581460734
s 5.258689973054947 -6.173244750977548 11.431934724032494 -6.173244750977548
S 677.2428226973436 586.5323208648923 677.2428226973436 608.0243581460734
z" fill="none" stroke="none"></path>
<use xlink:href="#path-emtnwn3c4s6-3" x="0" y="0" stroke="#ffb111">
  <animateMotion begin="-4.411846318774319s" dur="15.839454160261486s" keyPoints="0;1" keyTimes="0;1" repeatCount="indefinite" calcMode="linear">
    <mpath xlink:href="#path6"></mpath>
  </animateMotion>
</use><path id="path7" d="M 851.8610114396022 537.7426471558458
c 0 19.190250090844955 -4.69548672435568 5.512093111200147 -10.207579835555826 5.512093111200147
S 831.4458517684905 556.9328972466908 831.4458517684905 537.7426471558458
s 4.69548672435568 -5.512093111200147 10.207579835555826 -5.512093111200147
S 851.8610114396022 518.5523970650008 851.8610114396022 537.7426471558458
z" fill="none" stroke="none"></path>
<use xlink:href="#path-emtnwn3c4s6-2" x="0" y="0" stroke="#ffffff">
  <animateMotion begin="-0.13612317096192372s" dur="16.98363537121724s" keyPoints="1;0" keyTimes="0;1" repeatCount="indefinite" calcMode="linear">
    <mpath xlink:href="#path7"></mpath>
  </animateMotion>
</use><path id="path8" d="M 899.9663434936215 370.1028501913602
c 0 64.49669841932031 -15.781107060046457 18.52564741831541 -34.30675447836187 18.52564741831541
S 831.3528345368977 434.5995486106805 831.3528345368977 370.1028501913602
s 15.781107060046457 -18.52564741831541 34.30675447836187 -18.52564741831541
S 899.9663434936215 305.6061517720399 899.9663434936215 370.1028501913602
z" fill="none" stroke="none"></path>
<use xlink:href="#path-emtnwn3c4s6-2" x="0" y="0" stroke="#ffffff">
  <animateMotion begin="-3.614087511539452s" dur="11.594607944891484s" keyPoints="0;1" keyTimes="0;1" repeatCount="indefinite" calcMode="linear">
    <mpath xlink:href="#path8"></mpath>
  </animateMotion>
</use><path id="path9" d="M 1002.3314493410177 613.5574592697941
c 0 40.493440566722555 -9.907969500368283 11.631094630867116 -21.5390641312354 11.631094630867116
S 959.253321078547 654.0508998365167 959.253321078547 613.5574592697941
s 9.907969500368283 -11.631094630867116 21.5390641312354 -11.631094630867116
S 1002.3314493410177 573.0640187030715 1002.3314493410177 613.5574592697941
z" fill="none" stroke="none"></path>
<use xlink:href="#path-emtnwn3c4s6-3" x="0" y="0" stroke="#fe2904">
  <animateMotion begin="-3.2247396091649874s" dur="15.888778180681523s" keyPoints="0;1" keyTimes="0;1" repeatCount="indefinite" calcMode="linear">
    <mpath xlink:href="#path9"></mpath>
  </animateMotion>
</use><path id="path10" d="M 1158.912482193934 822.444432847339
c 0 62.03084041400538 -15.177758824703442 17.817369055086655 -32.9951278797901 17.817369055086655
S 1092.922226434354 884.4752732613445 1092.922226434354 822.444432847339
s 15.177758824703442 -17.817369055086655 32.9951278797901 -17.817369055086655
S 1158.912482193934 760.4135924333336 1158.912482193934 822.444432847339
z" fill="none" stroke="none"></path>
<use xlink:href="#path-emtnwn3c4s6-2" x="0" y="0" stroke="#ffffff">
  <animateMotion begin="-0.7785730445150285s" dur="18.84869941017141s" keyPoints="1;0" keyTimes="0;1" repeatCount="indefinite" calcMode="linear">
    <mpath xlink:href="#path10"></mpath>
  </animateMotion>
</use><path id="path11" d="M 1204.9300795585784 36.98301527371149
c 0 26.74029662058663 -6.542838534824388 7.680723497402543 -14.22356203222693 7.680723497402543
S 1176.4829554941246 63.72331189429812 1176.4829554941246 36.98301527371149
s 6.542838534824388 -7.680723497402543 14.22356203222693 -7.680723497402543
S 1204.9300795585784 10.242718653124857 1204.9300795585784 36.98301527371149
z" fill="none" stroke="none"></path>
<use xlink:href="#path-emtnwn3c4s6-1" x="0" y="0" stroke="#ffffff">
  <animateMotion begin="-1.7823804678341537s" dur="10.296871971479565s" keyPoints="1;0" keyTimes="0;1" repeatCount="indefinite" calcMode="linear">
    <mpath xlink:href="#path11"></mpath>
  </animateMotion>
</use><path id="path12" d="M 1337.3649124081417 1055.0741484237074
c 0 34.07302287612196 -8.337016235646862 9.786932102715884 -18.123948338362744 9.786932102715884
S 1301.1170157314164 1089.1471712998293 1301.1170157314164 1055.0741484237074
s 8.337016235646862 -9.786932102715884 18.123948338362744 -9.786932102715884
S 1337.3649124081417 1021.0011255475854 1337.3649124081417 1055.0741484237074
z" fill="none" stroke="none"></path>
<use xlink:href="#path-emtnwn3c4s6-1" x="0" y="0" stroke="#ffffff">
  <animateMotion begin="-4.844225939470617s" dur="17.897740920795265s" keyPoints="0;1" keyTimes="0;1" repeatCount="indefinite" calcMode="linear">
    <mpath xlink:href="#path12"></mpath>
  </animateMotion>
</use><path id="path13" d="M 1455.490487196197 436.17458474500097
c 0 52.975638910828465 -12.962124414351644 15.21640692119541 -28.178531335547056 15.21640692119541
S 1399.133424525103 489.15022365582945 1399.133424525103 436.17458474500097
s 12.962124414351644 -15.21640692119541 28.178531335547056 -15.21640692119541
S 1455.490487196197 383.1989458341725 1455.490487196197 436.17458474500097
z" fill="none" stroke="none"></path>
<use xlink:href="#path-emtnwn3c4s6-3" x="0" y="0" stroke="#fe2904">
  <animateMotion begin="-2.9274529171666144s" dur="13.877932100653759s" keyPoints="0;1" keyTimes="0;1" repeatCount="indefinite" calcMode="linear">
    <mpath xlink:href="#path13"></mpath>
  </animateMotion>
</use><path id="path14" d="M 1527.5343991252519 127.970435892177
c 0 47.16369423808909 -11.540052845489884 13.547018557748995 -25.08707140323888 13.547018557748995
S 1477.360256318774 175.1341301302661 1477.360256318774 127.970435892177
s 11.540052845489884 -13.547018557748995 25.08707140323888 -13.547018557748995
S 1527.5343991252519 80.8067416540879 1527.5343991252519 127.970435892177
z" fill="none" stroke="none"></path>
<use xlink:href="#path-emtnwn3c4s6-3" x="0" y="0" stroke="#fe2904">
  <animateMotion begin="-1.889053540065574s" dur="15.282156215061258s" keyPoints="0;1" keyTimes="0;1" repeatCount="indefinite" calcMode="linear">
    <mpath xlink:href="#path14"></mpath>
  </animateMotion>
</use><path id="path15" d="M 1604.4097274624341 134.81565996319532
c 0 40.00726346765562 -9.789011274000842 11.491448017305338 -21.28045929130618 11.491448017305338
S 1561.8488088798217 174.82292343085095 1561.8488088798217 134.81565996319532
s 9.789011274000842 -11.491448017305338 21.28045929130618 -11.491448017305338
S 1604.4097274624341 94.8083964955397 1604.4097274624341 134.81565996319532
z" fill="none" stroke="none"></path>
<use xlink:href="#path-emtnwn3c4s6-2" x="0" y="0" stroke="#ffffff">
  <animateMotion begin="-1.5868183141795056s" dur="10.035613035644552s" keyPoints="1;0" keyTimes="0;1" repeatCount="indefinite" calcMode="linear">
    <mpath xlink:href="#path15"></mpath>
  </animateMotion>
</use><path id="path16" d="M 1732.9815857771084 653.8950630315853
c 0 57.93999394852263 -14.176807029957661 16.642338687341606 -30.819145717299268 16.642338687341606
S 1671.3432943425098 711.835056980108 1671.3432943425098 653.8950630315853
s 14.176807029957661 -16.642338687341606 30.819145717299268 -16.642338687341606
S 1732.9815857771084 595.9550690830627 1732.9815857771084 653.8950630315853
z" fill="none" stroke="none"></path>
<use xlink:href="#path-emtnwn3c4s6-3" x="0" y="0" stroke="#ffffff">
  <animateMotion begin="-2.9599974264814954s" dur="10.17588532983638s" keyPoints="0;1" keyTimes="0;1" repeatCount="indefinite" calcMode="linear">
    <mpath xlink:href="#path16"></mpath>
  </animateMotion>
</use><path id="path17" d="M 1831.9797625122253 354.4489908713773
c 0 45.463400586062775 -11.124023547653655 13.058636338549945 -24.182659886203602 13.058636338549945
S 1783.6144427398183 399.9123914574401 1783.6144427398183 354.4489908713773
s 11.124023547653655 -13.058636338549945 24.182659886203602 -13.058636338549945
S 1831.9797625122253 308.9855902853145 1831.9797625122253 354.4489908713773
z" fill="none" stroke="none"></path>
<use xlink:href="#path-emtnwn3c4s6-2" x="0" y="0" stroke="#ffffff">
  <animateMotion begin="-0.6697286303984795s" dur="16.616749305065824s" keyPoints="0;1" keyTimes="0;1" repeatCount="indefinite" calcMode="linear">
    <mpath xlink:href="#path17"></mpath>
  </animateMotion>
</use></g>
</svg>