<?xml version="1.0" encoding="utf-8"?>
<!-- Generator: Adobe Illustrator 24.2.1, SVG Export Plug-In . SVG Version: 6.00 Build 0)  -->
<svg version="1.1" id="Laag_1" xmlns="http://www.w3.org/2000/svg" xmlns:xlink="http://www.w3.org/1999/xlink" x="0px" y="0px"
	 viewBox="0 0 418 405" style="enable-background:new 0 0 418 405;" xml:space="preserve">
<style type="text/css">
	.st0{opacity:0.8;fill:#FFCD00;enable-background:new    ;}
	.st1{opacity:0.8;fill-rule:evenodd;clip-rule:evenodd;fill:#FFB00D;enable-background:new    ;}
	.st2{opacity:0.8;fill-rule:evenodd;clip-rule:evenodd;fill:#FFCD00;enable-background:new    ;}
	.st3{fill:#060352;}
	.st4{fill:#FFFFFF;}
</style>
<path class="st0" d="M418,133.5c0,73.7-59.5,133.5-133,133.5s-133-59.8-133-133.5S211.5,0,285,0S418,59.8,418,133.5z"/>
<path class="st1" d="M285,265.6c72.7,0,131.6-59.1,131.6-132.1S357.7,1.4,285,1.4S153.4,60.5,153.4,133.5S212.3,265.6,285,265.6z
	 M285,267c73.5,0,133-59.8,133-133.5S358.5,0,285,0S152,59.8,152,133.5S211.5,267,285,267z"/>
<path class="st0" d="M342,271.5c0,73.7-59.8,133.5-133.5,133.5S75,345.2,75,271.5S134.8,138,208.5,138S342,197.8,342,271.5z"/>
<path class="st1" d="M208.5,403.6c73,0,132.1-59.1,132.1-132.1s-59.1-132.1-132.1-132.1S76.4,198.5,76.4,271.5
	S135.5,403.6,208.5,403.6z M208.5,405c73.7,0,133.5-59.8,133.5-133.5S282.2,138,208.5,138S75,197.8,75,271.5S134.8,405,208.5,405z"
	/>
<path class="st0" d="M266,133.5c0,73.7-59.5,133.5-133,133.5S0,207.2,0,133.5S59.5,0,133,0S266,59.8,266,133.5z"/>
<path class="st2" d="M133,265.6c72.7,0,131.6-59.1,131.6-132.1S205.7,1.4,133,1.4S1.4,60.5,1.4,133.5S60.3,265.6,133,265.6z
	 M133,267c73.5,0,133-59.8,133-133.5S206.5,0,133,0S0,59.8,0,133.5S59.5,267,133,267z"/>
<path class="st3" d="M265,151.7c-5.2,38.3-25.2,70-56,91.3c-45.3-32.4-53.7-74.4-56-92.2C187.9,135.8,228,134.1,265,151.7z"/>
<g>
	<g>
		<g>
			<path class="st3" d="M57.8,70.7c0.5-0.1,1.4-0.2,2.3-0.2c1.1,0,1.9,0.2,2.6,0.6c0.5,0.4,0.9,1,0.9,1.7c0,0.9-0.5,1.7-1.5,2l0,0
				c1,0.3,1.8,1.1,1.8,2.3c0,0.8-0.3,1.5-0.8,1.9c-0.6,0.6-1.7,0.9-3.3,0.9c-0.9,0-1.5-0.1-2-0.1V70.7z M59.5,74.4h0.8
				c1.1,0,1.7-0.6,1.7-1.4c0-0.9-0.6-1.3-1.6-1.3c-0.4,0-0.7,0-0.8,0.1v2.6C59.6,74.4,59.5,74.4,59.5,74.4z M59.5,78.7
				c0.2,0,0.4,0,0.8,0c1,0,1.9-0.5,1.9-1.6s-0.9-1.6-2-1.6h-0.7V78.7z"/>
			<path class="st3" d="M65.3,75.3c0-0.8,0-1.5-0.1-2.1h1.4l0.1,1.2l0,0c0.3-0.9,1-1.4,1.7-1.4c0.2,0,0.3,0,0.4,0v1.6
				c-0.1,0-0.3,0-0.4,0c-0.7,0-1.3,0.5-1.4,1.3c0,0.2,0,0.4,0,0.6V80h-1.7V75.3z"/>
			<path class="st3" d="M73.5,80l-0.1-0.7l0,0c-0.4,0.5-1,0.9-1.8,0.9c-1.3,0-2-0.9-2-2c0-1.7,1.5-2.6,3.7-2.6v-0.1
				c0-0.5-0.2-1.2-1.3-1.2c-0.6,0-1.2,0.2-1.7,0.5L70,73.6c0.5-0.3,1.3-0.6,2.3-0.6c2.1,0,2.6,1.3,2.6,2.8v2.5c0,0.6,0,1.2,0.1,1.6
				L73.5,80L73.5,80z M73.3,76.6c-1,0-2.2,0.2-2.2,1.3c0,0.7,0.4,1,0.9,1c0.6,0,1-0.4,1.2-0.9c0-0.1,0-0.2,0-0.4L73.3,76.6
				L73.3,76.6z"/>
			<path class="st3" d="M76.6,75.1c0-0.8,0-1.4-0.1-2H78l0.1,1l0,0c0.3-0.5,1-1.1,2-1.1c1.2,0,2.2,0.8,2.2,2.8V80h-1.7v-4
				c0-0.9-0.3-1.6-1.1-1.6c-0.6,0-1,0.4-1.2,1c-0.1,0.1-0.1,0.4-0.1,0.6v4h-1.7L76.6,75.1L76.6,75.1z"/>
			<path class="st3" d="M89.8,70.1v8c0,0.7,0,1.4,0.1,1.9h-1.5l-0.1-1l0,0c-0.4,0.7-1.1,1.1-2,1.1c-1.5,0-2.7-1.4-2.7-3.5
				c0-2.3,1.3-3.6,2.8-3.6c0.8,0,1.4,0.4,1.7,0.8l0,0V70L89.8,70.1L89.8,70.1z M88.1,75.9c0-0.1,0-0.3,0-0.4
				c-0.1-0.6-0.6-1.2-1.3-1.2c-1,0-1.5,1-1.5,2.3s0.5,2.2,1.5,2.2c0.6,0,1.1-0.4,1.3-1.1c0-0.1,0.1-0.3,0.1-0.5L88.1,75.9L88.1,75.9
				z"/>
			<path class="st3" d="M93.2,71.3c0,0.5-0.4,0.9-0.9,0.9s-0.9-0.4-0.9-0.9s0.4-0.9,0.9-0.9C92.9,70.4,93.2,70.7,93.2,71.3z
				 M91.5,80v-6.8h1.7V80H91.5z"/>
			<path class="st3" d="M94.9,75.1c0-0.8,0-1.4-0.1-2h1.4l0.1,1l0,0c0.3-0.5,1-1.1,2-1.1c1.2,0,2.2,0.8,2.2,2.8V80h-1.7v-4
				c0-0.9-0.3-1.6-1.1-1.6c-0.6,0-1,0.4-1.2,1c-0.1,0.1-0.1,0.4-0.1,0.6v4h-1.7v-4.9H94.9z"/>
			<path class="st3" d="M108,73.1c0,0.5-0.1,1.1-0.1,2V79c0,1.5-0.3,2.4-0.9,3s-1.5,0.8-2.5,0.8c-0.8,0-1.6-0.2-2.1-0.5l0.4-1.3
				c0.4,0.2,1,0.5,1.8,0.5c1.1,0,1.8-0.6,1.8-2V79l0,0c-0.3,0.6-1,0.9-1.8,0.9c-1.6,0-2.6-1.4-2.6-3.3c0-2.3,1.3-3.6,2.8-3.6
				c0.9,0,1.5,0.5,1.8,1l0,0l0.1-0.9H108z M106.3,75.8c0-0.2,0-0.3-0.1-0.5c-0.2-0.6-0.6-1-1.2-1c-0.9,0-1.5,0.9-1.5,2.2
				c0,1.3,0.5,2.1,1.5,2.1c0.5,0,1-0.3,1.2-0.9c0.1-0.2,0.1-0.4,0.1-0.6V75.8z"/>
			<path class="st3" d="M51,99l-2.8-9.4H50l1.1,4.3c0.3,1.1,0.6,2.3,0.8,3.4l0,0c0.2-1.1,0.5-2.3,0.8-3.4l1.2-4.3h1.8L52.8,99H51z"
				/>
			<path class="st3" d="M62.6,95.5c0,2.6-1.7,3.6-3.2,3.6c-1.8,0-3.1-1.3-3.1-3.5c0-2.3,1.4-3.6,3.2-3.6
				C61.4,92,62.6,93.4,62.6,95.5z M58,95.6c0,1.3,0.5,2.3,1.5,2.3c0.9,0,1.4-1.1,1.4-2.3c0-1-0.4-2.3-1.4-2.3
				C58.4,93.2,58,94.5,58,95.6z"/>
			<path class="st3" d="M63.9,94.3c0-0.8,0-1.5-0.1-2.1h1.4l0.1,1.2l0,0c0.3-0.9,1-1.4,1.7-1.4c0.2,0,0.3,0,0.4,0v1.6
				c-0.1,0-0.3,0-0.4,0c-0.7,0-1.3,0.5-1.4,1.3c0,0.2,0,0.4,0,0.6V99h-1.7C63.9,99,63.9,94.3,63.9,94.3z"/>
			<path class="st3" d="M68.6,94.1c0-0.8,0-1.4-0.1-2h1.4L70,93l0,0c0.4-0.4,1-1,2-1c0.8,0,1.5,0.5,1.8,1.2l0,0
				c0.2-0.4,0.5-0.6,0.8-0.8c0.4-0.2,0.8-0.4,1.3-0.4c1.1,0,2.1,0.8,2.1,2.8V99h-1.6v-3.9c0-1-0.3-1.7-1.1-1.7
				c-0.5,0-0.9,0.4-1.1,0.9c0,0.2-0.1,0.4-0.1,0.6V99h-1.6v-4.1c0-0.9-0.3-1.5-1.1-1.5c-0.6,0-1,0.4-1.1,0.9
				c-0.1,0.2-0.1,0.4-0.1,0.6V99h-1.6L68.6,94.1L68.6,94.1z"/>
			<path class="st3" d="M85.4,92.1c0,0.5-0.1,1.1-0.1,2V98c0,1.5-0.3,2.4-0.9,3s-1.5,0.8-2.5,0.8c-0.8,0-1.6-0.2-2.1-0.5l0.4-1.3
				c0.4,0.2,1,0.5,1.8,0.5c1.1,0,1.8-0.6,1.8-2V98l0,0c-0.3,0.6-1,0.9-1.8,0.9c-1.6,0-2.6-1.4-2.6-3.3c0-2.3,1.3-3.6,2.8-3.6
				c0.9,0,1.5,0.5,1.8,1l0,0l0.1-0.9H85.4z M83.7,94.8c0-0.2,0-0.3-0.1-0.5c-0.2-0.6-0.6-1-1.2-1c-0.9,0-1.5,0.9-1.5,2.2
				c0,1.3,0.5,2.1,1.5,2.1c0.5,0,1-0.3,1.2-0.9c0.1-0.2,0.1-0.4,0.1-0.6V94.8z"/>
			<path class="st3" d="M88.2,96c0,1.3,0.9,1.8,1.9,1.8c0.7,0,1.2-0.1,1.7-0.3l0.2,1.2c-0.5,0.2-1.3,0.4-2.2,0.4
				c-2.1,0-3.3-1.3-3.3-3.4c0-2,1.1-3.7,3.1-3.7s2.7,1.7,2.7,3.3c0,0.3,0,0.6-0.1,0.7H88.2z M90.9,94.8c0-0.8-0.3-1.7-1.3-1.7
				c-0.9,0-1.3,1-1.4,1.7H90.9z"/>
			<path class="st3" d="M94.8,92.1l1,3.4c0.2,0.6,0.3,1.1,0.4,1.7l0,0c0.1-0.6,0.2-1.1,0.4-1.7l1-3.4h1.7L96.9,99h-1.6L93,92.1H94.8
				z"/>
			<path class="st3" d="M102,90.3c0,0.5-0.4,0.9-0.9,0.9s-0.9-0.4-0.9-0.9s0.4-0.9,0.9-0.9C101.7,89.4,102,89.7,102,90.3z M100.3,99
				v-6.8h1.7V99H100.3z"/>
			<path class="st3" d="M103.7,94.1c0-0.8,0-1.4-0.1-2h1.4l0.1,1l0,0c0.3-0.5,1-1.1,2-1.1c1.2,0,2.2,0.8,2.2,2.8V99h-1.7v-4
				c0-0.9-0.3-1.6-1.1-1.6c-0.6,0-1,0.4-1.2,1c-0.1,0.1-0.1,0.4-0.1,0.6v4h-1.7v-4.9H103.7z"/>
			<path class="st3" d="M116.8,92.1c0,0.5-0.1,1.1-0.1,2V98c0,1.5-0.3,2.4-0.9,3s-1.5,0.8-2.5,0.8c-0.8,0-1.6-0.2-2.1-0.5l0.4-1.3
				c0.4,0.2,1,0.5,1.8,0.5c1.1,0,1.8-0.6,1.8-2V98l0,0c-0.3,0.6-1,0.9-1.8,0.9c-1.6,0-2.6-1.4-2.6-3.3c0-2.3,1.3-3.6,2.8-3.6
				c0.9,0,1.5,0.5,1.8,1l0,0l0.1-0.9H116.8z M115.1,94.8c0-0.2,0-0.3-0.1-0.5c-0.2-0.6-0.6-1-1.2-1c-0.9,0-1.5,0.9-1.5,2.2
				c0,1.3,0.5,2.1,1.5,2.1c0.5,0,1-0.3,1.2-0.9c0.1-0.2,0.1-0.4,0.1-0.6V94.8z"/>
			<path class="st3" d="M55.2,117.7c-0.4,0.2-1.1,0.4-2.1,0.4c-2.7,0-4.4-1.8-4.4-4.7c0-3.3,2.1-5,4.6-5c1,0,1.7,0.2,2,0.4l-0.3,1.3
				c-0.4-0.2-0.9-0.3-1.6-0.3c-1.7,0-2.9,1.1-2.9,3.5c0,2.2,1.1,3.4,2.9,3.4c0.6,0,1.2-0.1,1.6-0.3L55.2,117.7z"/>
			<path class="st3" d="M62.4,114.5c0,2.6-1.7,3.6-3.2,3.6c-1.8,0-3.1-1.3-3.1-3.5c0-2.3,1.4-3.6,3.2-3.6
				C61.1,111,62.4,112.4,62.4,114.5z M57.8,114.6c0,1.3,0.5,2.3,1.5,2.3c0.9,0,1.4-1.1,1.4-2.3c0-1-0.4-2.3-1.4-2.3
				C58.2,112.2,57.8,113.5,57.8,114.6z"/>
			<path class="st3" d="M63.7,113.4c0-0.9,0-1.6-0.1-2.2h1.5l0.1,1l0,0c0.4-0.7,1.2-1.1,2.1-1.1c1.5,0,2.6,1.4,2.6,3.5
				c0,2.5-1.4,3.6-2.8,3.6c-0.8,0-1.4-0.4-1.7-0.9l0,0v3.5h-1.7V113.4z M65.4,115.2c0,0.2,0,0.4,0.1,0.5c0.2,0.7,0.7,1.1,1.3,1.1
				c1,0,1.5-1,1.5-2.3s-0.5-2.2-1.5-2.2c-0.6,0-1.2,0.5-1.3,1.2c0,0.1-0.1,0.3-0.1,0.5V115.2z"/>
			<path class="st3" d="M72.3,111.1l1.1,3.7c0.1,0.4,0.2,0.9,0.3,1.3l0,0c0.1-0.4,0.2-0.9,0.3-1.3l0.9-3.7h1.7l-1.6,4.7
				c-0.8,2.2-1.3,3.5-2.1,4.2c-0.6,0.6-1.3,0.9-1.7,0.9l-0.4-1.4c0.3-0.1,0.6-0.3,1-0.5c0.3-0.2,0.6-0.6,0.8-1
				c0.1-0.1,0.1-0.2,0.1-0.3c0-0.1,0-0.2-0.1-0.3l-2.3-6.3L72.3,111.1L72.3,111.1z"/>
			<path class="st3" d="M78.7,111.1l0.6,3.1c0.1,0.7,0.3,1.5,0.4,2.2l0,0c0.1-0.7,0.3-1.5,0.5-2.2l0.8-3.1h1.3l0.8,3
				c0.2,0.8,0.4,1.5,0.5,2.2l0,0c0.1-0.7,0.2-1.5,0.4-2.2l0.7-3h1.6l-2,6.8H83l-0.8-2.8c-0.2-0.7-0.3-1.3-0.5-2.2l0,0
				c-0.1,0.8-0.3,1.5-0.5,2.2l-0.8,2.8h-1.5l-1.9-6.8H78.7z"/>
			<path class="st3" d="M87.5,113.3c0-0.8,0-1.5-0.1-2.1h1.4l0.1,1.2l0,0c0.3-0.9,1-1.4,1.7-1.4c0.2,0,0.3,0,0.4,0v1.6
				c-0.1,0-0.3,0-0.4,0c-0.7,0-1.3,0.5-1.4,1.3c0,0.2,0,0.4,0,0.6v3.6h-1.7V113.3z"/>
			<path class="st3" d="M93.9,109.3c0,0.5-0.4,0.9-0.9,0.9s-0.9-0.4-0.9-0.9s0.4-0.9,0.9-0.9S93.9,108.7,93.9,109.3z M92.2,118v-6.8
				h1.7v6.8H92.2z"/>
			<path class="st3" d="M97.4,109.2v1.9H99v1.2h-1.5v3.2c0,0.8,0.3,1.2,0.8,1.2c0.3,0,0.5,0,0.6-0.1v1.3c-0.2,0.1-0.7,0.2-1.2,0.2
				c-0.6,0-1.1-0.2-1.4-0.5c-0.4-0.4-0.5-1-0.5-1.9v-3.3h-0.9v-1.2h0.9v-1.5L97.4,109.2z"/>
			<path class="st3" d="M101.9,109.3c0,0.5-0.4,0.9-0.9,0.9s-0.9-0.4-0.9-0.9s0.4-0.9,0.9-0.9S101.9,108.7,101.9,109.3z M100.2,118
				v-6.8h1.7v6.8H100.2z"/>
			<path class="st3" d="M103.5,113.1c0-0.8,0-1.4-0.1-2h1.4l0.1,1l0,0c0.3-0.5,1-1.1,2-1.1c1.2,0,2.2,0.8,2.2,2.8v4.2h-1.7v-4
				c0-0.9-0.3-1.6-1.1-1.6c-0.6,0-1,0.4-1.2,1c-0.1,0.1-0.1,0.4-0.1,0.6v4.1h-1.7v-5H103.5z"/>
			<path class="st3" d="M116.7,111.1c0,0.5-0.1,1.1-0.1,2v3.9c0,1.5-0.3,2.4-0.9,3s-1.5,0.8-2.5,0.8c-0.8,0-1.6-0.2-2.1-0.5l0.4-1.3
				c0.4,0.2,1,0.5,1.8,0.5c1.1,0,1.8-0.6,1.8-2V117l0,0c-0.3,0.6-1,0.9-1.8,0.9c-1.6,0-2.6-1.4-2.6-3.3c0-2.3,1.3-3.6,2.8-3.6
				c0.9,0,1.5,0.5,1.8,1l0,0l0.1-0.9H116.7z M115,113.8c0-0.2,0-0.3-0.1-0.5c-0.2-0.6-0.6-1-1.2-1c-0.9,0-1.5,0.9-1.5,2.2
				c0,1.3,0.5,2.1,1.5,2.1c0.5,0,1-0.3,1.2-0.9c0.1-0.2,0.1-0.4,0.1-0.6V113.8z"/>
			<path class="st3" d="M42.1,137l-2.8-9.4h1.8l1.1,4.3c0.3,1.1,0.6,2.3,0.8,3.4l0,0c0.2-1.1,0.5-2.3,0.8-3.4l1.2-4.3h1.8L44,137
				H42.1z"/>
			<path class="st3" d="M49.6,128.3c0,0.5-0.4,0.9-0.9,0.9s-0.9-0.4-0.9-0.9s0.4-0.9,0.9-0.9C49.2,127.4,49.6,127.7,49.6,128.3z
				 M47.8,137v-6.8h1.7v6.8H47.8z"/>
			<path class="st3" d="M57,127.1v8c0,0.7,0,1.4,0.1,1.9h-1.5l-0.1-1l0,0c-0.4,0.7-1.1,1.1-2,1.1c-1.5,0-2.7-1.4-2.7-3.5
				c0-2.3,1.3-3.6,2.8-3.6c0.8,0,1.4,0.4,1.7,0.8l0,0V127L57,127.1L57,127.1z M55.3,132.9c0-0.1,0-0.3,0-0.4
				c-0.1-0.6-0.6-1.2-1.3-1.2c-1,0-1.5,1-1.5,2.3s0.5,2.2,1.5,2.2c0.6,0,1.1-0.4,1.3-1.1c0-0.1,0.1-0.3,0.1-0.5L55.3,132.9
				L55.3,132.9z"/>
			<path class="st3" d="M59.9,134c0,1.3,0.9,1.8,1.9,1.8c0.7,0,1.2-0.1,1.7-0.3l0.2,1.2c-0.5,0.2-1.3,0.4-2.2,0.4
				c-2.1,0-3.3-1.3-3.3-3.4c0-2,1.1-3.7,3.1-3.7s2.7,1.7,2.7,3.3c0,0.3,0,0.6-0.1,0.7H59.9z M62.6,132.8c0-0.8-0.3-1.7-1.3-1.7
				c-0.9,0-1.3,1-1.4,1.7H62.6z"/>
			<path class="st3" d="M71.3,133.5c0,2.6-1.7,3.6-3.2,3.6c-1.8,0-3.1-1.3-3.1-3.5c0-2.3,1.4-3.6,3.2-3.6
				C70.1,130,71.3,131.4,71.3,133.5z M66.7,133.6c0,1.3,0.5,2.3,1.5,2.3c0.9,0,1.4-1.1,1.4-2.3c0-1-0.4-2.3-1.4-2.3
				C67.1,131.2,66.7,132.5,66.7,133.6z"/>
			<path class="st3" d="M72.6,132.4c0-0.9,0-1.6-0.1-2.2H74l0.1,1l0,0c0.4-0.7,1.2-1.1,2.1-1.1c1.5,0,2.6,1.4,2.6,3.5
				c0,2.5-1.4,3.6-2.8,3.6c-0.8,0-1.4-0.4-1.7-0.9l0,0v3.5h-1.7V132.4z M74.3,134.2c0,0.2,0,0.4,0.1,0.5c0.2,0.7,0.7,1.1,1.3,1.1
				c1,0,1.5-1,1.5-2.3s-0.5-2.2-1.5-2.2c-0.6,0-1.2,0.5-1.3,1.2c0,0.1-0.1,0.3-0.1,0.5V134.2z"/>
			<path class="st3" d="M80.2,132.3c0-0.8,0-1.5-0.1-2.1h1.4l0.1,1.2l0,0c0.3-0.9,1-1.4,1.7-1.4c0.2,0,0.3,0,0.4,0v1.6
				c-0.1,0-0.3,0-0.4,0c-0.7,0-1.3,0.5-1.4,1.3c0,0.2,0,0.4,0,0.6v3.6h-1.7V132.3z"/>
			<path class="st3" d="M90.7,133.5c0,2.6-1.7,3.6-3.2,3.6c-1.8,0-3.1-1.3-3.1-3.5c0-2.3,1.4-3.6,3.2-3.6
				C89.5,130,90.7,131.4,90.7,133.5z M86.1,133.6c0,1.3,0.5,2.3,1.5,2.3c0.9,0,1.4-1.1,1.4-2.3c0-1-0.4-2.3-1.4-2.3
				C86.5,131.2,86.1,132.5,86.1,133.6z"/>
			<path class="st3" d="M97.8,127.1v8c0,0.7,0,1.4,0.1,1.9h-1.5l-0.1-1l0,0c-0.4,0.7-1.1,1.1-2,1.1c-1.5,0-2.7-1.4-2.7-3.5
				c0-2.3,1.3-3.6,2.8-3.6c0.8,0,1.4,0.4,1.7,0.8l0,0V127L97.8,127.1L97.8,127.1z M96.2,132.9c0-0.1,0-0.3,0-0.4
				c-0.1-0.6-0.6-1.2-1.3-1.2c-1,0-1.5,1-1.5,2.3s0.5,2.2,1.5,2.2c0.6,0,1.1-0.4,1.3-1.1c0-0.1,0.1-0.3,0.1-0.5L96.2,132.9
				L96.2,132.9z"/>
			<path class="st3" d="M105.2,134.9c0,0.8,0,1.5,0.1,2h-1.4l-0.1-0.9l0,0c-0.3,0.5-0.9,1.1-2,1.1c-1.2,0-2.2-0.8-2.2-2.9v-4.1h1.7
				v3.8c0,1.1,0.3,1.8,1.1,1.8c0.6,0,1-0.5,1.2-0.8c0.1-0.2,0.1-0.3,0.1-0.6v-4.2h1.7v4.8L105.2,134.9L105.2,134.9z"/>
			<path class="st3" d="M111.5,136.8c-0.3,0.2-0.9,0.3-1.7,0.3c-2,0-3.3-1.3-3.3-3.5c0-2,1.3-3.6,3.5-3.6c0.6,0,1.1,0.1,1.5,0.3
				l-0.3,1.3c-0.2-0.1-0.6-0.2-1.1-0.2c-1.2,0-1.9,1-1.9,2.2c0,1.4,0.8,2.2,1.9,2.2c0.5,0,0.9-0.1,1.2-0.2L111.5,136.8z"/>
			<path class="st3" d="M114.5,128.2v1.9h1.5v1.2h-1.5v3.2c0,0.8,0.3,1.2,0.8,1.2c0.3,0,0.5,0,0.6-0.1v1.3c-0.2,0.1-0.7,0.2-1.2,0.2
				c-0.6,0-1.1-0.2-1.4-0.5c-0.4-0.4-0.5-1-0.5-1.9v-3.3H112v-1.2h0.9v-1.5L114.5,128.2z"/>
			<path class="st3" d="M119,128.3c0,0.5-0.4,0.9-0.9,0.9s-0.9-0.4-0.9-0.9s0.4-0.9,0.9-0.9S119,127.7,119,128.3z M117.3,137v-6.8
				h1.7v6.8H117.3z"/>
			<path class="st3" d="M121.8,134c0,1.3,0.9,1.8,1.9,1.8c0.7,0,1.2-0.1,1.7-0.3l0.2,1.2c-0.5,0.2-1.3,0.4-2.2,0.4
				c-2.1,0-3.3-1.3-3.3-3.4c0-2,1.1-3.7,3.1-3.7s2.7,1.7,2.7,3.3c0,0.3,0,0.6-0.1,0.7H121.8z M124.5,132.8c0-0.8-0.3-1.7-1.3-1.7
				c-0.9,0-1.3,1-1.4,1.7H124.5z"/>
			<path class="st3" d="M54.6,146.5h5v1.4h-3.3v2.7h3.1v1.4h-3.1v4h-1.7V146.5z"/>
			<path class="st3" d="M67,152.5c0,2.6-1.7,3.6-3.2,3.6c-1.8,0-3.1-1.3-3.1-3.5c0-2.3,1.4-3.6,3.2-3.6C65.7,149,67,150.4,67,152.5z
				 M62.3,152.6c0,1.3,0.5,2.3,1.5,2.3c0.9,0,1.4-1.1,1.4-2.3c0-1-0.4-2.3-1.4-2.3C62.7,150.2,62.3,151.5,62.3,152.6z"/>
			<path class="st3" d="M70.2,147.2v1.9h1.5v1.2h-1.5v3.2c0,0.8,0.3,1.2,0.8,1.2c0.3,0,0.5,0,0.6-0.1v1.3c-0.2,0.1-0.7,0.2-1.2,0.2
				c-0.6,0-1.1-0.2-1.4-0.5c-0.4-0.4-0.5-1-0.5-1.9v-3.3h-0.9v-1.2h0.9v-1.5L70.2,147.2z"/>
			<path class="st3" d="M78.8,152.5c0,2.6-1.7,3.6-3.2,3.6c-1.8,0-3.1-1.3-3.1-3.5c0-2.3,1.4-3.6,3.2-3.6
				C77.6,149,78.8,150.4,78.8,152.5z M74.2,152.6c0,1.3,0.5,2.3,1.5,2.3c0.9,0,1.4-1.1,1.4-2.3c0-1-0.4-2.3-1.4-2.3
				C74.6,150.2,74.2,151.5,74.2,152.6z"/>
			<path class="st3" d="M85.9,149.1c0,0.5-0.1,1.1-0.1,2v3.9c0,1.5-0.3,2.4-0.9,3s-1.5,0.8-2.5,0.8c-0.8,0-1.6-0.2-2.1-0.5l0.4-1.3
				c0.4,0.2,1,0.5,1.8,0.5c1.1,0,1.8-0.6,1.8-2V155l0,0c-0.3,0.6-1,0.9-1.8,0.9c-1.6,0-2.6-1.4-2.6-3.3c0-2.3,1.3-3.6,2.8-3.6
				c0.9,0,1.5,0.5,1.8,1l0,0l0.1-0.9L85.9,149.1L85.9,149.1z M84.2,151.8c0-0.2,0-0.3-0.1-0.5c-0.2-0.6-0.6-1-1.2-1
				c-0.9,0-1.5,0.9-1.5,2.2s0.5,2.1,1.5,2.1c0.5,0,1-0.3,1.2-0.9c0.1-0.2,0.1-0.4,0.1-0.6V151.8z"/>
			<path class="st3" d="M87.6,151.3c0-0.8,0-1.5-0.1-2.1H89l0.1,1.2l0,0c0.3-0.9,1-1.4,1.7-1.4c0.2,0,0.3,0,0.4,0v1.6
				c-0.1,0-0.3,0-0.4,0c-0.7,0-1.3,0.5-1.4,1.3c0,0.2,0,0.4,0,0.6v3.6h-1.7L87.6,151.3L87.6,151.3z"/>
			<path class="st3" d="M95.8,156l-0.1-0.7l0,0c-0.4,0.5-1,0.9-1.8,0.9c-1.3,0-2-0.9-2-2c0-1.7,1.5-2.6,3.7-2.6v-0.1
				c0-0.5-0.2-1.2-1.3-1.2c-0.6,0-1.2,0.2-1.7,0.5l-0.3-1.1c0.5-0.3,1.3-0.6,2.3-0.6c2.1,0,2.6,1.3,2.6,2.8v2.5c0,0.6,0,1.2,0.1,1.6
				L95.8,156L95.8,156z M95.5,152.6c-1,0-2.2,0.2-2.2,1.3c0,0.7,0.4,1,0.9,1c0.6,0,1-0.4,1.2-0.9c0-0.1,0-0.2,0-0.4L95.5,152.6
				L95.5,152.6z"/>
			<path class="st3" d="M99.1,156v-5.6h-0.9v-1.2h0.9v-0.3c0-1.6,1.1-2.8,3.1-2.8c0.7,0,1.4,0.2,1.8,0.4l-0.3,1.3
				c-0.3-0.2-0.8-0.3-1.4-0.3c-1.2,0-1.5,0.7-1.5,1.6v0.3h3.8v6.8h-1.7v-5.6h-2.2v5.6h-1.6C99.1,156.2,99.1,156,99.1,156z"/>
			<path class="st3" d="M107.4,153c0,1.3,0.9,1.8,1.9,1.8c0.7,0,1.2-0.1,1.7-0.3l0.2,1.2c-0.5,0.2-1.3,0.4-2.2,0.4
				c-2.1,0-3.3-1.3-3.3-3.4c0-2,1.1-3.7,3.1-3.7s2.7,1.7,2.7,3.3c0,0.3,0,0.6-0.1,0.7H107.4z M110.1,151.8c0-0.8-0.3-1.7-1.3-1.7
				c-0.9,0-1.3,1-1.4,1.7H110.1z"/>
		</g>
	</g>
</g>
<g>
	<g>
		<g>
			<path class="st3" d="M293,75.1c0,3.3-1.7,5-4,5c-2.4,0-3.9-2-3.9-4.8c0-2.9,1.6-4.9,4-4.9C291.6,70.4,293,72.5,293,75.1z
				 M286.8,75.3c0,2,0.8,3.5,2.2,3.5c1.5,0,2.2-1.6,2.2-3.5c0-1.8-0.7-3.5-2.2-3.5C287.6,71.7,286.8,73.3,286.8,75.3z"/>
			<path class="st3" d="M294.3,75.1c0-0.8,0-1.4-0.1-2h1.4l0.1,1l0,0c0.3-0.5,1-1.1,2-1.1c1.2,0,2.2,0.8,2.2,2.8V80h-1.7v-4
				c0-0.9-0.3-1.6-1.1-1.6c-0.6,0-1,0.4-1.2,1c-0.1,0.1-0.1,0.4-0.1,0.6v4h-1.7v-4.9H294.3z"/>
			<path class="st3" d="M301.8,70.1h1.7V80h-1.7V70.1z"/>
			<path class="st3" d="M306.9,71.3c0,0.5-0.4,0.9-0.9,0.9s-0.9-0.4-0.9-0.9s0.4-0.9,0.9-0.9S306.9,70.7,306.9,71.3z M305.2,80v-6.8
				h1.7V80H305.2z"/>
			<path class="st3" d="M308.5,75.1c0-0.8,0-1.4-0.1-2h1.4l0.1,1l0,0c0.3-0.5,1-1.1,2-1.1c1.2,0,2.2,0.8,2.2,2.8V80h-1.7v-4
				c0-0.9-0.3-1.6-1.1-1.6c-0.6,0-1,0.4-1.2,1c0,0.1-0.1,0.4-0.1,0.6v4h-1.7v-4.9H308.5z"/>
			<path class="st3" d="M317.2,77c0,1.3,0.9,1.8,1.9,1.8c0.7,0,1.2-0.1,1.7-0.3l0.2,1.2c-0.5,0.2-1.3,0.4-2.2,0.4
				c-2.1,0-3.3-1.3-3.3-3.4c0-2,1.1-3.7,3.1-3.7s2.7,1.7,2.7,3.3c0,0.3,0,0.6-0.1,0.7H317.2z M319.8,75.8c0-0.8-0.3-1.7-1.3-1.7
				c-0.9,0-1.3,1-1.4,1.7H319.8z"/>
			<path class="st3" d="M332.7,76.2c-0.1-1.2-0.1-2.6-0.1-3.8l0,0c-0.3,1.1-0.6,2.4-1,3.5l-1.3,4h-1.2l-1.2-3.9
				c-0.3-1.1-0.6-2.4-0.9-3.5l0,0c0,1.2-0.1,2.6-0.2,3.9l-0.2,3.7h-1.5l0.6-9.4h2.1l1.1,3.8c0.3,1.1,0.6,2.2,0.8,3.3l0,0
				c0.2-1,0.5-2.1,0.9-3.3l1.2-3.8h2l0.5,9.4h-1.6L332.7,76.2z"/>
			<path class="st3" d="M339.6,80l-0.1-0.7l0,0c-0.4,0.5-1,0.9-1.8,0.9c-1.3,0-2-0.9-2-2c0-1.7,1.5-2.6,3.7-2.6v-0.1
				c0-0.5-0.2-1.2-1.3-1.2c-0.6,0-1.2,0.2-1.7,0.5l-0.3-1.1c0.5-0.3,1.3-0.6,2.3-0.6c2.1,0,2.6,1.3,2.6,2.8v2.5c0,0.6,0,1.2,0.1,1.6
				L339.6,80L339.6,80z M339.4,76.6c-1,0-2.2,0.2-2.2,1.3c0,0.7,0.4,1,0.9,1c0.6,0,1-0.4,1.2-0.9c0-0.1,0-0.2,0-0.4v-1H339.4z"/>
			<path class="st3" d="M342.7,75.3c0-0.8,0-1.5-0.1-2.1h1.4l0.1,1.2l0,0c0.3-0.9,1-1.4,1.7-1.4c0.2,0,0.3,0,0.4,0v1.6
				c-0.1,0-0.3,0-0.4,0c-0.7,0-1.3,0.5-1.4,1.3c0,0.2,0,0.4,0,0.6V80h-1.7V75.3z"/>
			<path class="st3" d="M349,76.2L349,76.2c0.2-0.3,0.4-0.6,0.5-0.8l1.5-2.2h1.9l-2.3,2.8l2.6,4h-2l-1.7-3l-0.5,0.7V80h-1.7v-9.9
				h1.7V76.2z"/>
			<path class="st3" d="M355.1,77c0,1.3,0.9,1.8,1.9,1.8c0.7,0,1.2-0.1,1.7-0.3l0.2,1.2c-0.5,0.2-1.3,0.4-2.2,0.4
				c-2.1,0-3.3-1.3-3.3-3.4c0-2,1.1-3.7,3.1-3.7s2.7,1.7,2.7,3.3c0,0.3,0,0.6-0.1,0.7H355.1z M357.8,75.8c0-0.8-0.3-1.7-1.3-1.7
				c-0.9,0-1.3,1-1.4,1.7H357.8z"/>
			<path class="st3" d="M362.6,71.2v1.9h1.5v1.2h-1.5v3.2c0,0.8,0.3,1.2,0.8,1.2c0.3,0,0.5,0,0.6-0.1v1.3c-0.2,0.1-0.7,0.2-1.2,0.2
				c-0.6,0-1.1-0.2-1.4-0.5c-0.4-0.4-0.5-1-0.5-1.9v-3.3H360v-1.2h0.9v-1.5L362.6,71.2z"/>
			<path class="st3" d="M367,71.3c0,0.5-0.4,0.9-0.9,0.9s-0.9-0.4-0.9-0.9s0.4-0.9,0.9-0.9S367,70.7,367,71.3z M365.3,80v-6.8h1.7
				V80H365.3z"/>
			<path class="st3" d="M368.6,75.1c0-0.8,0-1.4-0.1-2h1.4l0.1,1l0,0c0.3-0.5,1-1.1,2-1.1c1.2,0,2.2,0.8,2.2,2.8V80h-1.7v-4
				c0-0.9-0.3-1.6-1.1-1.6c-0.6,0-1,0.4-1.2,1c-0.1,0.1-0.1,0.4-0.1,0.6v4h-1.7v-4.9H368.6z"/>
			<path class="st3" d="M381.8,73.1c0,0.5-0.1,1.1-0.1,2V79c0,1.5-0.3,2.4-0.9,3s-1.5,0.8-2.5,0.8c-0.8,0-1.6-0.2-2.1-0.5l0.4-1.3
				c0.4,0.2,1,0.5,1.8,0.5c1.1,0,1.8-0.6,1.8-2V79l0,0c-0.3,0.6-1,0.9-1.8,0.9c-1.6,0-2.6-1.4-2.6-3.3c0-2.3,1.3-3.6,2.8-3.6
				c0.9,0,1.5,0.5,1.8,1l0,0l0.1-0.9H381.8z M380.1,75.8c0-0.2,0-0.3-0.1-0.5c-0.2-0.6-0.6-1-1.2-1c-0.9,0-1.5,0.9-1.5,2.2
				c0,1.3,0.5,2.1,1.5,2.1c0.5,0,1-0.3,1.2-0.9c0.1-0.2,0.1-0.4,0.1-0.6V75.8z"/>
			<path class="st3" d="M299.1,97.2c0.5,0.3,1.3,0.5,2,0.5c1,0,1.6-0.5,1.6-1.3c0-0.7-0.5-1.2-1.5-1.6c-1.4-0.6-2.3-1.5-2.3-2.7
				c0-1.5,1.2-2.7,3.2-2.7c0.9,0,1.6,0.2,2,0.4l-0.4,1.4c-0.3-0.2-0.9-0.4-1.7-0.4c-1,0-1.5,0.6-1.5,1.1c0,0.7,0.5,1.1,1.7,1.6
				c1.5,0.7,2.2,1.5,2.2,2.8c0,1.6-1.2,2.8-3.4,2.8c-0.9,0-1.9-0.3-2.3-0.5L299.1,97.2z"/>
			<path class="st3" d="M311.7,95.5c0,2.6-1.7,3.6-3.2,3.6c-1.8,0-3.1-1.3-3.1-3.5c0-2.3,1.4-3.6,3.2-3.6
				C310.5,92,311.7,93.4,311.7,95.5z M307.1,95.6c0,1.3,0.5,2.3,1.5,2.3c0.9,0,1.4-1.1,1.4-2.3c0-1-0.4-2.3-1.4-2.3
				C307.5,93.2,307.1,94.5,307.1,95.6z"/>
			<path class="st3" d="M317.6,98.8c-0.3,0.2-0.9,0.3-1.7,0.3c-2,0-3.3-1.3-3.3-3.5c0-2,1.3-3.6,3.5-3.6c0.6,0,1.1,0.1,1.5,0.3
				l-0.3,1.3c-0.2-0.1-0.6-0.2-1.1-0.2c-1.2,0-1.9,1-1.9,2.2c0,1.4,0.8,2.2,1.9,2.2c0.5,0,0.9-0.1,1.2-0.2L317.6,98.8z"/>
			<path class="st3" d="M320.5,90.3c0,0.5-0.4,0.9-0.9,0.9s-0.9-0.4-0.9-0.9s0.4-0.9,0.9-0.9C320.2,89.4,320.5,89.7,320.5,90.3z
				 M318.8,99v-6.8h1.7V99H318.8z"/>
			<path class="st3" d="M325.7,99l-0.1-0.7l0,0c-0.4,0.5-1,0.9-1.8,0.9c-1.3,0-2-0.9-2-2c0-1.7,1.5-2.6,3.7-2.6v-0.1
				c0-0.5-0.2-1.2-1.3-1.2c-0.6,0-1.2,0.2-1.7,0.5l-0.3-1.1c0.5-0.3,1.3-0.6,2.3-0.6c2.1,0,2.6,1.3,2.6,2.8v2.5c0,0.6,0,1.2,0.1,1.6
				L325.7,99L325.7,99z M325.5,95.6c-1,0-2.2,0.2-2.2,1.3c0,0.7,0.4,1,0.9,1c0.6,0,1-0.4,1.2-0.9c0-0.1,0-0.2,0-0.4v-1H325.5z"/>
			<path class="st3" d="M328.8,89.1h1.7V99h-1.7V89.1z"/>
			<path class="st3" d="M342.3,95.2c-0.1-1.2-0.1-2.6-0.1-3.8l0,0c-0.3,1.1-0.6,2.4-1,3.5l-1.3,4h-1.2l-1.2-3.9
				c-0.3-1.1-0.6-2.4-0.9-3.5l0,0c0,1.2-0.1,2.6-0.2,3.9l-0.2,3.7h-1.5l0.6-9.4h2.1l1.1,3.8c0.3,1.1,0.6,2.2,0.8,3.3l0,0
				c0.2-1,0.5-2.1,0.9-3.3l1.2-3.8h2L344,99h-1.6L342.3,95.2z"/>
			<path class="st3" d="M346.8,96c0,1.3,0.9,1.8,1.9,1.8c0.7,0,1.2-0.1,1.7-0.3l0.2,1.2c-0.5,0.2-1.3,0.4-2.2,0.4
				c-2.1,0-3.3-1.3-3.3-3.4c0-2,1.1-3.7,3.1-3.7s2.7,1.7,2.7,3.3c0,0.3,0,0.6-0.1,0.7H346.8z M349.5,94.8c0-0.8-0.3-1.7-1.3-1.7
				c-0.9,0-1.3,1-1.4,1.7H349.5z"/>
			<path class="st3" d="M358.1,89.1v8c0,0.7,0,1.4,0.1,1.9h-1.5l-0.1-1l0,0c-0.4,0.7-1.1,1.1-2,1.1c-1.5,0-2.7-1.4-2.7-3.5
				c0-2.3,1.3-3.6,2.8-3.6c0.8,0,1.4,0.4,1.7,0.8l0,0V89L358.1,89.1L358.1,89.1z M356.4,94.9c0-0.1,0-0.3,0-0.4
				c-0.1-0.6-0.6-1.2-1.3-1.2c-1,0-1.5,1-1.5,2.3s0.5,2.2,1.5,2.2c0.6,0,1.1-0.4,1.3-1.1c0-0.1,0.1-0.3,0.1-0.5v-1.3H356.4z"/>
			<path class="st3" d="M361.5,90.3c0,0.5-0.4,0.9-0.9,0.9s-0.9-0.4-0.9-0.9s0.4-0.9,0.9-0.9C361.2,89.4,361.5,89.7,361.5,90.3z
				 M359.8,99v-6.8h1.7V99H359.8z"/>
			<path class="st3" d="M366.7,99l-0.1-0.7l0,0c-0.4,0.5-1,0.9-1.8,0.9c-1.3,0-2-0.9-2-2c0-1.7,1.5-2.6,3.7-2.6v-0.1
				c0-0.5-0.2-1.2-1.3-1.2c-0.6,0-1.2,0.2-1.7,0.5l-0.3-1.1c0.5-0.3,1.3-0.6,2.3-0.6c2.1,0,2.6,1.3,2.6,2.8v2.5c0,0.6,0,1.2,0.1,1.6
				L366.7,99L366.7,99z M366.5,95.6c-1,0-2.2,0.2-2.2,1.3c0,0.7,0.4,1,0.9,1c0.6,0,1-0.4,1.2-0.9c0-0.1,0-0.2,0-0.4v-1H366.5z"/>
			<path class="st3" d="M309.9,116.2c0.5,0.3,1.3,0.5,2,0.5c1,0,1.6-0.5,1.6-1.3c0-0.7-0.5-1.2-1.5-1.6c-1.4-0.6-2.3-1.5-2.3-2.7
				c0-1.5,1.2-2.7,3.2-2.7c0.9,0,1.6,0.2,2,0.4l-0.4,1.4c-0.3-0.2-0.9-0.4-1.7-0.4c-1,0-1.5,0.6-1.5,1.1c0,0.7,0.5,1.1,1.7,1.6
				c1.5,0.7,2.2,1.5,2.2,2.8c0,1.6-1.2,2.8-3.4,2.8c-0.9,0-1.9-0.3-2.3-0.5L309.9,116.2z"/>
			<path class="st3" d="M317.7,115c0,1.3,0.9,1.8,1.9,1.8c0.7,0,1.2-0.1,1.7-0.3l0.2,1.2c-0.5,0.2-1.3,0.4-2.2,0.4
				c-2.1,0-3.3-1.3-3.3-3.4c0-2,1.1-3.7,3.1-3.7s2.7,1.7,2.7,3.3c0,0.3,0,0.6-0.1,0.7H317.7z M320.4,113.8c0-0.8-0.3-1.7-1.3-1.7
				c-0.9,0-1.3,1-1.4,1.7H320.4z"/>
			<path class="st3" d="M329.2,114.5c0,2.6-1.7,3.6-3.2,3.6c-1.8,0-3.1-1.3-3.1-3.5c0-2.3,1.4-3.6,3.2-3.6
				C327.9,111,329.2,112.4,329.2,114.5z M324.5,114.6c0,1.3,0.5,2.3,1.5,2.3c0.9,0,1.4-1.1,1.4-2.3c0-1-0.4-2.3-1.4-2.3
				C324.9,112.2,324.5,113.5,324.5,114.6z"/>
			<path class="st3" d="M332.4,118.5l3.3-10.1h1.2l-3.3,10.1H332.4z"/>
			<path class="st3" d="M340.3,116.4c0.3,0.2,1,0.5,1.6,0.5c0.7,0,1-0.3,1-0.8s-0.3-0.7-1-1c-1.2-0.5-1.7-1.2-1.7-2
				c0-1.2,1-2.1,2.4-2.1c0.7,0,1.3,0.2,1.7,0.4l-0.3,1.2c-0.3-0.2-0.8-0.4-1.3-0.4c-0.6,0-0.9,0.3-0.9,0.7c0,0.4,0.3,0.6,1.1,1
				c1.1,0.5,1.7,1.1,1.7,2.1c0,1.3-1,2.1-2.6,2.1c-0.7,0-1.4-0.2-1.9-0.5L340.3,116.4z"/>
			<path class="st3" d="M346.9,115c0,1.3,0.9,1.8,1.9,1.8c0.7,0,1.2-0.1,1.7-0.3l0.2,1.2c-0.5,0.2-1.3,0.4-2.2,0.4
				c-2.1,0-3.3-1.3-3.3-3.4c0-2,1.1-3.7,3.1-3.7s2.7,1.7,2.7,3.3c0,0.3,0,0.6-0.1,0.7H346.9z M349.6,113.8c0-0.8-0.3-1.7-1.3-1.7
				c-0.9,0-1.3,1-1.4,1.7H349.6z"/>
			<path class="st3" d="M356,118l-0.1-0.7l0,0c-0.4,0.5-1,0.9-1.8,0.9c-1.3,0-2-0.9-2-2c0-1.7,1.5-2.6,3.7-2.6v-0.1
				c0-0.5-0.2-1.2-1.3-1.2c-0.6,0-1.2,0.2-1.7,0.5l-0.3-1.1c0.5-0.3,1.3-0.6,2.3-0.6c2.1,0,2.6,1.3,2.6,2.8v2.5c0,0.6,0,1.2,0.1,1.6
				L356,118L356,118z M355.8,114.6c-1,0-2.2,0.2-2.2,1.3c0,0.7,0.4,1,0.9,1c0.6,0,1-0.4,1.2-0.9c0-0.1,0-0.2,0-0.4v-1H355.8z"/>
		</g>
	</g>
</g>
<g>
	<g>
		<g>
			<path class="st3" d="M117.8,203.4h1.6v4.3l0,0c0.2-0.4,0.4-0.7,0.6-1.1l2.2-3.3h2l-2.9,4l3.1,5.4h-1.9l-2.4-4.3l-0.7,1v3.3h-1.6
				C117.8,212.7,117.8,203.4,117.8,203.4z"/>
			<path class="st3" d="M125.2,203h1.7v9.9h-1.7V203z"/>
			<path class="st3" d="M132.2,212.9l-0.1-0.7l0,0c-0.4,0.5-1,0.9-1.8,0.9c-1.3,0-2-0.9-2-2c0-1.7,1.5-2.6,3.7-2.6v-0.1
				c0-0.5-0.2-1.2-1.3-1.2c-0.6,0-1.2,0.2-1.7,0.5l-0.3-1.1c0.5-0.3,1.3-0.6,2.3-0.6c2.1,0,2.6,1.3,2.6,2.8v2.5c0,0.6,0,1.2,0.1,1.6
				L132.2,212.9L132.2,212.9z M132,209.5c-1,0-2.2,0.2-2.2,1.3c0,0.7,0.4,1,0.9,1c0.6,0,1-0.4,1.2-0.9c0-0.1,0-0.2,0-0.4v-1
				L132,209.5L132,209.5z"/>
			<path class="st3" d="M135.3,208c0-0.8,0-1.4-0.1-2h1.4l0.1,1l0,0c0.3-0.5,1-1.1,2-1.1c1.2,0,2.2,0.8,2.2,2.8v4.2h-1.7v-4
				c0-0.9-0.3-1.6-1.1-1.6c-0.6,0-1,0.4-1.2,1c-0.1,0.1-0.1,0.4-0.1,0.6v4.1h-1.7v-5H135.3z"/>
			<path class="st3" d="M144.6,204.1v1.9h1.5v1.2h-1.5v3.2c0,0.8,0.3,1.2,0.8,1.2c0.3,0,0.5,0,0.6-0.1v1.3c-0.2,0.1-0.7,0.2-1.2,0.2
				c-0.6,0-1.1-0.2-1.4-0.5c-0.4-0.4-0.5-1-0.5-1.9v-3.3H142V206h0.9v-1.5L144.6,204.1z"/>
			<path class="st3" d="M107.3,231.9l-0.1-0.7l0,0c-0.4,0.5-1,0.9-1.8,0.9c-1.3,0-2-0.9-2-2c0-1.7,1.5-2.6,3.7-2.6v-0.1
				c0-0.5-0.2-1.2-1.3-1.2c-0.6,0-1.2,0.2-1.7,0.5l-0.3-1.1c0.5-0.3,1.3-0.6,2.3-0.6c2.1,0,2.6,1.3,2.6,2.8v2.5c0,0.6,0,1.2,0.1,1.6
				L107.3,231.9L107.3,231.9z M107,228.5c-1,0-2.2,0.2-2.2,1.3c0,0.7,0.4,1,0.9,1c0.6,0,1-0.4,1.2-0.9c0-0.1,0-0.2,0-0.4L107,228.5
				L107,228.5z"/>
			<path class="st3" d="M110.3,222h1.7v9.9h-1.7V222z"/>
			<path class="st3" d="M113.7,230.3c0.3,0.2,1,0.5,1.6,0.5c0.7,0,1-0.3,1-0.8s-0.3-0.7-1-1c-1.2-0.5-1.7-1.2-1.7-2
				c0-1.2,1-2.1,2.4-2.1c0.7,0,1.3,0.2,1.7,0.4l-0.3,1.2c-0.3-0.2-0.8-0.4-1.3-0.4c-0.6,0-0.9,0.3-0.9,0.7s0.3,0.6,1.1,1
				c1.1,0.5,1.7,1.1,1.7,2.1c0,1.3-1,2.1-2.6,2.1c-0.7,0-1.4-0.2-1.9-0.5L113.7,230.3z"/>
			<path class="st3" d="M121.8,227.3c0-0.9,0-1.6-0.1-2.2h1.5l0.1,1l0,0c0.4-0.7,1.2-1.1,2.1-1.1c1.5,0,2.6,1.4,2.6,3.5
				c0,2.5-1.4,3.6-2.8,3.6c-0.8,0-1.4-0.4-1.7-0.9l0,0v3.5h-1.7V227.3z M123.5,229.1c0,0.2,0,0.4,0.1,0.5c0.2,0.7,0.7,1.1,1.3,1.1
				c1,0,1.5-1,1.5-2.3s-0.5-2.2-1.5-2.2c-0.6,0-1.2,0.5-1.3,1.2c0,0.1-0.1,0.3-0.1,0.5V229.1z"/>
			<path class="st3" d="M132.9,231.9l-0.1-0.7l0,0c-0.4,0.5-1,0.9-1.8,0.9c-1.3,0-2-0.9-2-2c0-1.7,1.5-2.6,3.7-2.6v-0.1
				c0-0.5-0.2-1.2-1.3-1.2c-0.6,0-1.2,0.2-1.7,0.5l-0.3-1.1c0.5-0.3,1.3-0.6,2.3-0.6c2.1,0,2.6,1.3,2.6,2.8v2.5c0,0.6,0,1.2,0.1,1.6
				L132.9,231.9L132.9,231.9z M132.7,228.5c-1,0-2.2,0.2-2.2,1.3c0,0.7,0.4,1,0.9,1c0.6,0,1-0.4,1.2-0.9c0-0.1,0-0.2,0-0.4v-1
				L132.7,228.5L132.7,228.5z"/>
			<path class="st3" d="M136,227.2c0-0.8,0-1.5-0.1-2.1h1.4l0.1,1.2l0,0c0.3-0.9,1-1.4,1.7-1.4c0.2,0,0.3,0,0.4,0v1.6
				c-0.1,0-0.3,0-0.4,0c-0.7,0-1.3,0.5-1.4,1.3c0,0.2,0,0.4,0,0.6v3.6H136V227.2z"/>
			<path class="st3" d="M142.5,223.1v1.9h1.5v1.2h-1.5v3.2c0,0.8,0.3,1.2,0.8,1.2c0.3,0,0.5,0,0.6-0.1v1.3c-0.2,0.1-0.7,0.2-1.2,0.2
				c-0.6,0-1.1-0.2-1.4-0.5c-0.4-0.4-0.5-1-0.5-1.9v-3.3H140V225h0.9v-1.5L142.5,223.1z"/>
			<path class="st3" d="M145.2,227c0-0.8,0-1.4-0.1-2h1.4l0.1,1l0,0c0.3-0.5,1-1.1,2-1.1c1.2,0,2.2,0.8,2.2,2.8v4.2h-1.7v-4
				c0-0.9-0.3-1.6-1.1-1.6c-0.6,0-1,0.4-1.2,1c-0.1,0.1-0.1,0.4-0.1,0.6v4.1H145v-5H145.2z"/>
			<path class="st3" d="M153.9,228.9c0,1.3,0.9,1.8,1.9,1.8c0.7,0,1.2-0.1,1.7-0.3l0.2,1.2c-0.5,0.2-1.3,0.4-2.2,0.4
				c-2.1,0-3.3-1.3-3.3-3.4c0-2,1.1-3.7,3.1-3.7s2.7,1.7,2.7,3.3c0,0.3,0,0.6-0.1,0.7H153.9z M156.5,227.7c0-0.8-0.3-1.7-1.3-1.7
				c-0.9,0-1.3,1-1.4,1.7H156.5z"/>
			<path class="st3" d="M159.4,227.2c0-0.8,0-1.5-0.1-2.1h1.4l0.1,1.2l0,0c0.3-0.9,1-1.4,1.7-1.4c0.2,0,0.3,0,0.4,0v1.6
				c-0.1,0-0.3,0-0.4,0c-0.7,0-1.3,0.5-1.4,1.3c0,0.2,0,0.4,0,0.6v3.6h-1.7V227.2z"/>
		</g>
	</g>
</g>
<g>
	<g>
		<g>
			<path class="st3" d="M274.3,203.4h1.7v6.3c0,2.6-1.2,3.3-2.9,3.3c-0.4,0-0.9-0.1-1.3-0.2l0.2-1.4c0.2,0.1,0.6,0.1,0.9,0.1
				c0.9,0,1.4-0.4,1.4-1.9L274.3,203.4L274.3,203.4z"/>
			<path class="st3" d="M283.6,209.4c0,2.6-1.7,3.6-3.2,3.6c-1.8,0-3.1-1.3-3.1-3.5c0-2.3,1.4-3.6,3.2-3.6
				C282.4,205.9,283.6,207.3,283.6,209.4z M279,209.5c0,1.3,0.5,2.3,1.5,2.3c0.9,0,1.4-1.1,1.4-2.3c0-1-0.4-2.3-1.4-2.3
				C279.4,207.1,279,208.4,279,209.5z"/>
			<path class="st3" d="M290.6,210.8c0,0.8,0,1.5,0.1,2h-1.4l-0.1-0.9l0,0c-0.3,0.5-0.9,1.1-2,1.1c-1.2,0-2.2-0.8-2.2-2.9V206h1.7
				v3.8c0,1.1,0.3,1.8,1.1,1.8c0.6,0,1-0.5,1.2-0.8c0.1-0.2,0.1-0.3,0.1-0.6V206h1.7v4.8H290.6z"/>
			<path class="st3" d="M293.3,206l0.6,3.1c0.1,0.7,0.3,1.5,0.4,2.2l0,0c0.1-0.7,0.3-1.5,0.5-2.2l0.8-3.1h1.3l0.8,3
				c0.2,0.8,0.4,1.5,0.5,2.2l0,0c0.1-0.7,0.2-1.5,0.4-2.2l0.7-3h1.6l-2,6.8h-1.5l-0.8-2.8c-0.2-0.7-0.3-1.3-0.5-2.2l0,0
				c-0.1,0.8-0.3,1.5-0.5,2.2l-0.8,2.8h-1.5l-1.9-6.8H293.3z"/>
			<path class="st3" d="M267.5,225l1,3.4c0.2,0.6,0.3,1.1,0.4,1.7l0,0c0.1-0.6,0.2-1.1,0.4-1.7l1-3.4h1.7l-2.4,6.8H268l-2.3-6.8
				H267.5z"/>
			<path class="st3" d="M274.2,228.9c0,1.3,0.9,1.8,1.9,1.8c0.7,0,1.2-0.1,1.7-0.3l0.2,1.2c-0.5,0.2-1.3,0.4-2.2,0.4
				c-2.1,0-3.3-1.3-3.3-3.4c0-2,1.1-3.7,3.1-3.7s2.7,1.7,2.7,3.3c0,0.3,0,0.6-0.1,0.7H274.2z M276.8,227.7c0-0.8-0.3-1.7-1.3-1.7
				c-0.9,0-1.3,1-1.4,1.7H276.8z"/>
			<path class="st3" d="M279.7,227.2c0-0.8,0-1.5-0.1-2.1h1.4l0.1,1.2l0,0c0.3-0.9,1-1.4,1.7-1.4c0.2,0,0.3,0,0.4,0v1.6
				c-0.1,0-0.3,0-0.4,0c-0.7,0-1.3,0.5-1.4,1.3c0,0.2,0,0.4,0,0.6v3.6h-1.7V227.2z"/>
			<path class="st3" d="M284.3,222h1.7v3.9l0,0c0.2-0.3,0.5-0.5,0.8-0.7s0.7-0.3,1.1-0.3c1.1,0,2.2,0.8,2.2,2.9v4.1h-1.7v-4
				c0-0.9-0.3-1.6-1.2-1.6c-0.6,0-1,0.4-1.2,0.9c0,0.1-0.1,0.3-0.1,0.5v4.2h-1.7V222H284.3z"/>
			<path class="st3" d="M295.3,231.9l-0.1-0.7l0,0c-0.4,0.5-1,0.9-1.8,0.9c-1.3,0-2-0.9-2-2c0-1.7,1.5-2.6,3.7-2.6v-0.1
				c0-0.5-0.2-1.2-1.3-1.2c-0.6,0-1.2,0.2-1.7,0.5l-0.3-1.1c0.5-0.3,1.3-0.6,2.3-0.6c2.1,0,2.6,1.3,2.6,2.8v2.5c0,0.6,0,1.2,0.1,1.6
				L295.3,231.9L295.3,231.9z M295.1,228.5c-1,0-2.2,0.2-2.2,1.3c0,0.7,0.4,1,0.9,1c0.6,0,1-0.4,1.2-0.9c0-0.1,0-0.2,0-0.4v-1
				L295.1,228.5L295.1,228.5z"/>
			<path class="st3" d="M301.9,231.9l-0.1-0.7l0,0c-0.4,0.5-1,0.9-1.8,0.9c-1.3,0-2-0.9-2-2c0-1.7,1.5-2.6,3.7-2.6v-0.1
				c0-0.5-0.2-1.2-1.3-1.2c-0.6,0-1.2,0.2-1.7,0.5l-0.3-1.1c0.5-0.3,1.3-0.6,2.3-0.6c2.1,0,2.6,1.3,2.6,2.8v2.5c0,0.6,0,1.2,0.1,1.6
				L301.9,231.9L301.9,231.9z M301.7,228.5c-1,0-2.2,0.2-2.2,1.3c0,0.7,0.4,1,0.9,1c0.6,0,1-0.4,1.2-0.9c0-0.1,0-0.2,0-0.4v-1
				L301.7,228.5L301.7,228.5z"/>
			<path class="st3" d="M305,222h1.7v9.9H305V222z"/>
		</g>
	</g>
</g>
<g>
	<g>
		<g>
			<path class="st3" d="M184.4,92.8v9.4h-1.7v-9.4H184.4z"/>
			<path class="st3" d="M192,92.3v8c0,0.7,0,1.4,0.1,1.9h-1.5l-0.1-1l0,0c-0.4,0.7-1.1,1.1-2,1.1c-1.5,0-2.7-1.4-2.7-3.5
				c0-2.3,1.3-3.6,2.8-3.6c0.8,0,1.4,0.4,1.7,0.8l0,0v-3.8L192,92.3L192,92.3z M190.4,98.1c0-0.1,0-0.3,0-0.4
				c-0.1-0.6-0.6-1.2-1.3-1.2c-1,0-1.5,1-1.5,2.3s0.5,2.2,1.5,2.2c0.6,0,1.1-0.4,1.3-1.1c0-0.1,0.1-0.3,0.1-0.5v-1.3H190.4z"/>
			<path class="st3" d="M194.9,99.2c0,1.3,0.9,1.8,1.9,1.8c0.7,0,1.2-0.1,1.7-0.3l0.2,1.2c-0.5,0.2-1.3,0.4-2.2,0.4
				c-2.1,0-3.3-1.3-3.3-3.4c0-2,1.1-3.7,3.1-3.7s2.7,1.7,2.7,3.3c0,0.3,0,0.6-0.1,0.7H194.9z M197.6,98.1c0-0.8-0.3-1.7-1.3-1.7
				c-0.9,0-1.3,1-1.4,1.7H197.6z"/>
			<path class="st3" d="M200.4,97.4c0-0.8,0-1.4-0.1-2h1.4l0.1,1l0,0c0.3-0.5,1-1.1,2-1.1c1.2,0,2.2,0.8,2.2,2.8v4.2h-1.7v-4
				c0-0.9-0.3-1.6-1.1-1.6c-0.6,0-1,0.4-1.2,1c-0.1,0.1-0.1,0.4-0.1,0.6v4.1h-1.7v-5H200.4z"/>
			<path class="st3" d="M209.8,93.5v1.9h1.5v1.2h-1.5v3.2c0,0.8,0.3,1.2,0.8,1.2c0.3,0,0.5,0,0.6-0.1v1.3c-0.2,0.1-0.7,0.2-1.2,0.2
				c-0.6,0-1.1-0.2-1.4-0.5c-0.4-0.4-0.5-1-0.5-1.9v-3.3h-0.9v-1.2h0.9V94L209.8,93.5z"/>
			<path class="st3" d="M214.2,93.5c0,0.5-0.4,0.9-0.9,0.9s-0.9-0.4-0.9-0.9s0.4-0.9,0.9-0.9C213.9,92.6,214.2,93,214.2,93.5z
				 M212.5,102.2v-6.8h1.7v6.8H212.5z"/>
			<path class="st3" d="M217.8,93.5v1.9h1.5v1.2h-1.5v3.2c0,0.8,0.3,1.2,0.8,1.2c0.3,0,0.5,0,0.6-0.1v1.3c-0.2,0.1-0.7,0.2-1.2,0.2
				c-0.6,0-1.1-0.2-1.4-0.5c-0.4-0.4-0.5-1-0.5-1.9v-3.3h-0.9v-1.2h0.9V94L217.8,93.5z"/>
			<path class="st3" d="M221.7,99.2c0,1.3,0.9,1.8,1.9,1.8c0.7,0,1.2-0.1,1.7-0.3l0.2,1.2c-0.5,0.2-1.3,0.4-2.2,0.4
				c-2.1,0-3.3-1.3-3.3-3.4c0-2,1.1-3.7,3.1-3.7s2.7,1.7,2.7,3.3c0,0.3,0,0.6-0.1,0.7H221.7z M224.4,98.1c0-0.8-0.3-1.7-1.3-1.7
				c-0.9,0-1.3,1-1.4,1.7H224.4z"/>
			<path class="st3" d="M228.9,93.5c0,0.5-0.4,0.9-0.9,0.9s-0.9-0.4-0.9-0.9s0.4-0.9,0.9-0.9C228.6,92.6,228.9,93,228.9,93.5z
				 M227.2,102.2v-6.8h1.7v6.8H227.2z"/>
			<path class="st3" d="M232.5,93.5v1.9h1.5v1.2h-1.5v3.2c0,0.8,0.3,1.2,0.8,1.2c0.3,0,0.5,0,0.6-0.1v1.3c-0.2,0.1-0.7,0.2-1.2,0.2
				c-0.6,0-1.1-0.2-1.4-0.5c-0.4-0.4-0.5-1-0.5-1.9v-3.3h-0.9v-1.2h0.9V94L232.5,93.5z"/>
		</g>
	</g>
</g>
<g>
	<g>
		<g>
			<path class="st3" d="M146.2,326.2c-0.7,0.3-2.1,0.7-4,0.7c-5.1,0-8.1-3.4-8.1-8.8c0-6.1,3.9-9.2,8.6-9.2c1.8,0,3.1,0.4,3.7,0.7
				l-0.6,2.5c-0.7-0.3-1.6-0.6-2.9-0.6c-3.1,0-5.5,2.1-5.5,6.5c0,4.1,2.1,6.3,5.4,6.3c1.1,0,2.2-0.2,3-0.5L146.2,326.2z"/>
			<path class="st3" d="M159.6,320.2c0,4.8-3.1,6.7-5.9,6.7c-3.3,0-5.8-2.4-5.8-6.5c0-4.3,2.6-6.7,6-6.7S159.6,316.3,159.6,320.2z
				 M151,320.3c0,2.3,1,4.3,2.8,4.3c1.7,0,2.7-2,2.7-4.3c0-1.9-0.7-4.3-2.7-4.3C151.7,316,151,318.3,151,320.3z"/>
			<path class="st3" d="M162,317.7c0-1.5-0.1-2.6-0.1-3.7h2.6l0.1,1.8h0.1c0.6-1,1.7-2,3.6-2c1.6,0,2.8,0.8,3.3,2.2h0.1
				c0.4-0.7,0.9-1.2,1.5-1.5c0.7-0.4,1.4-0.7,2.3-0.7c2.1,0,3.9,1.5,3.9,5.2v7.7h-3v-7.2c0-1.9-0.6-3.2-2-3.2c-1,0-1.7,0.7-2,1.6
				c-0.1,0.3-0.1,0.7-0.1,1.1v7.7h-3v-7.6c0-1.6-0.5-2.9-2-2.9c-1,0-1.8,0.8-2.1,1.7c-0.1,0.3-0.1,0.7-0.1,1v7.6h-3v-8.8L162,317.7
				L162,317.7z"/>
			<path class="st3" d="M182.6,317.7c0-1.5-0.1-2.6-0.1-3.7h2.6l0.1,1.8h0.1c0.6-1,1.7-2,3.6-2c1.6,0,2.8,0.8,3.3,2.2h0.1
				c0.4-0.7,0.9-1.2,1.5-1.5c0.7-0.4,1.4-0.7,2.3-0.7c2.1,0,3.9,1.5,3.9,5.2v7.7h-3v-7.2c0-1.9-0.6-3.2-2-3.2c-1,0-1.7,0.7-2,1.6
				c-0.1,0.3-0.1,0.7-0.1,1.1v7.7h-3v-7.6c0-1.6-0.5-2.9-2-2.9c-1,0-1.8,0.8-2.1,1.7c-0.1,0.3-0.1,0.7-0.1,1v7.6h-3v-8.8
				L182.6,317.7L182.6,317.7z"/>
			<path class="st3" d="M213.6,322.9c0,1.5,0.1,2.7,0.1,3.8H211l-0.2-1.7h-0.1c-0.5,0.8-1.7,2-3.7,2c-2.3,0-4.1-1.5-4.1-5.4V314h3.1
				v7.1c0,2,0.6,3.3,2.1,3.3c1.2,0,1.9-0.8,2.1-1.6c0.1-0.3,0.2-0.6,0.2-1V314h3.1L213.6,322.9L213.6,322.9z"/>
			<path class="st3" d="M216.8,317.7c0-1.5-0.1-2.6-0.1-3.7h2.7l0.2,1.8h0.1c0.6-1,1.9-2,3.7-2c2.2,0,4.1,1.5,4.1,5.2v7.8h-3.1v-7.4
				c0-1.7-0.5-3-2.1-3c-1.1,0-1.9,0.8-2.2,1.8c-0.1,0.3-0.1,0.7-0.1,1.1v7.6h-3.1L216.8,317.7L216.8,317.7z"/>
			<path class="st3" d="M233.8,310.5c0,1-0.7,1.7-1.7,1.7s-1.7-0.7-1.7-1.7s0.7-1.7,1.7-1.7S233.8,309.5,233.8,310.5z M230.6,326.6
				V314h3.1v12.7h-3.1V326.6z"/>
			<path class="st3" d="M245.3,326.3c-0.6,0.3-1.7,0.6-3.1,0.6c-3.7,0-6.1-2.4-6.1-6.4c0-3.8,2.4-6.7,6.6-6.7c1.1,0,2.1,0.2,2.7,0.5
				l-0.5,2.3c-0.4-0.2-1.1-0.4-2.1-0.4c-2.3,0-3.5,1.8-3.5,4.2c0,2.6,1.5,4.1,3.5,4.1c0.9,0,1.6-0.2,2.2-0.4L245.3,326.3z"/>
			<path class="st3" d="M254.1,326.6l-0.2-1.4h-0.1c-0.7,1-1.9,1.6-3.4,1.6c-2.3,0-3.7-1.7-3.7-3.8c0-3.2,2.8-4.8,6.9-4.8V318
				c0-1-0.4-2.2-2.4-2.2c-1.1,0-2.3,0.4-3.1,0.9l-0.6-2c0.9-0.5,2.4-1.1,4.3-1.1c3.8,0,4.9,2.5,4.9,5.2v4.7c0,1.1,0,2.2,0.2,3
				L254.1,326.6L254.1,326.6z M253.7,320.4c-1.9,0-4,0.4-4,2.4c0,1.3,0.8,1.9,1.7,1.9c1.1,0,1.9-0.7,2.2-1.7
				c0.1-0.2,0.1-0.5,0.1-0.7V320.4z"/>
			<path class="st3" d="M263.4,310.4v3.6h2.9v2.3h-2.9v5.9c0,1.5,0.5,2.2,1.5,2.2c0.5,0,0.8-0.1,1.1-0.1l0.1,2.4
				c-0.5,0.2-1.2,0.3-2.2,0.3c-1.1,0-2-0.3-2.6-1c-0.7-0.7-1-1.8-1-3.5v-6.1h-1.7V314h1.7v-2.8L263.4,310.4z"/>
			<path class="st3" d="M271.6,310.5c0,1-0.7,1.7-1.7,1.7s-1.7-0.7-1.7-1.7s0.7-1.7,1.7-1.7C271,308.8,271.6,309.5,271.6,310.5z
				 M268.4,326.6V314h3.1v12.7h-3.1V326.6z"/>
			<path class="st3" d="M276.9,321.1c0.1,2.5,1.7,3.4,3.6,3.4c1.3,0,2.3-0.2,3.1-0.5l0.5,2.1c-1,0.4-2.4,0.7-4,0.7
				c-3.9,0-6.1-2.5-6.1-6.4c0-3.7,2.1-6.8,5.7-6.8c3.7,0,5,3.1,5,6c0,0.6,0,1.1-0.1,1.4L276.9,321.1L276.9,321.1z M281.8,319
				c0-1.4-0.5-3.1-2.3-3.1c-1.7,0-2.5,1.8-2.6,3.1H281.8z"/>
		</g>
	</g>
</g>
<g>
	<g>
		<g>
			<path class="st4" d="M185.3,158.9h1.3v3.4l0,0c0.2-0.3,0.3-0.6,0.5-0.8l1.7-2.6h1.6l-2.3,3.2l2.4,4.2H189l-1.9-3.4l-0.6,0.7v2.6
				h-1.3v-7.3L185.3,158.9L185.3,158.9z"/>
			<path class="st4" d="M191.1,162.7c0-0.7,0-1.2,0-1.7h1.1l0.1,1l0,0c0.2-0.7,0.8-1.1,1.4-1.1c0.1,0,0.2,0,0.3,0v1.2
				c-0.1,0-0.2,0-0.4,0c-0.6,0-1,0.4-1.1,1c0,0.1,0,0.3,0,0.4v2.8h-1.3v-3.6L191.1,162.7L191.1,162.7z"/>
			<path class="st4" d="M197.6,166.4l-0.1-0.6l0,0c-0.3,0.4-0.8,0.7-1.4,0.7c-1,0-1.6-0.7-1.6-1.6c0-1.4,1.2-2,2.9-2v-0.1
				c0-0.4-0.2-0.9-1-0.9c-0.5,0-1,0.2-1.3,0.4l-0.3-0.9c0.4-0.2,1-0.4,1.8-0.4c1.6,0,2.1,1,2.1,2.2v2c0,0.5,0,0.9,0.1,1.3
				L197.6,166.4L197.6,166.4z M197.4,163.7c-0.8,0-1.7,0.2-1.7,1c0,0.5,0.3,0.8,0.7,0.8c0.5,0,0.8-0.3,0.9-0.7c0-0.1,0-0.2,0-0.3
				v-0.8H197.4z"/>
			<path class="st4" d="M203.6,166.2c-0.2,0.1-0.7,0.2-1.3,0.2c-1.6,0-2.6-1-2.6-2.7c0-1.6,1-2.8,2.8-2.8c0.4,0,0.9,0.1,1.1,0.2
				l-0.2,1c-0.2-0.1-0.5-0.2-0.9-0.2c-1,0-1.5,0.8-1.5,1.8c0,1.1,0.6,1.7,1.5,1.7c0.4,0,0.7-0.1,0.9-0.2L203.6,166.2z"/>
			<path class="st4" d="M204.5,158.6h1.3v3.1l0,0c0.2-0.2,0.4-0.4,0.6-0.6c0.2-0.1,0.5-0.2,0.9-0.2c0.9,0,1.7,0.6,1.7,2.2v3.2h-1.3
				v-3.1c0-0.7-0.2-1.3-0.9-1.3c-0.5,0-0.8,0.3-0.9,0.7c0,0.1-0.1,0.3-0.1,0.4v3.3h-1.3V158.6z"/>
			<path class="st4" d="M211.8,159.5v1.5h1.2v1h-1.2v2.5c0,0.7,0.2,0.9,0.6,0.9c0.2,0,0.4,0,0.5-0.1v1c-0.2,0.1-0.5,0.1-0.9,0.1
				c-0.5,0-0.9-0.1-1.1-0.4c-0.3-0.3-0.4-0.8-0.4-1.5V162h-0.7v-1h0.7v-1.2L211.8,159.5z"/>
			<path class="st4" d="M215.3,159.5c0,0.4-0.3,0.7-0.7,0.7s-0.7-0.3-0.7-0.7s0.3-0.7,0.7-0.7S215.3,159.1,215.3,159.5z
				 M213.9,166.4V161h1.3v5.4H213.9z"/>
			<path class="st4" d="M221.1,161c0,0.4,0,0.9,0,1.6v3c0,1.2-0.2,1.9-0.7,2.4s-1.2,0.6-1.9,0.6c-0.6,0-1.3-0.1-1.7-0.4l0.3-1
				c0.3,0.2,0.8,0.4,1.4,0.4c0.8,0,1.4-0.5,1.4-1.6v-0.4l0,0c-0.3,0.4-0.8,0.7-1.4,0.7c-1.3,0-2.1-1.1-2.1-2.6
				c0-1.8,1.1-2.8,2.2-2.8c0.7,0,1.2,0.4,1.4,0.8l0,0l0.1-0.7H221.1z M219.8,163.1c0-0.1,0-0.3,0-0.4c-0.1-0.4-0.4-0.8-1-0.8
				c-0.7,0-1.2,0.7-1.2,1.8c0,1,0.4,1.7,1.2,1.7c0.4,0,0.8-0.3,0.9-0.7c0-0.1,0.1-0.3,0.1-0.5V163.1z"/>
			<path class="st4" d="M223.4,164c0,1,0.7,1.4,1.5,1.4c0.6,0,1-0.1,1.3-0.2l0.2,0.9c-0.4,0.2-1,0.3-1.7,0.3c-1.6,0-2.6-1.1-2.6-2.7
				c0-1.6,0.9-2.9,2.4-2.9c1.6,0,2.1,1.3,2.1,2.6c0,0.3,0,0.5,0,0.6L223.4,164L223.4,164z M225.4,163.1c0-0.6-0.2-1.3-1-1.3
				c-0.7,0-1,0.8-1.1,1.3H225.4z"/>
			<path class="st4" d="M227.1,167.7c0.3-0.8,0.6-2,0.7-2.9l1.4-0.1c-0.3,1-0.8,2.2-1.2,2.9L227.1,167.7z"/>
			<path class="st4" d="M182.2,172.5c0,0.4-0.3,0.7-0.7,0.7s-0.7-0.3-0.7-0.7s0.3-0.7,0.7-0.7S182.2,172.1,182.2,172.5z
				 M180.8,179.4V174h1.3v5.4H180.8z"/>
			<path class="st4" d="M183.5,175.6c0-0.6,0-1.1,0-1.6h1.1l0.1,0.8l0,0c0.2-0.4,0.8-0.9,1.6-0.9c0.9,0,1.7,0.6,1.7,2.2v3.3h-1.3
				v-3.1c0-0.7-0.2-1.3-0.9-1.3c-0.5,0-0.8,0.3-0.9,0.8c0,0.1-0.1,0.3-0.1,0.4v3.2h-1.3L183.5,175.6L183.5,175.6z"/>
			<path class="st4" d="M190.8,172.5v1.5h1.2v1h-1.2v2.5c0,0.7,0.2,0.9,0.6,0.9c0.2,0,0.4,0,0.5-0.1v1c-0.2,0.1-0.5,0.1-0.9,0.1
				c-0.5,0-0.9-0.1-1.1-0.4c-0.3-0.3-0.4-0.8-0.4-1.5V175h-0.7v-1h0.7v-1.2L190.8,172.5z"/>
			<path class="st4" d="M193.9,177c0,1,0.7,1.4,1.5,1.4c0.6,0,1-0.1,1.3-0.2l0.2,0.9c-0.4,0.2-1,0.3-1.7,0.3c-1.6,0-2.6-1.1-2.6-2.7
				c0-1.6,0.9-2.9,2.4-2.9c1.6,0,2.1,1.3,2.1,2.6c0,0.3,0,0.5,0,0.6L193.9,177L193.9,177z M196,176.1c0-0.6-0.2-1.3-1-1.3
				c-0.7,0-1,0.8-1.1,1.3H196z"/>
			<path class="st4" d="M198.2,171.6h1.3v7.8h-1.3V171.6z"/>
			<path class="st4" d="M200.9,171.6h1.3v7.8h-1.3V171.6z"/>
			<path class="st4" d="M204.9,172.5c0,0.4-0.3,0.7-0.7,0.7s-0.7-0.3-0.7-0.7s0.3-0.7,0.7-0.7C204.7,171.8,204.9,172.1,204.9,172.5z
				 M203.6,179.4V174h1.3v5.4H203.6z"/>
			<path class="st4" d="M210.7,174c0,0.4,0,0.9,0,1.6v3c0,1.2-0.2,1.9-0.7,2.4s-1.2,0.6-1.9,0.6c-0.6,0-1.3-0.1-1.7-0.4l0.3-1
				c0.3,0.2,0.8,0.4,1.4,0.4c0.8,0,1.4-0.5,1.4-1.6v-0.4l0,0c-0.3,0.4-0.8,0.7-1.4,0.7c-1.3,0-2.1-1.1-2.1-2.6
				c0-1.8,1.1-2.8,2.2-2.8c0.7,0,1.2,0.4,1.4,0.8l0,0l0.1-0.7H210.7z M209.4,176.1c0-0.1,0-0.3,0-0.4c-0.1-0.4-0.4-0.8-1-0.8
				c-0.7,0-1.2,0.7-1.2,1.8c0,1,0.4,1.7,1.2,1.7c0.4,0,0.8-0.3,0.9-0.7c0-0.1,0.1-0.3,0.1-0.5V176.1z"/>
			<path class="st4" d="M213,177c0,1,0.7,1.4,1.5,1.4c0.6,0,1-0.1,1.3-0.2l0.2,0.9c-0.4,0.2-1,0.3-1.7,0.3c-1.6,0-2.6-1.1-2.6-2.7
				c0-1.6,0.9-2.9,2.4-2.9c1.6,0,2.1,1.3,2.1,2.6c0,0.3,0,0.5,0,0.6L213,177L213,177z M215.1,176.1c0-0.6-0.2-1.3-1-1.3
				c-0.7,0-1,0.8-1.1,1.3H215.1z"/>
			<path class="st4" d="M217.3,175.6c0-0.6,0-1.1,0-1.6h1.1l0.1,0.8l0,0c0.2-0.4,0.8-0.9,1.6-0.9c0.9,0,1.7,0.6,1.7,2.2v3.3h-1.3
				v-3.1c0-0.7-0.2-1.3-0.9-1.3c-0.5,0-0.8,0.3-0.9,0.8c0,0.1-0.1,0.3-0.1,0.4v3.2h-1.3L217.3,175.6L217.3,175.6z"/>
			<path class="st4" d="M224.6,172.5v1.5h1.2v1h-1.2v2.5c0,0.7,0.2,0.9,0.6,0.9c0.2,0,0.4,0,0.5-0.1v1c-0.2,0.1-0.5,0.1-0.9,0.1
				c-0.5,0-0.9-0.1-1.1-0.4c-0.3-0.3-0.4-0.8-0.4-1.5V175h-0.7v-1h0.7v-1.2L224.6,172.5z"/>
			<path class="st4" d="M227.7,177c0,1,0.7,1.4,1.5,1.4c0.6,0,1-0.1,1.3-0.2l0.2,0.9c-0.4,0.2-1,0.3-1.7,0.3c-1.6,0-2.6-1.1-2.6-2.7
				c0-1.6,0.9-2.9,2.4-2.9c1.6,0,2.1,1.3,2.1,2.6c0,0.3,0,0.5,0,0.6L227.7,177L227.7,177z M229.8,176.1c0-0.6-0.2-1.3-1-1.3
				c-0.7,0-1,0.8-1.1,1.3H229.8z"/>
			<path class="st4" d="M231.5,180.7c0.3-0.8,0.6-2,0.7-2.9l1.4-0.1c-0.3,1-0.8,2.2-1.2,2.9L231.5,180.7z"/>
			<path class="st4" d="M179.9,192.2c-0.2,0.1-0.7,0.2-1.3,0.2c-1.6,0-2.6-1-2.6-2.7c0-1.6,1-2.8,2.8-2.8c0.4,0,0.9,0.1,1.1,0.2
				l-0.2,1c-0.2-0.1-0.5-0.2-0.9-0.2c-1,0-1.5,0.8-1.5,1.8c0,1.1,0.6,1.7,1.5,1.7c0.4,0,0.7-0.1,0.9-0.2L179.9,192.2z"/>
			<path class="st4" d="M185.5,189.6c0,2-1.3,2.8-2.5,2.8c-1.4,0-2.4-1-2.4-2.8s1.1-2.8,2.5-2.8C184.5,186.9,185.5,188,185.5,189.6z
				 M181.8,189.7c0,1,0.4,1.8,1.2,1.8c0.7,0,1.1-0.8,1.1-1.8c0-0.8-0.3-1.8-1.1-1.8S181.8,188.8,181.8,189.7z"/>
			<path class="st4" d="M186.5,188.6c0-0.6,0-1.1,0-1.6h1.1l0.1,0.8l0,0c0.2-0.4,0.8-0.9,1.6-0.9c0.9,0,1.7,0.6,1.7,2.2v3.3h-1.3
				v-3.1c0-0.7-0.2-1.3-0.9-1.3c-0.5,0-0.8,0.3-0.9,0.8c0,0.1-0.1,0.3-0.1,0.4v3.2h-1.3L186.5,188.6L186.5,188.6z"/>
			<path class="st4" d="M193.2,187l0.8,2.7c0.1,0.5,0.2,0.9,0.3,1.4l0,0c0.1-0.5,0.2-0.9,0.3-1.4l0.8-2.7h1.3l-1.9,5.4h-1.3
				l-1.8-5.4H193.2z"/>
			<path class="st4" d="M198.4,190c0,1,0.7,1.4,1.5,1.4c0.6,0,1-0.1,1.3-0.2l0.2,0.9c-0.4,0.2-1,0.3-1.7,0.3c-1.6,0-2.6-1.1-2.6-2.7
				c0-1.6,0.9-2.9,2.4-2.9c1.6,0,2.1,1.3,2.1,2.6c0,0.3,0,0.5,0,0.6L198.4,190L198.4,190z M200.5,189.1c0-0.6-0.2-1.3-1-1.3
				c-0.7,0-1,0.8-1.1,1.3H200.5z"/>
			<path class="st4" d="M202.8,188.7c0-0.7,0-1.2,0-1.7h1.1l0.1,1l0,0c0.2-0.7,0.8-1.1,1.4-1.1c0.1,0,0.2,0,0.3,0v1.2
				c-0.1,0-0.2,0-0.4,0c-0.6,0-1,0.4-1.1,1c0,0.1,0,0.3,0,0.4v2.8h-1.3v-3.6L202.8,188.7L202.8,188.7z"/>
			<path class="st4" d="M207.9,185.5v1.5h1.2v1h-1.2v2.5c0,0.7,0.2,0.9,0.6,0.9c0.2,0,0.4,0,0.5-0.1v1c-0.2,0.1-0.5,0.1-0.9,0.1
				c-0.5,0-0.9-0.1-1.1-0.4c-0.3-0.3-0.4-0.8-0.4-1.5V188h-0.7v-1h0.7v-1.2L207.9,185.5z"/>
			<path class="st4" d="M211,190c0,1,0.7,1.4,1.5,1.4c0.6,0,1-0.1,1.3-0.2l0.2,0.9c-0.4,0.2-1,0.3-1.7,0.3c-1.6,0-2.6-1.1-2.6-2.7
				c0-1.6,0.9-2.9,2.4-2.9c1.6,0,2.1,1.3,2.1,2.6c0,0.3,0,0.5,0,0.6L211,190L211,190z M213.1,189.1c0-0.6-0.2-1.3-1-1.3
				c-0.7,0-1,0.8-1.1,1.3H213.1z"/>
			<path class="st4" d="M215.3,188.7c0-0.7,0-1.2,0-1.7h1.1l0.1,1l0,0c0.2-0.7,0.8-1.1,1.4-1.1c0.1,0,0.2,0,0.3,0v1.2
				c-0.1,0-0.2,0-0.4,0c-0.6,0-1,0.4-1.1,1c0,0.1,0,0.3,0,0.4v2.8h-1.3v-3.6L215.3,188.7L215.3,188.7z"/>
			<path class="st4" d="M219.9,190c0,1,0.7,1.4,1.5,1.4c0.6,0,1-0.1,1.3-0.2l0.2,0.9c-0.4,0.2-1,0.3-1.7,0.3c-1.6,0-2.6-1.1-2.6-2.7
				c0-1.6,0.9-2.9,2.4-2.9c1.6,0,2.1,1.3,2.1,2.6c0,0.3,0,0.5,0,0.6L219.9,190L219.9,190z M222,189.1c0-0.6-0.2-1.3-1-1.3
				c-0.7,0-1,0.8-1.1,1.3H222z"/>
			<path class="st4" d="M224.2,188.6c0-0.6,0-1.1,0-1.6h1.1l0.1,0.8l0,0c0.2-0.4,0.8-0.9,1.6-0.9c0.9,0,1.7,0.6,1.7,2.2v3.3h-1.3
				v-3.1c0-0.7-0.2-1.3-0.9-1.3c-0.5,0-0.8,0.3-0.9,0.8c0,0.1-0.1,0.3-0.1,0.4v3.2h-1.3L224.2,188.6L224.2,188.6z"/>
			<path class="st4" d="M234.6,184.6v6.3c0,0.5,0,1.1,0,1.5h-1.1l-0.1-0.8l0,0c-0.3,0.5-0.9,0.9-1.6,0.9c-1.2,0-2.1-1.1-2.1-2.7
				c0-1.8,1-2.8,2.2-2.8c0.6,0,1.1,0.3,1.3,0.7l0,0v-2.9h1.4L234.6,184.6L234.6,184.6z M233.3,189.2c0-0.1,0-0.2,0-0.3
				c-0.1-0.5-0.5-0.9-1-0.9c-0.8,0-1.2,0.8-1.2,1.8s0.4,1.7,1.2,1.7c0.5,0,0.9-0.3,1-0.9c0-0.1,0-0.2,0-0.4V189.2z"/>
			<path class="st4" d="M236.9,190c0,1,0.7,1.4,1.5,1.4c0.6,0,1-0.1,1.3-0.2l0.2,0.9c-0.4,0.2-1,0.3-1.7,0.3c-1.6,0-2.6-1.1-2.6-2.7
				c0-1.6,0.9-2.9,2.4-2.9c1.6,0,2.1,1.3,2.1,2.6c0,0.3,0,0.5,0,0.6L236.9,190L236.9,190z M239,189.1c0-0.6-0.2-1.3-1-1.3
				c-0.7,0-1,0.8-1.1,1.3H239z"/>
			<path class="st4" d="M193.3,200l0.5,2.4c0.1,0.6,0.2,1.1,0.3,1.7l0,0c0.1-0.6,0.3-1.2,0.4-1.7l0.7-2.4h1l0.6,2.4
				c0.2,0.6,0.3,1.2,0.4,1.8l0,0c0.1-0.6,0.2-1.1,0.3-1.8l0.5-2.4h1.3l-1.6,5.4h-1.2l-0.6-2.2c-0.1-0.5-0.3-1.1-0.4-1.7l0,0
				c-0.1,0.7-0.2,1.2-0.4,1.7l-0.6,2.2h-1.2l-1.5-5.4H193.3z"/>
			<path class="st4" d="M201.1,203c0,1,0.7,1.4,1.5,1.4c0.6,0,1-0.1,1.3-0.2l0.2,0.9c-0.4,0.2-1,0.3-1.7,0.3c-1.6,0-2.6-1.1-2.6-2.7
				c0-1.6,0.9-2.9,2.4-2.9c1.6,0,2.1,1.3,2.1,2.6c0,0.3,0,0.5,0,0.6L201.1,203L201.1,203z M203.2,202.1c0-0.6-0.2-1.3-1-1.3
				c-0.7,0-1,0.8-1.1,1.3H203.2z"/>
			<path class="st4" d="M205.4,205.4c0-0.4,0-1,0-1.5v-6.3h1.3v3.1l0,0c0.3-0.5,0.8-0.8,1.5-0.8c1.2,0,2,1.1,2,2.7
				c0,1.9-1.1,2.9-2.2,2.9c-0.6,0-1.2-0.3-1.5-0.9l0,0l-0.1,0.8H205.4z M206.8,203.2c0,0.1,0,0.2,0,0.3c0.1,0.6,0.6,0.9,1,0.9
				c0.8,0,1.2-0.7,1.2-1.8c0-1-0.4-1.7-1.2-1.7c-0.5,0-0.9,0.4-1,0.9c0,0.1,0,0.2,0,0.4V203.2z"/>
			<path class="st4" d="M211.3,204.2c0.3,0.2,0.8,0.4,1.2,0.4c0.5,0,0.8-0.2,0.8-0.6c0-0.4-0.2-0.5-0.8-0.8c-1-0.4-1.4-0.9-1.4-1.6
				c0-0.9,0.7-1.7,1.9-1.7c0.5,0,1,0.1,1.3,0.3l-0.3,0.9c-0.2-0.1-0.6-0.3-1-0.3c-0.5,0-0.7,0.2-0.7,0.6c0,0.3,0.2,0.5,0.8,0.8
				c0.9,0.4,1.3,0.9,1.3,1.6c0,1-0.8,1.7-2.1,1.7c-0.6,0-1.1-0.1-1.5-0.4L211.3,204.2z"/>
			<path class="st4" d="M217,198.5c0,0.4-0.3,0.7-0.7,0.7s-0.7-0.3-0.7-0.7s0.3-0.7,0.7-0.7S217,198.1,217,198.5z M215.6,205.4V200
				h1.3v5.4H215.6z"/>
			<path class="st4" d="M219.8,198.5v1.5h1.2v1h-1.2v2.5c0,0.7,0.2,0.9,0.6,0.9c0.2,0,0.4,0,0.5-0.1v1c-0.2,0.1-0.5,0.1-0.9,0.1
				c-0.5,0-0.9-0.1-1.1-0.4c-0.3-0.3-0.4-0.8-0.4-1.5V201h-0.7v-1h0.7v-1.2L219.8,198.5z"/>
			<path class="st4" d="M222.8,203c0,1,0.7,1.4,1.5,1.4c0.6,0,1-0.1,1.3-0.2l0.2,0.9c-0.4,0.2-1,0.3-1.7,0.3c-1.6,0-2.6-1.1-2.6-2.7
				c0-1.6,0.9-2.9,2.4-2.9c1.6,0,2.1,1.3,2.1,2.6c0,0.3,0,0.5,0,0.6L222.8,203L222.8,203z M224.9,202.1c0-0.6-0.2-1.3-1-1.3
				c-0.7,0-1,0.8-1.1,1.3H224.9z"/>
		</g>
	</g>
</g>
</svg>
