<svg xmlns="http://www.w3.org/2000/svg" viewBox="0 0 159.75 165.5"><defs><style>.cls-1{fill:#fff;}.cls-2{fill:#eb5814;}</style></defs><g id="Laag_2" data-name="Laag 2"><g id="Laag_1-2" data-name="Laag 1"><rect class="cls-1" width="159.75" height="165.5"/><polygon class="cls-2" points="79.87 47.25 38.88 118.25 120.86 118.25 79.87 47.25"/><path class="cls-1" d="M75.19,98.38a4,4,0,0,0-1-.07H70.07V105H73.4v-2.4h1.25a2.67,2.67,0,0,0,1-.2,2,2,0,0,0,1.26-1.87A2.1,2.1,0,0,0,75.19,98.38Z"/><path class="cls-1" d="M81.71,105H78.37V98.31h3.34Z"/><path class="cls-1" d="M90.74,101h-2v4H85.39v-4h-2V98.31h7.38V101Z"/><polygon class="cls-1" points="61.36 104.96 65.36 98.03 69.36 104.96 61.36 104.96"/><polygon class="cls-1" points="90.39 104.96 94.39 98.03 98.39 104.96 90.39 104.96"/><path class="cls-1" d="M103,102.56h.25a2.67,2.67,0,0,0,1-.2,2,2,0,0,0,1.26-1.87,2.1,2.1,0,0,0-1.73-2.11,4,4,0,0,0-1-.07H99.1V105h6.77Z"/><path class="cls-1" d="M60.69,101V98.31H56.58a3.33,3.33,0,1,0,0,6.65h4.11V102.1H58.48V101Z"/><path class="cls-1" d="M66.55,108.28H67v3.32h-.48Z"/><path class="cls-1" d="M69.44,108.7h-1v-.44H71v.44h-1v2.9h-.48v-2.9Z"/><path class="cls-1" d="M77,108.87a1.53,1.53,0,0,0-.91-.23,1.3,1.3,0,0,0,0,2.6,1.57,1.57,0,0,0,.53-.06v-1h-.71v-.39h1.17v1.72a2.85,2.85,0,0,1-1,.15,1.64,1.64,0,0,1-1.77-1.5v-.23a1.65,1.65,0,0,1,1.6-1.71h.17a2.5,2.5,0,0,1,1,.17Z"/><path class="cls-1" d="M78.77,108.28h.82c.65,0,1.29.11,1.29.89a.77.77,0,0,1-.69.75h0c.15.06.22.13.33.34l.62,1.33H80.6l-.51-1.16c-.15-.32-.3-.32-.55-.32h-.29v1.48h-.48v-3.31Zm.48,1.43h.41c.44,0,.71-.2.71-.52s-.23-.49-.66-.49h-.44Z"/><path class="cls-1" d="M84,108.22a1.72,1.72,0,1,1-1.6,1.72A1.57,1.57,0,0,1,84,108.22Zm0,3c.77,0,1.1-.64,1.1-1.3a1.17,1.17,0,0,0-1.1-1.3,1.15,1.15,0,0,0-1.09,1.3C83,110.62,83.28,111.24,84,111.24Z"/><path class="cls-1" d="M89.8,110.23c0,.93-.47,1.43-1.29,1.43s-1.29-.5-1.29-1.43v-2h.48v1.89c0,.64.2,1.08.81,1.08s.82-.44.82-1.08v-1.88h.47v1.94Z"/><path class="cls-1" d="M91.53,108.28h.89c.68,0,1.24.24,1.24,1s-.57,1-1.17,1H92v1.33h-.49Zm.48,1.58h.47a.6.6,0,0,0,.66-.53v-.06c0-.42-.44-.57-.73-.57H92Z"/></g></g></svg>